<svg xmlns="http://www.w3.org/2000/svg" width="24.242" height="17.746" viewBox="0 0 24.242 17.746">
  <path id="Path_908" data-name="Path 908" d="M26.215,17.058H8.027A3.03,3.03,0,0,0,5,20.085V31.777A3.031,3.031,0,0,0,8.027,34.8H26.215a3.031,3.031,0,0,0,3.027-3.027V20.085A3.03,3.03,0,0,0,26.215,17.058Zm-18.188.857H26.215a2.168,2.168,0,0,1,1.829,1.007l-9.328,8.81a2.354,2.354,0,0,1-3.189,0L6.2,18.923A2.169,2.169,0,0,1,8.027,17.915ZM5.878,32.062a2.207,2.207,0,0,1-.021-.285V20.085a2.163,2.163,0,0,1,.021-.285l6.491,6.131Zm20.337,1.885H8.027A2.168,2.168,0,0,1,6.2,32.94l6.8-6.419,1.944,1.835a3.22,3.22,0,0,0,4.366,0l1.943-1.835,6.8,6.418A2.167,2.167,0,0,1,26.215,33.947Zm2.169-13.862V31.777a2.2,2.2,0,0,1-.021.285l-6.491-6.131L28.364,19.8A2.251,2.251,0,0,1,28.384,20.085Z" transform="translate(-5 -17.058)" fill="#8d8d8d"/>
</svg>
