<svg id="Layer_1" data-name="Layer 1" xmlns="http://www.w3.org/2000/svg" viewBox="0 0 232 232"><defs><style>.cls-1{fill:#fff;}.cls-2{fill:#d700ff;}</style></defs><title>Artboard 1 copy 3</title><path class="cls-1" d="M200.34,46.35c0-1.58,0-3.06,0-4.54.08-13.72-3.2-17-17-17H46.45c-12.54,0-18.81,8-15.56,20,.26,1,2,2.09,3.13,2.26,9.71,1.4,12.82,4.86,12.83,14.83q0,41.72,0,83.44v4.55c5-.55,9.2-1.41,13.44-1.43q51.72-.17,103.43,0c6.85,0,13.69.83,20.79,1.29v-3.59q0-42,0-83.94c0-10.38,3.34-14.05,13.59-15.2A17,17,0,0,0,200.34,46.35Zm-85.21,164.9v0c19.16,0,38.33-.14,57.49.08,7.56.08,12.42-3.48,15.18-10a39.88,39.88,0,0,0-.09-32.08c-2.72-6.45-7.56-9.79-14.79-9.78q-57.49.1-115,0c-7.28,0-12.09,3.38-14.6,9.94a43.1,43.1,0,0,0-.13,31.73c2.77,7.21,7.3,10.11,14.94,10.12ZM28.18,182.94c1.34-6.77,1.46-13.95,4.27-19.86,3.26-6.86,3.69-13.57,3.58-20.69-.07-4.32,0-8.65,0-13,0-20.79,0-41.59,0-62.39,0-6.74-2.36-9-9-9-4.82,0-9.65-.09-14.47,0-5.74.16-8.23,3-7.63,8.58q5.73,53.06,11.5,106.12C17.21,180.55,20.68,183.41,28.18,182.94Zm173.94.1c9.2.17,12.4-2.58,13.15-10.75.44-4.8,1-9.59,1.5-14.39q4.86-45.91,9.69-91.82c.55-5.23-1.73-7.85-7-8-5-.19-10-.11-15,0-6.7.1-8.84,2.31-8.84,9.14q0,42.94,0,85.9a9.7,9.7,0,0,0,.84,4.78C201.19,165.52,202.21,174,202.12,183Z"/><path class="cls-2" d="M200.34,46.35a17,17,0,0,1-2.21.65c-10.25,1.15-13.58,4.82-13.59,15.2q0,42,0,83.94v3.59c-7.1-.46-13.94-1.26-20.79-1.29q-51.72-.21-103.43,0c-4.24,0-8.49.88-13.44,1.43v-4.55q0-41.71,0-83.44c0-10-3.12-13.43-12.83-14.83-1.17-.17-2.87-1.27-3.13-2.26-3.25-12,3-20,15.56-20h136.9c13.79,0,17.07,3.28,17,17C200.33,43.29,200.34,44.77,200.34,46.35Z"/><path class="cls-2" d="M115.13,211.25h-57c-7.64,0-12.17-2.91-14.94-10.12a43.1,43.1,0,0,1,.13-31.73c2.51-6.56,7.32-10,14.6-9.94q57.51.12,115,0c7.23,0,12.07,3.33,14.79,9.78a39.88,39.88,0,0,1,.09,32.08c-2.76,6.5-7.62,10.06-15.18,10-19.16-.22-38.33-.08-57.49-.08Z"/><path class="cls-2" d="M28.18,182.94c-7.5.47-11-2.39-11.81-10.22Q10.61,119.67,4.87,66.6C4.27,61,6.76,58.18,12.5,58,17.32,57.9,22.15,58,27,58c6.66,0,9,2.29,9,9,.07,20.8,0,41.6,0,62.39,0,4.33-.06,8.66,0,13,.11,7.12-.32,13.83-3.58,20.69C29.64,169,29.52,176.17,28.18,182.94Z"/><path class="cls-2" d="M202.12,183c.09-9.06-.93-17.52-5.58-25.22a9.7,9.7,0,0,1-.84-4.78q-.07-42.94,0-85.9c0-6.83,2.14-9,8.84-9.14,5-.07,10-.15,15,0,5.24.19,7.52,2.81,7,8q-4.78,45.92-9.69,91.82c-.51,4.8-1.06,9.59-1.5,14.39C214.52,180.46,211.32,183.21,202.12,183Z"/></svg>