<svg xmlns="http://www.w3.org/2000/svg" width="89.235" height="89.316" viewBox="0 0 89.235 89.316"><g transform="translate(-915 -2018)"><circle cx="35" cy="35" r="35" transform="translate(925 2028)" fill="#e76f51"/><g transform="translate(914.767 2018)"><g transform="translate(0.233 26.847)"><path d="M22.132,153.9a21.924,21.924,0,0,0-21.9,21.9c0,7.5,3.566,15.558,10.6,23.958,1.045,1.248,2.087,2.4,3.086,3.46-4.542,1.24-7.268,3.467-7.268,6.066,0,4.6,7.976,7.085,15.48,7.085s15.48-2.483,15.48-7.085c0-2.6-2.726-4.825-7.264-6.065a71.3,71.3,0,0,0,5.615-6.678,1.31,1.31,0,1,0-2.109-1.554,70.319,70.319,0,0,1-6.765,7.816,1.309,1.309,0,0,0-.571.567c-1.891,1.858-3.482,3.237-4.385,3.99-.893-.746-2.46-2.106-4.327-3.94a1.31,1.31,0,0,0-.656-.652c-5.932-5.967-14.3-16.276-14.3-26.968a19.28,19.28,0,0,1,38.559,0c0,4.643-1.582,9.656-4.7,14.9a1.31,1.31,0,1,0,2.251,1.339c3.364-5.656,5.07-11.12,5.07-16.241A21.924,21.924,0,0,0,22.132,153.9Zm-.8,56.183a1.31,1.31,0,0,0,1.6,0A66.571,66.571,0,0,0,28.2,205.4c4.417.9,6.793,2.635,6.793,3.884,0,.932-1.278,2.032-3.335,2.871a26.111,26.111,0,0,1-9.526,1.595c-7.851,0-12.861-2.645-12.861-4.465,0-1.25,2.376-2.984,6.8-3.885A66.559,66.559,0,0,0,21.33,210.085Z" transform="translate(-0.233 -153.902)" fill="#3b3735"/></g><g transform="translate(12.611 39.225)"><path d="M80.708,224.854a9.444,9.444,0,0,0-5.7,1.891,1.31,1.31,0,1,0,1.568,2.1,6.884,6.884,0,1,1-2.507,3.624,1.31,1.31,0,1,0-2.518-.723,9.523,9.523,0,1,0,9.153-6.891Z" transform="translate(-71.187 -224.854)" fill="#3b3735"/></g><g transform="translate(55.2 0)"><path d="M339.336,38.05c.666-.715,1.353-1.485,2.041-2.308,5.453-6.513,8.218-12.773,8.218-18.609a17.136,17.136,0,0,0-32.921-6.67,1.31,1.31,0,0,0,2.412,1.021,14.517,14.517,0,0,1,27.889,5.649c0,10.823-11.363,21.192-14.515,23.86-.695-.587-1.788-1.548-3.07-2.8a1.308,1.308,0,0,0-.582-.579c-4.522-4.553-10.861-12.38-10.861-20.476a1.31,1.31,0,0,0-2.619,0c0,5.835,2.765,12.1,8.218,18.609.688.822,1.374,1.592,2.04,2.307-3.376,1.014-5.325,2.741-5.325,4.82,0,1.754,1.422,3.3,4.006,4.351a24.742,24.742,0,0,0,16.391,0c2.583-1.053,4.005-2.6,4.005-4.352C344.661,40.794,342.711,39.066,339.336,38.05ZM332.461,46c-6.2,0-9.582-2.067-9.582-3.129,0-.692,1.538-1.958,4.824-2.656a51.178,51.178,0,0,0,3.957,3.511,1.31,1.31,0,0,0,1.6,0,51.118,51.118,0,0,0,3.957-3.511,12.005,12.005,0,0,1,3.619,1.309c.754.459,1.2.963,1.2,1.347C342.042,43.931,338.66,46,332.461,46Z" transform="translate(-315.327 0)" fill="#3b3735"/></g><g transform="translate(64.713 9.513)"><path d="M377.48,54.532a7.621,7.621,0,1,0,7.621,7.621A7.63,7.63,0,0,0,377.48,54.532Zm0,12.623a5,5,0,1,1,5-5A5.007,5.007,0,0,1,377.48,67.155Z" transform="translate(-369.859 -54.532)" fill="#3b3735"/></g><g transform="translate(52.308 41.56)"><path d="M301.789,238.239h-.6a9.881,9.881,0,0,0-1.3.086,1.31,1.31,0,1,0,.346,2.6,7.283,7.283,0,0,1,.956-.063h.6a1.31,1.31,0,0,0,0-2.62Z" transform="translate(-298.753 -238.239)" fill="#3b3735"/></g><g transform="translate(47.975 80.855)"><path d="M276.951,463.5h-.006l-1.73.008a1.31,1.31,0,0,0,.006,2.619h.006l1.73-.008a1.31,1.31,0,0,0-.006-2.619Z" transform="translate(-273.911 -463.496)" fill="#3b3735"/></g><g transform="translate(53.859 58.525)"><path d="M310.682,335.489h-1.73a1.31,1.31,0,1,0,0,2.619h1.73a1.31,1.31,0,1,0,0-2.619Z" transform="translate(-307.642 -335.489)" fill="#3b3735"/></g><g transform="translate(46.542 43.807)"><path d="M269.114,251.541a1.31,1.31,0,0,0-1.851-.075,9.844,9.844,0,0,0-1.32,1.492,1.31,1.31,0,1,0,2.128,1.528,7.239,7.239,0,0,1,.968-1.095A1.31,1.31,0,0,0,269.114,251.541Z" transform="translate(-265.698 -251.12)" fill="#3b3735"/></g><g transform="translate(54.895 80.823)"><path d="M316.617,463.314h-.006l-1.73.008a1.31,1.31,0,0,0,.006,2.619h.006l1.73-.008a1.31,1.31,0,0,0-.006-2.619Z" transform="translate(-313.578 -463.314)" fill="#3b3735"/></g><g transform="translate(41.055 80.886)"><path d="M237.286,463.675h-.006l-1.73.008a1.31,1.31,0,0,0,.006,2.62h.006l1.73-.008a1.31,1.31,0,0,0-.006-2.619Z" transform="translate(-234.246 -463.675)" fill="#3b3735"/></g><g transform="translate(47.558 56.157)"><path d="M274.891,323.185a7.228,7.228,0,0,1-1.15-.9,1.31,1.31,0,1,0-1.816,1.888,9.845,9.845,0,0,0,1.568,1.228,1.31,1.31,0,1,0,1.4-2.215Z" transform="translate(-271.523 -321.919)" fill="#3b3735"/></g><g transform="translate(44.955 49.954)"><path d="M259.349,289.139a7.238,7.238,0,0,1-.133-1.381v-.073a1.309,1.309,0,0,0-1.294-1.325h-.016a1.31,1.31,0,0,0-1.309,1.295v.1a9.861,9.861,0,0,0,.181,1.882,1.31,1.31,0,0,0,2.571-.5Z" transform="translate(-256.597 -286.361)" fill="#3b3735"/></g><g transform="translate(60.779 58.525)"><path d="M350.349,335.489h-1.73a1.31,1.31,0,1,0,0,2.619h1.73a1.31,1.31,0,1,0,0-2.619Z" transform="translate(-347.309 -335.489)" fill="#3b3735"/></g><g transform="translate(81.29 59.947)"><path d="M468.444,344.888a12.471,12.471,0,0,0-1.6-1.075,1.31,1.31,0,0,0-1.286,2.282,9.878,9.878,0,0,1,1.266.849,1.31,1.31,0,0,0,1.624-2.056Z" transform="translate(-464.888 -343.645)" fill="#3b3735"/></g><g transform="translate(75.653 80.631)"><path d="M436.906,463.342a1.31,1.31,0,0,0-1.477-1.118,9.852,9.852,0,0,1-1.306.092h-.245a1.31,1.31,0,0,0,.006,2.619h.251a12.5,12.5,0,0,0,1.653-.117A1.31,1.31,0,0,0,436.906,463.342Z" transform="translate(-432.575 -462.212)" fill="#3b3735"/></g><g transform="translate(82.167 77.672)"><path d="M473.515,445.657a1.309,1.309,0,0,0-1.852-.045,9.9,9.9,0,0,1-1.182.964,1.31,1.31,0,1,0,1.492,2.153,12.53,12.53,0,0,0,1.5-1.22A1.31,1.31,0,0,0,473.515,445.657Z" transform="translate(-469.918 -445.25)" fill="#3b3735"/></g><g transform="translate(86.31 71.695)"><path d="M495.671,411.01a1.31,1.31,0,0,0-1.529,1.045,9.809,9.809,0,0,1-.4,1.47,1.31,1.31,0,1,0,2.467.88,12.413,12.413,0,0,0,.5-1.865A1.31,1.31,0,0,0,495.671,411.01Z" transform="translate(-493.667 -410.987)" fill="#3b3735"/></g><g transform="translate(85.917 64.94)"><path d="M494.587,374.832a12.367,12.367,0,0,0-.678-1.811,1.31,1.31,0,1,0-2.374,1.108,9.734,9.734,0,0,1,.534,1.426,1.31,1.31,0,1,0,2.518-.723Z" transform="translate(-491.412 -372.265)" fill="#3b3735"/></g><g transform="translate(67.698 58.525)"><path d="M390.015,335.489h-1.73a1.31,1.31,0,0,0,0,2.619h1.73a1.31,1.31,0,0,0,0-2.619Z" transform="translate(-386.975 -335.489)" fill="#3b3735"/></g><g transform="translate(61.814 80.792)"><path d="M356.283,463.134h-.006l-1.73.008a1.31,1.31,0,0,0,.006,2.619h.006l1.73-.008a1.31,1.31,0,0,0-.006-2.619Z" transform="translate(-353.243 -463.134)" fill="#3b3735"/></g><g transform="translate(74.618 58.525)"><path d="M429.737,335.5c-.185-.008-.373-.012-.558-.012h-1.23a1.31,1.31,0,0,0,0,2.619h1.23q.222,0,.442.01h.059a1.31,1.31,0,0,0,.057-2.618Z" transform="translate(-426.64 -335.49)" fill="#3b3735"/></g><g transform="translate(68.733 80.76)"><path d="M395.948,462.955h-.006l-1.73.008a1.31,1.31,0,0,0,.006,2.619h.006l1.73-.008a1.31,1.31,0,0,0-.006-2.619Z" transform="translate(-392.908 -462.955)" fill="#3b3735"/></g></g></g></svg>