<svg xmlns="http://www.w3.org/2000/svg" width="84.509" height="84.507" viewBox="0 0 84.509 84.507"><g transform="translate(-1 -1)"><path d="M64.444,13.662s.886,5.643-3.966,17.079c-.75,1.731-1.622,3.612-2.658,5.629a40.054,40.054,0,0,1-9.078,11.408,47.979,47.979,0,0,1-7.183,5.3v.014c-7.265,4.389-14.625,6.215-18.21,4.457L22,56.9s.94-11.64,5.207-19.941a19.382,19.382,0,0,1,7.02-7.728c4.539-2.917,9.909-4.048,14.748-5.7,4.73-1.608,8.941-3.707,11.354-8.423l1.418-2.767,1.349.668Z" transform="translate(7.623 4.117)" fill="#ffd2c6"/><g transform="translate(41.809 5.089)"><path d="M56.185,11.047a7.839,7.839,0,0,1-.886,3.6l-.709,1.39-1.349-.668-5.384-2.631a4.466,4.466,0,0,1-1.895-6.12A4.787,4.787,0,0,1,50.188,4a4.424,4.424,0,0,1,1.935.45,7.249,7.249,0,0,1,4.062,6.6Z" transform="translate(-25.68 -4)" fill="#e76f51"/><path d="M65.576,13.312a4.627,4.627,0,0,1-.532,2.167,4.682,4.682,0,0,1-6.161,2.167L53.5,15.016l-1.349-.654.709-1.39A7.992,7.992,0,0,1,59.906,8.61a7.372,7.372,0,0,1,3.23.75,4.373,4.373,0,0,1,2.44,3.953Z" transform="translate(-23.24 -2.326)" fill="#e76f51"/><path d="M53.533,25.935c2.971,1.458,3.162,6.965.409,12.308s-7.388,8.492-10.359,7.047a4.009,4.009,0,0,1-1.963-2.413A40.054,40.054,0,0,0,50.7,31.469c1.036-2.017,1.908-3.9,2.658-5.629l.014.014Z" transform="translate(-27.063 3.928)" fill="#e76f51"/><path d="M43.7,14.341c2.276,1.063,2.917,4.389,1.922,8.246l.109.341c-4.839,1.649-10.209,2.781-14.748,5.7l-.041-.4a16.8,16.8,0,0,1,2.045-6.72c2.876-5.384,7.674-8.6,10.713-7.169Z" transform="translate(-30.94 -0.37)" fill="#e76f51"/></g><path d="M39.4,29.754c2.222,1.09,2.44,5.07.477,8.887a11.822,11.822,0,0,1-3.012,3.8,18.491,18.491,0,0,0-5.3-7.279c.082-.164.164-.313.245-.477,1.963-3.816,5.357-6.025,7.592-4.934Z" transform="translate(11.094 10.337)" fill="#fc6e51"/><path d="M23.495,20.11a10.668,10.668,0,0,1,.313,2.576A10.9,10.9,0,0,1,2,22.686a10.668,10.668,0,0,1,.313-2.576A23.07,23.07,0,0,0,12.9,22.686,23.07,23.07,0,0,0,23.495,20.11Z" transform="translate(0.363 6.937)" fill="#ffb63b"/><path d="M12.821,14a10.88,10.88,0,0,1,10.591,8.328,23.058,23.058,0,0,1-21.181,0A10.88,10.88,0,0,1,12.821,14Z" transform="translate(0.447 4.719)" fill="#e76f51"/><path d="M77.966,13.493a5.65,5.65,0,0,0-2.9-3.327,8.974,8.974,0,0,0-8.669.526A8.921,8.921,0,0,0,65.981,8.6a8.525,8.525,0,0,0-4.368-5.012,6.068,6.068,0,0,0-7.98,2.774A5.968,5.968,0,0,0,53.253,11a5.647,5.647,0,0,0,2.9,3.324l4.133,2.021L59.5,17.875c-1.87,3.638-4.9,5.56-8.553,7.006.455-3.707-.642-6.664-3.038-7.786-3.747-1.754-9.237,1.655-12.5,7.762a18.206,18.206,0,0,0-2.178,7.056,20.832,20.832,0,0,0-6.86,7.81c-4.338,8.437-5.309,19.967-5.348,20.455l-.075.925,2.181,1.067a9.332,9.332,0,0,0,4.1.823c5.922,0,14.362-3.781,21.489-9.722a4.7,4.7,0,0,0,3.938,2.015c3.4,0,7.443-3.151,10-8.13,2.005-3.9,2.624-7.972,1.653-10.9a5.694,5.694,0,0,0-1.772-2.678c2.823-6.927,3.551-11.706,3.682-14.329l3.382,1.653a5.744,5.744,0,0,0,2.527.582,6.169,6.169,0,0,0,5.452-3.354A5.965,5.965,0,0,0,77.966,13.493ZM55.838,10.141A3.265,3.265,0,0,1,56.057,7.6a3.331,3.331,0,0,1,4.358-1.57,5.817,5.817,0,0,1,2.98,3.423,6.338,6.338,0,0,1-.418,4.93l-.1.195-.144-.071-5.383-2.633a2.957,2.957,0,0,1-1.51-1.736Zm-18.026,16c2.708-5.073,6.885-7.54,8.939-6.577,1.5.7,1.98,3.241,1.243,6.361-.89.289-1.8.57-2.738.857a56.735,56.735,0,0,0-8.963,3.323,17.228,17.228,0,0,1,1.52-3.965Zm-.71,18.38c1.7-3,4.272-4.561,5.545-3.938A1.783,1.783,0,0,1,43.5,41.7c.492,1.484.109,3.808-.979,5.921A11.608,11.608,0,0,1,41.1,49.748,20.2,20.2,0,0,0,37.1,44.522Zm24.624-7.4c.721,2.177.138,5.627-1.491,8.791-2.572,5-6.562,7.408-8.546,6.44a2.262,2.262,0,0,1-.917-.889,41.14,41.14,0,0,0,8.639-11.084c.731-1.42,1.36-2.753,1.945-4.044a3.677,3.677,0,0,1,.371.785Zm-4.739,2.012A41.307,41.307,0,0,1,42.853,54.258c-.157-.611-.353-1.2-.564-1.79a13.658,13.658,0,0,0,2.654-3.6c1.448-2.815,1.874-5.815,1.141-8.025a4.457,4.457,0,0,0-2.238-2.707c-2.726-1.334-6.495.68-8.887,4.625A19.883,19.883,0,0,0,32.22,41.1l-1.2,2.449A17.25,17.25,0,0,1,40.4,55.767c-6.716,3.842-13.235,5.348-16.07,3.957l-.493-.241c.32-2.871,1.555-11.881,4.964-18.511,3.841-7.471,10.662-9.56,17.259-11.582,6.179-1.893,12.567-3.849,15.868-10.269l.811-1.576.784.383c.048,2.114-.356,9.192-6.532,21.2ZM75.161,16.888a3.328,3.328,0,0,1-4.356,1.57l-5.308-2.6-.17-.083.075-.146a6.459,6.459,0,0,1,8.468-3.018,2.942,2.942,0,0,1,1.509,1.736A3.257,3.257,0,0,1,75.161,16.888Z" transform="translate(7.241 0.727)" fill="#3b3735"/><path d="M27.654,73.011l6.059-4.04V73.24a9.541,9.541,0,1,1-19.082,0V41.81a12.262,12.262,0,0,0,0-24.373V1H11.9V17.437a12.262,12.262,0,0,0,0,24.373V73.24a12.267,12.267,0,0,0,24.534,0V63.879l-10.3,6.864ZM13.267,20.082A9.548,9.548,0,0,1,22.2,26.293a21.252,21.252,0,0,1-17.858,0,9.548,9.548,0,0,1,8.929-6.211ZM3.726,29.623c0-.195.018-.384.029-.577a24.3,24.3,0,0,0,19.025,0c.011.192.029.382.029.577a9.541,9.541,0,0,1-19.082,0Z" transform="translate(0 0)" fill="#3b3735"/><ellipse cx="1.5" cy="1" rx="1.5" ry="1" transform="translate(36.254 50.253)" fill="#3b3735"/></g></svg>