<svg width="2569" height="2669" viewBox="0 0 2569 2669" fill="none" xmlns="http://www.w3.org/2000/svg">
<g clip-path="url(#clip0_1013_301)">
<path d="M2485.57 984.315H81.3076C59.8851 984.293 39.3469 976.703 24.1989 963.211C9.05086 949.719 0.529863 931.425 0.505127 912.344V72.9473C0.529863 53.8662 9.05086 35.573 24.1989 22.0806C39.3469 8.58825 59.8851 0.998595 81.3076 0.976562H2485.57C2506.99 0.998595 2527.53 8.58825 2542.68 22.0806C2557.83 35.573 2566.35 53.8662 2566.37 72.9473V912.345C2566.35 931.426 2557.83 949.719 2542.68 963.211C2527.53 976.703 2506.99 984.293 2485.57 984.315Z" fill="#F2F2F2"/>
<path d="M1924.84 938.414H462.948C354.009 938.304 249.568 899.71 172.537 831.098C95.5054 762.487 52.1754 669.461 52.0525 572.429V412.903C52.1753 315.871 95.5052 222.845 172.536 154.232C249.567 85.6203 354.009 47.0256 462.948 46.9155H2103.95C2212.88 47.0256 2317.33 85.6203 2394.36 154.232C2471.39 222.845 2514.72 315.871 2514.84 412.903C2514.66 552.228 2452.45 685.803 2341.84 784.321C2231.23 882.839 2081.27 938.256 1924.84 938.414Z" fill="white"/>
<path d="M1547.73 287.207H581.403C575.876 287.207 570.576 285.251 566.668 281.771C562.759 278.29 560.564 273.569 560.564 268.646C560.564 263.723 562.759 259.002 566.668 255.521C570.576 252.04 575.876 250.084 581.403 250.084H1547.73C1553.26 250.084 1558.56 252.04 1562.47 255.521C1566.38 259.002 1568.57 263.723 1568.57 268.646C1568.57 273.569 1566.38 278.29 1562.47 281.771C1558.56 285.251 1553.26 287.207 1547.73 287.207Z" fill="#E6E6E6"/>
<path d="M2036.91 485.244H581.403C575.876 485.244 570.576 483.288 566.668 479.807C562.759 476.326 560.564 471.605 560.564 466.682C560.564 461.76 562.759 457.038 566.668 453.558C570.576 450.077 575.876 448.121 581.403 448.121H2036.91C2042.43 448.121 2047.73 450.077 2051.64 453.558C2055.55 457.038 2057.75 461.76 2057.75 466.682C2057.75 471.605 2055.55 476.326 2051.64 479.807C2047.73 483.288 2042.43 485.244 2036.91 485.244Z" fill="#E6E6E6"/>
<path d="M2036.91 683.28H581.403C575.876 683.28 570.576 681.325 566.668 677.844C562.759 674.363 560.564 669.642 560.564 664.719C560.564 659.796 562.759 655.075 566.668 651.594C570.576 648.113 575.876 646.158 581.403 646.158H2036.91C2042.43 646.158 2047.73 648.113 2051.64 651.594C2055.55 655.075 2057.75 659.796 2057.75 664.719C2057.75 669.642 2055.55 674.363 2051.64 677.844C2047.73 681.325 2042.43 683.28 2036.91 683.28Z" fill="#E6E6E6"/>
<path d="M2036.91 683.28H581.403C575.876 683.28 570.576 681.325 566.668 677.844C562.759 674.363 560.564 669.642 560.564 664.719C560.564 659.796 562.759 655.075 566.668 651.594C570.576 648.113 575.876 646.158 581.403 646.158H2036.91C2042.43 646.158 2047.73 648.113 2051.64 651.594C2055.55 655.075 2057.75 659.796 2057.75 664.719C2057.75 669.642 2055.55 674.363 2051.64 677.844C2047.73 681.325 2042.43 683.28 2036.91 683.28Z" fill="#E6E6E6"/>
<path d="M1445.76 507.973C1445.99 513.564 1447.6 519.042 1450.46 524.02C1453.33 528.999 1457.39 533.358 1462.35 536.789C1467.31 540.22 1473.05 542.641 1479.18 543.88C1485.3 545.12 1491.66 545.148 1497.8 543.963L1577.27 660.087L1611.09 596.158L1530.44 495.686C1527.52 486.632 1520.98 478.847 1512.04 473.805C1503.11 468.763 1492.41 466.814 1481.97 468.329C1471.54 469.843 1462.08 474.716 1455.41 482.022C1448.74 489.329 1445.3 498.562 1445.76 507.973Z" fill="#FFB6B6"/>
<path d="M2042.15 840.777L1768.27 708.459L1681.88 636.27C1681.88 636.27 1644.33 627.314 1658.15 616.438C1671.97 605.562 1632.58 595.072 1632.58 595.072L1586.21 556.319L1520.31 597.849L1539.38 624.181C1539.38 624.181 1538.07 667.772 1564.88 659.385C1591.69 650.999 1584.99 687.152 1584.99 687.152L1745.02 908.098L2042.15 840.777Z" fill="#3F3D56"/>
<path d="M1233.7 716.114C1381.44 716.114 1501.21 609.436 1501.21 477.842C1501.21 346.249 1381.44 239.571 1233.7 239.571C1085.95 239.571 966.187 346.249 966.187 477.842C966.187 609.436 1085.95 716.114 1233.7 716.114Z" fill="#6C63FF"/>
<path d="M2042.99 2576.3H1987.37L1960.9 2385.2H2042.99V2576.3Z" fill="#FFB6B6"/>
<path d="M2072.35 2662.14H2032.46L2025.34 2628.59L2007.11 2662.14H1901.31C1896.24 2662.14 1891.3 2660.69 1887.22 2658.02C1883.13 2655.34 1880.12 2651.57 1878.61 2647.26C1877.1 2642.95 1877.18 2638.32 1878.83 2634.05C1880.48 2629.78 1883.63 2626.09 1887.8 2623.52L1972.28 2571.55V2537.64L2061.15 2542.36L2072.35 2662.14Z" fill="#2F2E41"/>
<path d="M1598.13 2576.3H1542.5L1516.03 2385.2H1598.13V2576.3Z" fill="#FFB6B6"/>
<path d="M1627.48 2662.14H1587.59L1580.47 2628.59L1562.24 2662.14H1456.44C1451.37 2662.14 1446.43 2660.69 1442.35 2658.02C1438.26 2655.34 1435.25 2651.57 1433.74 2647.26C1432.23 2642.95 1432.31 2638.32 1433.96 2634.05C1435.61 2629.78 1438.76 2626.09 1442.93 2623.52L1527.42 2571.55V2537.64L1616.28 2542.36L1627.48 2662.14Z" fill="#2F2E41"/>
<path d="M1983.97 1131.07H1703.23V1415.75H1983.97V1131.07Z" fill="#FFB6B6"/>
<path d="M1709.71 1271.49L1662.2 1321.5L1580.14 1475.38L1373.36 1913.59L1329.63 2006.27L1364.94 2170.1C1364.94 2170.1 1370.66 2285.52 1370.66 2304.42C1370.66 2342.89 1406.79 2364.2 1406.79 2364.2L1433.29 2487.15L1690.27 2477.53C1690.27 2477.53 1681.31 2342.01 1627.48 2307.82C1573.66 2273.64 1548.92 2095.48 1548.92 2095.48L1519.67 2016.43L1804.73 1715.46L1806.57 1820.66L1807.46 1871.59C1807.46 1871.59 1765.72 2202.79 1814.38 2267.07C1863.04 2331.34 1815.37 2323.78 1815.37 2323.78L1817.69 2456.37L2122.18 2458.3L2055.01 2076.56C2055.01 2076.56 2020.9 2052.58 2039.15 2028.46C2057.4 2004.35 2021.46 1974.81 2021.46 1974.81L2037.58 1676.81C2037.58 1676.81 2019.73 1625.33 2040.72 1618.64C2061.72 1611.95 2043.48 1567.68 2043.48 1567.68L2046.6 1510L1983.97 1331.12L1709.71 1271.49Z" fill="#2F2E41"/>
<path d="M1988.29 1131.07L2018.53 1050.28L2040.12 1023.35L2048.76 946.414C2048.76 738.675 1996.74 773.268 1996.74 773.268L1966.7 700.204L1828.49 696.357L1739.94 771.374L1666.52 794.457L1637.77 927.526L1690.27 1069.52L1703.23 1146.46C1678.51 1187.1 1680.61 1167.88 1701.07 1198.39L1945.1 1258.02C2031.48 1284.95 2031.48 1215.71 2014.16 1198.39C1996.84 1181.08 1988.29 1131.07 1988.29 1131.07Z" fill="#3F3D56"/>
<path d="M1879.74 670.533C1950.5 670.533 2007.86 619.439 2007.86 556.411C2007.86 493.382 1950.5 442.288 1879.74 442.288C1808.97 442.288 1751.61 493.382 1751.61 556.411C1751.61 619.439 1808.97 670.533 1879.74 670.533Z" fill="#FFB6B6"/>
<path d="M2050.79 708.745C2052 710.559 2052.73 712.593 2052.93 714.694C2053.13 716.795 2052.8 718.91 2051.96 720.881C2051.12 722.852 2049.78 724.628 2048.06 726.077C2046.34 727.526 2044.28 728.61 2042.02 729.25C2024.83 734.328 2014.25 749.139 2001.9 760.988C1989.59 772.798 1969.76 782.608 1954.04 774.568C1938.36 766.566 1937.28 746.138 1924.15 735.059C1911.37 724.287 1890.12 725.595 1875.09 733.789L1874.64 734.036C1872.05 735.542 1869.01 736.338 1865.91 736.326C1862.82 736.313 1859.79 735.493 1857.21 733.965C1854.63 732.437 1852.62 730.27 1851.4 727.731C1850.19 725.192 1849.84 722.392 1850.4 719.679C1855.67 694.732 1860.93 669.788 1866.19 644.846C1852.37 674.508 1832.3 701.539 1807.06 724.48C1800.11 731.624 1791.3 737.145 1781.41 740.56C1772.42 743.099 1763.7 734.828 1754.97 736.328C1776.66 719.44 1849.56 611.184 1836.52 538.822C1821.19 540.361 1805.85 541.9 1790.52 543.438C1788.86 536.975 1785.32 531.017 1780.24 526.165C1780.86 532.455 1779.96 538.791 1777.61 544.746C1771.21 545.4 1764.78 546.016 1758.39 546.67C1749.49 547.555 1739.81 548.324 1732.17 544.169C1719.43 537.245 1719.04 520.856 1722.67 507.93C1733.29 470.345 1765.51 438.914 1804.95 422.449C1844.38 406.022 1856.04 442.608 1897.59 430.913C1979.65 407.831 2042.54 447.301 2064.7 520.549C2083.31 581.986 2069.79 647.193 2050.79 708.745Z" fill="#2F2E41"/>
<path d="M2405.5 2664.62H2248.61L2247.94 2663.53C2245.93 2660.29 2244 2656.85 2242.19 2653.33C2226.03 2622.51 2219.2 2587.27 2213.17 2556.17L2208.63 2532.73C2208.08 2529.89 2208.5 2526.97 2209.82 2524.34C2211.15 2521.72 2213.32 2519.5 2216.07 2517.98C2218.81 2516.46 2222.01 2515.7 2225.24 2515.81C2228.47 2515.92 2231.59 2516.88 2234.21 2518.57C2258.05 2534.03 2281.9 2549.47 2305.76 2564.89C2314.8 2570.74 2325.12 2577.52 2335 2584.84C2335.95 2580.72 2336.95 2576.58 2337.95 2572.5C2338.64 2569.69 2340.25 2567.12 2342.59 2565.12C2344.92 2563.13 2347.88 2561.8 2351.07 2561.31C2354.25 2560.82 2357.53 2561.19 2360.49 2562.37C2363.44 2563.55 2365.93 2565.48 2367.64 2567.93L2386 2594.2C2399.38 2613.38 2411.2 2632.29 2408.79 2652.67C2408.81 2652.92 2408.78 2653.17 2408.73 2653.41C2408.25 2656.76 2407.36 2660.05 2406.07 2663.23L2405.5 2664.62Z" fill="#F0F0F0"/>
<path d="M2562.97 2667.64L1072.12 2668.94C1070.63 2668.93 1069.21 2668.4 1068.16 2667.46C1067.11 2666.52 1066.52 2665.25 1066.52 2663.92C1066.52 2662.6 1067.11 2661.32 1068.16 2660.39C1069.21 2659.45 1070.63 2658.91 1072.12 2658.91L2562.97 2657.61C2564.46 2657.62 2565.89 2658.15 2566.94 2659.09C2567.99 2660.03 2568.58 2661.3 2568.58 2662.63C2568.58 2663.95 2567.99 2665.22 2566.94 2666.16C2565.89 2667.1 2564.46 2667.63 2562.97 2667.64Z" fill="#CACACA"/>
<path d="M1209.38 798.539L1045.39 675.189C1039.79 670.963 1036.29 664.929 1035.68 658.412C1035.06 651.894 1037.37 645.424 1042.1 640.422L1072.28 608.588C1077.03 603.596 1083.8 600.483 1091.12 599.934C1098.44 599.384 1105.7 601.442 1111.32 605.657L1275.3 729.007C1280.91 733.233 1284.4 739.267 1285.02 745.784C1285.64 752.302 1283.33 758.772 1278.59 763.774L1248.41 795.607C1243.67 800.6 1236.89 803.713 1229.58 804.262C1222.26 804.812 1215 802.753 1209.38 798.539Z" fill="#3F3D56"/>
<path d="M1054 642.988C1051.45 645.684 1050.2 649.17 1050.53 652.683C1050.87 656.195 1052.75 659.446 1055.77 661.724L1219.76 785.074C1222.78 787.345 1226.7 788.454 1230.64 788.158C1234.58 787.862 1238.24 786.184 1240.79 783.494L1270.97 751.661C1273.52 748.965 1274.77 745.479 1274.44 741.966C1274.1 738.454 1272.22 735.203 1269.2 732.925L1105.21 609.575C1102.19 607.304 1098.27 606.195 1094.33 606.491C1090.39 606.788 1086.74 608.465 1084.18 611.155L1054 642.988Z" fill="white"/>
<path d="M1150.27 690.94C1149.7 691.649 1148.95 692.231 1148.09 692.638C1147.22 693.046 1146.26 693.268 1145.28 693.288L1119.52 693.815C1118.69 693.832 1117.87 693.704 1117.09 693.437C1116.32 693.171 1115.62 692.771 1115.02 692.262C1114.42 691.752 1113.94 691.143 1113.6 690.468C1113.27 689.794 1113.09 689.067 1113.07 688.33C1113.05 687.592 1113.19 686.859 1113.49 686.171C1113.79 685.484 1114.24 684.855 1114.81 684.322C1115.38 683.789 1116.07 683.361 1116.83 683.063C1117.58 682.766 1118.4 682.603 1119.23 682.587L1136.08 682.241L1119.48 643.227C1118.9 641.835 1118.95 640.292 1119.64 638.937C1120.33 637.582 1121.59 636.525 1123.15 635.998C1124.71 635.471 1126.44 635.517 1127.97 636.126C1129.49 636.735 1130.68 637.857 1131.28 639.246L1151.03 685.684C1151.39 686.524 1151.52 687.428 1151.4 688.32C1151.29 689.212 1150.93 690.067 1150.37 690.812L1150.27 690.94Z" fill="#6C63FF"/>
<path d="M1153.57 700.745C1159.79 701.558 1165.73 703.574 1170.97 706.653C1176.22 709.732 1180.64 713.797 1183.93 718.563C1187.22 723.329 1189.3 728.679 1190.01 734.237C1190.73 739.796 1190.07 745.426 1188.08 750.733L1309.04 833.725L1234.02 856.722L1130.65 774.385C1120.87 770.817 1112.89 764.174 1108.23 755.717C1103.58 747.259 1102.56 737.574 1105.39 728.497C1108.22 719.42 1114.68 711.581 1123.56 706.467C1132.44 701.352 1143.12 699.316 1153.57 700.745Z" fill="#FFB6B6"/>
<path d="M1783.32 741.78L1473.62 911.381C1473.62 911.381 1348.75 870.23 1373.16 851.18C1397.56 832.13 1319.87 819.251 1319.87 819.251L1234.06 767.825L1184.26 819.374C1184.26 819.374 1193.33 903.107 1208.77 888.608C1224.21 874.11 1247.29 913.716 1247.29 913.716C1247.29 913.716 1254.11 957.939 1298.05 946.811C1342 935.682 1459.93 1052.33 1459.93 1052.33L1841.08 925.72L1783.32 741.78Z" fill="#3F3D56"/>
<path d="M1224.29 573.423C1220.7 573.423 1217.16 572.678 1213.95 571.248C1210.74 569.817 1207.94 567.74 1205.79 565.182L1149.07 497.82C1147.25 495.656 1145.92 493.193 1145.17 490.573C1144.41 487.952 1144.25 485.225 1144.68 482.547C1145.11 479.869 1146.12 477.293 1147.67 474.966C1149.22 472.638 1151.27 470.605 1153.7 468.982C1158.6 465.704 1164.77 464.297 1170.84 465.069C1173.85 465.452 1176.74 466.358 1179.35 467.737C1181.97 469.115 1184.25 470.938 1186.07 473.102L1223.18 517.169L1318.49 389.835C1321.89 385.289 1327.18 382.133 1333.2 381.062C1339.21 379.99 1345.46 381.091 1350.56 384.121C1355.66 387.152 1359.21 391.864 1360.41 397.221C1361.61 402.578 1360.38 408.142 1356.97 412.688L1243.53 564.25C1241.48 566.991 1238.72 569.254 1235.49 570.849C1232.25 572.444 1228.63 573.324 1224.93 573.416C1224.72 573.42 1224.5 573.423 1224.29 573.423Z" fill="white"/>
</g>
<defs>
<clipPath id="clip0_1013_301">
<rect width="2568.07" height="2667.96" fill="white" transform="translate(0.505371 0.976562)"/>
</clipPath>
</defs>
</svg>
