<svg xmlns="http://www.w3.org/2000/svg" xmlns:xlink="http://www.w3.org/1999/xlink" viewBox="0 0 500 500"><defs><clipPath id="freepik--clip-path--inject-13"><path d="M237.25,298.73a9.5,9.5,0,0,1-4.49-1.11,3.52,3.52,0,0,1-1.7-2.23c0-.66-1.2-17.53-1.2-17.53l5.34-4.4,10.62,3.85s-2,17.42-2,18.08-1.34,2-2.25,2.51A9.91,9.91,0,0,1,237.25,298.73Z" style="fill:none"></path></clipPath><clipPath id="freepik--clip-path-2--inject-13"><path d="M187.08,348.36l1.28-8.31s7.69,1,9.73,6.88,4,30.11-31.76,30.11-35.77-26.25-30.53-32.15,9.45-5.4,9.45-5.4l1.26,8.26Z" style="fill:none"></path></clipPath></defs><g id="freepik--Floor--inject-13"><ellipse id="freepik--floor--inject-13" cx="250" cy="340.53" rx="238.15" ry="137.49" style="fill:#f0f0f0"></ellipse></g><g id="freepik--Shadows--inject-13"><ellipse id="freepik--Shadow--inject-13" cx="250.84" cy="251.25" rx="57.72" ry="31.96" style="fill:#e0e0e0"></ellipse><ellipse id="freepik--shadow--inject-13" cx="165.22" cy="402.04" rx="29.78" ry="16.49" style="fill:#e0e0e0"></ellipse><path id="freepik--shadow--inject-13" d="M159.44,386.48l90.46,52.21a3.28,3.28,0,0,0,3,0l187.4-108.41a.91.91,0,0,0,0-1.72l-90.47-52.21a3.33,3.33,0,0,0-3,0L159.44,384.76C158.61,385.24,158.61,386,159.44,386.48Z" style="fill:#e0e0e0"></path><path id="freepik--shadow--inject-13" d="M21,322.41,70.89,351.2a3.05,3.05,0,0,0,2.79,0l65.47-37.52a.85.85,0,0,0,0-1.61l-49.9-28.79a3.11,3.11,0,0,0-2.79,0L21,320.8A.85.85,0,0,0,21,322.41Z" style="fill:#e0e0e0"></path></g><g id="freepik--Window--inject-13"><g id="freepik--window--inject-13"><g id="freepik--window--inject-13"><polygon points="40.94 172.42 44.47 174.46 132.72 123.5 129.19 121.46 40.94 172.42" style="fill:#f5f5f5"></polygon><polygon points="88.59 74.97 88.59 146.94 92.13 144.91 92.13 72.93 88.59 74.97" style="fill:#ebebeb"></polygon><polygon points="86.83 73.94 88.59 74.97 88.59 146.94 86.83 145.92 86.83 73.94" style="fill:#e0e0e0"></polygon><polygon points="88.59 74.97 92.13 72.93 90.36 71.9 86.83 73.94 88.59 74.97" style="fill:#fafafa"></polygon><path d="M136.25,45.41l-95.31,55v80.13l95.31-55Zm-3.53,78.09L44.47,174.45v-72l88.25-51Z" style="fill:#ebebeb"></path><polygon points="132.72 123.5 129.19 121.46 129.19 53.56 132.72 51.52 132.72 123.5" style="fill:#e0e0e0"></polygon><polygon points="136.25 45.41 132.72 43.37 37.41 98.4 40.94 100.44 136.25 45.41" style="fill:#f5f5f5"></polygon><polygon points="37.41 98.4 40.94 100.44 40.94 180.57 37.41 178.53 37.41 98.4" style="fill:#e0e0e0"></polygon><polygon points="88.59 77 92.12 74.97 92.12 77 88.59 79.04 88.59 77" style="opacity:0.1"></polygon><polygon points="88.59 79.04 86.83 78.02 88.59 77 88.59 79.04" style="opacity:0.1"></polygon></g></g></g><g id="freepik--Plant--inject-13"><g id="freepik--Pot--inject-13"><path d="M466.66,323.51c7.7-7.85,12.22-39.82,4.71-46.05h-38.2c-7.5,6.23-3,38.19,4.7,46.05l.22.21.26.26c.22.21.45.42.7.62l.18.14c.19.15.38.3.58.44a9.9,9.9,0,0,0,1,.64c6.33,3.65,16.59,3.65,22.93,0h0c.34-.19.67-.41,1-.64s.36-.27.54-.41l.23-.18a7.73,7.73,0,0,0,.67-.6l.3-.3Z" style="fill:#5B9FDF"></path><g style="opacity:0.5"><path d="M466.66,323.51c7.7-7.85,12.22-39.82,4.71-46.05h-38.2c-7.5,6.23-3,38.19,4.7,46.05l.22.21.26.26c.22.21.45.42.7.62l.18.14c.19.15.38.3.58.44a9.9,9.9,0,0,0,1,.64c6.33,3.65,16.59,3.65,22.93,0h0c.34-.19.67-.41,1-.64s.36-.27.54-.41l.23-.18a7.73,7.73,0,0,0,.67-.6l.3-.3Z" style="fill:#fff"></path></g><path d="M436.49,275c-8.72,5-8.72,13.19,0,18.22s22.85,5,31.56,0,8.72-13.19,0-18.22S445.2,269.92,436.49,275Z" style="fill:#5B9FDF"></path><g style="opacity:0.7000000000000001"><path d="M436.49,275c-8.72,5-8.72,13.19,0,18.22s22.85,5,31.56,0,8.72-13.19,0-18.22S445.2,269.92,436.49,275Z" style="fill:#fff"></path></g><path d="M440.68,277.38c-6.4,3.69-6.4,9.68,0,13.38s16.78,3.69,23.18,0,6.4-9.69,0-13.38S447.08,273.68,440.68,277.38Z" style="fill:#5B9FDF"></path><g style="opacity:0.2"><path d="M440.68,277.38c-6.4,3.69-6.4,9.68,0,13.38s16.78,3.69,23.18,0,6.4-9.69,0-13.38S447.08,273.68,440.68,277.38Z" style="fill:#fff"></path></g><path d="M463.86,283.73c-6.4-3.7-16.78-3.7-23.18,0a10.55,10.55,0,0,0-3.83,3.51,10.57,10.57,0,0,0,3.83,3.52c6.4,3.69,16.78,3.69,23.18,0a10.61,10.61,0,0,0,3.84-3.52A10.59,10.59,0,0,0,463.86,283.73Z" style="fill:#f5f5f5"></path><g id="freepik--Plants--inject-13"><path d="M448.55,273.63l5.48-3.9s4.49-23.54.61-33.69-11-10.09-14.42-7.38-1.54,11.22-.14,16.13c1.68,5.93,7,32.44,3.25,41.84Z" style="fill:#5B9FDF"></path><g style="opacity:0.2"><path d="M448.55,273.63l5.48-3.9s4.49-23.54.61-33.69-11-10.09-14.42-7.38-1.54,11.22-.14,16.13c1.68,5.93,7,32.44,3.25,41.84Z"></path></g><path d="M449.64,270.89a.45.45,0,0,1-.27-.52c4.44-20.13-4.73-38.85-4.83-39a.46.46,0,0,1,.21-.61.46.46,0,0,1,.61.2c.1.19,9.42,19.19,4.9,39.65a.47.47,0,0,1-.55.35Z" style="fill:#fff"></path><path d="M450.9,267.51s.61-1.86-2.11-2.33-3.77-2.73-4-6.53-1.4-6.53-4.82-7.09-6.16,1.16-8.38-.55-8-5.85-12.74-4-3.21,6-.72,8.6,3.2,3.54,1.3,7.84-.52,8.33,3.88,9.33,6.85.49,6.92,5.32c.06,4.3.94,8.34,5.44,10a22.86,22.86,0,0,0,11.12,1.1,6.16,6.16,0,0,0,3.42-1.42c.91-.92.72-2,.72-3.15V267.51Z" style="fill:#5B9FDF"></path><g style="opacity:0.1"><path d="M450.9,267.51s.61-1.86-2.11-2.33-3.77-2.73-4-6.53-1.4-6.53-4.82-7.09-6.16,1.16-8.38-.55-8-5.85-12.74-4-3.21,6-.72,8.6,3.2,3.54,1.3,7.84-.52,8.33,3.88,9.33,6.85.49,6.92,5.32c.06,4.3.94,8.34,5.44,10a22.86,22.86,0,0,0,11.12,1.1,6.16,6.16,0,0,0,3.42-1.42c.91-.92.72-2,.72-3.15V267.51Z"></path></g><path d="M450.9,287.37a.39.39,0,0,1-.36-.25c-8-23.76-26.11-33.36-26.29-33.45a.37.37,0,0,1-.16-.51.37.37,0,0,1,.51-.16c.18.09,18.55,9.81,26.66,33.88a.37.37,0,0,1-.24.47A.25.25,0,0,1,450.9,287.37Z" style="fill:#fff"></path><path d="M439.42,266.66h-.08c-5.23-1.19-13.59-.54-13.67-.54a.38.38,0,0,1-.41-.35.37.37,0,0,1,.35-.4c.34,0,8.56-.66,13.9.56a.37.37,0,0,1,.28.45A.38.38,0,0,1,439.42,266.66Z" style="fill:#fff"></path><path d="M443.68,278.08c-2.39,0-4.92-.15-5.08-.16a.38.38,0,0,1,0-.76,60.53,60.53,0,0,0,8.17,0,.37.37,0,0,1,.43.31.38.38,0,0,1-.31.43A23.15,23.15,0,0,1,443.68,278.08Z" style="fill:#fff"></path><path d="M437,263.87h0a.38.38,0,0,1-.36-.4,28.61,28.61,0,0,1,1.68-8,.38.38,0,1,1,.71.27,28.18,28.18,0,0,0-1.63,7.72A.38.38,0,0,1,437,263.87Z" style="fill:#fff"></path><path d="M451,290a22.5,22.5,0,0,0,11.61.42c6.66-1.42,8.27-5.49,8.27-5.49s-4.74-4.94-8.94-5.21a37.58,37.58,0,0,1,12.61.26s3.86-1.42,3.13-7.85c0,0-3.63-2.65-12-1.61a27,27,0,0,1,11.52-3.83c.58,0-.2-8.38-.9-12.11s-2.09-3.17-5.09-2.84-12.44,3.44-13.56,5.59,0,7.6,0,7.6-2.75-2.27-3.35-5a10.48,10.48,0,0,0-5.74,2.37c-2.64,2.24-1.87,3.66-1,5.88a25.2,25.2,0,0,0,3.47,6.27s-2.81-1-5.48-7.72c0,0-2.77,5.13-3.26,8.81S445.31,287,451,290Z" style="fill:#5B9FDF"></path><path d="M451.18,290.3a.37.37,0,0,0,.24-.32c1-12.48,15.12-32,21.36-35.88a.38.38,0,0,0-.4-.64c-6.34,4-20.69,23.78-21.71,36.46a.36.36,0,0,0,.34.4A.32.32,0,0,0,451.18,290.3Z" style="fill:#fff"></path></g></g></g><g id="freepik--Character--inject-13"><g id="freepik--character--inject-13"><g id="freepik--Chair--inject-13"><path d="M248.09,281.07a1.25,1.25,0,0,1-1.25-1.25V199.57a1.25,1.25,0,0,1,2.5,0v80.25A1.25,1.25,0,0,1,248.09,281.07Z" style="fill:#263238"></path><path d="M297.75,251.86a1.26,1.26,0,0,1-1.17-.79L272,188.78a1.25,1.25,0,1,1,2.32-.92l24.61,62.29a1.26,1.26,0,0,1-.71,1.62A1.2,1.2,0,0,1,297.75,251.86Z" style="fill:#263238"></path><path d="M294.79,244.37a1.26,1.26,0,0,1-.91-.39l-45.79-48.45-45.71,48.25a1.25,1.25,0,1,1-1.81-1.72l46.62-49.21a1.23,1.23,0,0,1,.9-.39h0a1.25,1.25,0,0,1,.91.39l46.7,49.42a1.25,1.25,0,0,1-.91,2.1Z" style="fill:#263238"></path><path d="M198.44,251.86a1.25,1.25,0,0,1-1.16-1.71l24.61-62.29a1.25,1.25,0,0,1,2.32.92L199.6,251.07A1.24,1.24,0,0,1,198.44,251.86Z" style="fill:#263238"></path><path d="M296.05,242.45,299.3,251a.78.78,0,0,1,0,.22.38.38,0,0,1,0,.15,1,1,0,0,1-.49.54,2.16,2.16,0,0,1-2,0,.8.8,0,0,1-.38-.4s0,0,0,0l0-.11-3-8Z" style="fill:#5B9FDF"></path><path d="M200.14,242.45,196.88,251a.78.78,0,0,0,0,.22v.15a1,1,0,0,0,.49.54,2.16,2.16,0,0,0,2,0,.87.87,0,0,0,.39-.4v0l0-.11,3-8Z" style="fill:#5B9FDF"></path><path d="M249.53,273.6v7.11a.71.71,0,0,1-.42.58,2.21,2.21,0,0,1-2,0,.7.7,0,0,1-.43-.58V273.6A3.06,3.06,0,0,1,249.53,273.6Z" style="fill:#5B9FDF"></path><path d="M295.08,191.7c0-1.88-1.65-3.89-5.14-6.15C283.5,181.37,269.11,173,260.1,168a.09.09,0,0,0-.08-.07c-6.93-4.21-13.4-24.25-18.2-39.48-1.64-5.2-3.64-8.13-6-9.51-.56-.33-2.64-1.48-3.1-1.75-4.71-2.83-10.89.56-18.59,4.78-7.1,3.88-12.64,8.85-13.75,22-.68,8,0,23.37,1.6,35v0c2.36,19.43,5.26,19.46,9.47,22.71,7.24,5.6,23.55,13.46,30.42,16.17,12.47,4.9,22.65-2.66,30.25-6.41a177.39,177.39,0,0,0,20.12-11.92c1.9-1.38,2.88-2.78,2.86-4.25C295.06,194.7,295.08,192.31,295.08,191.7Z" style="fill:#5B9FDF"></path><path d="M295.08,191.7c0-1.88-1.65-3.89-5.14-6.15C283.5,181.37,269.11,173,260.1,168a.09.09,0,0,0-.08-.07c-6.93-4.21-13.4-24.25-18.2-39.48-1.64-5.2-3.64-8.13-6-9.51-.56-.33-2.64-1.48-3.1-1.75-4.71-2.83-10.89.56-18.59,4.78-7.1,3.88-12.64,8.85-13.75,22-.68,8,0,23.37,1.6,35v0c2.36,19.43,5.26,19.46,9.47,22.71,7.24,5.6,23.55,13.46,30.42,16.17,12.47,4.9,22.65-2.66,30.25-6.41a177.39,177.39,0,0,0,20.12-11.92c1.9-1.38,2.88-2.78,2.86-4.25C295.06,194.7,295.08,192.31,295.08,191.7Z" style="opacity:0.25"></path><path d="M235.53,118.77c-4.67-2.45-10.73.88-18.23,5-4.81,2.63-8.9,5.75-11.39,11.59l-3.17-1.83c2.49-5.81,6.58-8.94,11.37-11.56,7.7-4.22,13.88-7.6,18.59-4.78Z" style="fill:#5B9FDF"></path><path d="M289.94,185.55c-4.18-2.71-4.27-3.4-30.05-17.69l.12,0c-6.93-4.22-13.39-24.25-18.19-39.47-4.88-15.47-13-11-24.53-4.68-7.09,3.88-12.63,8.85-13.75,22s1.33,45.88,5.83,49.83c4.91,5.43,24.6,15.52,32.47,18.61,12.47,4.91,22.65-2.65,30.25-6.4a175.7,175.7,0,0,0,20.12-11.93C296.53,192.78,296.13,189.57,289.94,185.55Z" style="fill:#5B9FDF"></path><path d="M260,167.91h0Z" style="fill:#5B9FDF"></path><g style="opacity:0.1"><path d="M217.29,123.76c11.53-6.31,19.65-10.79,24.53,4.68,4.8,15.23,11.27,35.27,18.2,39.48,0,0-11.89,0-29.13,9.3-17.92,9.67-20.65,19.14-21.48,18.46-4.53-3.76-7-36.7-5.87-49.88S210.2,127.64,217.29,123.76Z"></path></g></g><g id="freepik--character--inject-13"><path d="M292.71,133.93a6.18,6.18,0,0,1,4.18-1.66,8.33,8.33,0,0,0,4.71-1.59,9.45,9.45,0,0,0,1.8-2.31,2,2,0,0,0,.17-1.88,3.72,3.72,0,0,1-.14-.74c0-.36.33-.79.45-1a2,2,0,0,0,0-2.31,2.85,2.85,0,0,1-.35-.67c-.15-.51.11-1,.1-1.57,0-2.36-3.91-1.84-5.29-1.46-.4.11-2.35.6-3.23.85a12.87,12.87,0,0,0-.22-3.89c-.45-2.48-2.89-3.55-3.09-2.07-.13.85.15,3.2-.78,5.2a10.93,10.93,0,0,0-1.31,2.92c-.31,1.35-.71,2.3-3.53,5.25-2.64,2.75-12.65,11.58-12.65,11.58s-11.62-18.59-14.7-23.4c-5.56-8.7-15.9-6.77-15.9-6.77L246,121.31s18.67,26.81,21.83,30.48,7.09,2.32,9.14.3C279.93,149.19,287.55,139.52,292.71,133.93Z" style="fill:#ffa8a7"></path><path d="M241.87,108.07s8.51-1.39,12.73,2.25c3.94,3.4,5.25,5.4,10.48,14.3,4.8,8.18,8.17,12.84,8.17,12.84s-3.44,8.61-10.41,8.45l-11.6-15.36Z" style="fill:#263238"></path><path d="M296.13,120.41c-1.09.38-1.77,1.18-2,3.15-.14,1.16-.92,3.2-2.3,3.89a3,3,0,0,0,1.75-.49c.68-.54.85-.58,1.14-.19a2.11,2.11,0,0,0,.81.62,1.53,1.53,0,0,0-.38,1.79c.47,1.08,3.2,1.47,5.6.62,0,0-3.79.64-4.48-.63s1.43-2.45,2.92-2.65c0,0-3.63.37-4-.86s1.18-1.89,3.32-2.14c0,0-3,.13-3.34-.91A1.82,1.82,0,0,1,296.13,120.41Z" style="fill:#f28f8f"></path><g id="freepik--Cup--inject-13"><path d="M305.52,129.07a4.64,4.64,0,0,1-2.59-.17c-1.07-.4-1.76-1.62-2.59-3.61-.7-1.68-1.94-6.49-1.28-7.74,1-1.93,3.37-1.75,5.3-1.79H305l.08,2.36-.72,0c-1.08,0-2.9.06-3.17.67-.4,1.19,1.22,7.35,2.22,8a4.73,4.73,0,0,0,2.81-.16l.94,2A8.14,8.14,0,0,1,305.52,129.07Z" style="fill:#5B9FDF"></path><g style="opacity:0.15"><path d="M305.52,129.07a4.64,4.64,0,0,1-2.59-.17c-1.07-.4-1.76-1.62-2.59-3.61-.7-1.68-1.94-6.49-1.28-7.74,1-1.93,3.37-1.75,5.3-1.79H305l.08,2.36-.72,0c-1.08,0-2.9.06-3.17.67-.4,1.19,1.22,7.35,2.22,8a4.73,4.73,0,0,0,2.81-.16l.94,2A8.14,8.14,0,0,1,305.52,129.07Z"></path></g><path d="M296.13,120.41a12.49,12.49,0,0,1,3.65-1.38,6.73,6.73,0,0,1,3.16-.1,1.56,1.56,0,0,1,.75,1.78,2.06,2.06,0,0,0,.07,1.42c.15.45.81,1.05.43,2.06-.3.81-.71,1.2-2.85,1.85-2.39.73-5.46-.11-4.26-1.05l2-1.59s-2.55-.36-2.86-1.06A4.2,4.2,0,0,1,296.13,120.41Z" style="fill:#ffa8a7"></path><path d="M303.6,112.61c.19-1,1.09-1.89,2.72-2.68a19.84,19.84,0,0,1,13.85-.5c1.69.66,2.66,1.53,2.91,2.47h.06c.88,6.17,0,13.38-2,17.43,0,0,0,.05,0,.08l0,.06h0a4.57,4.57,0,0,1-1.74,1.77,11.6,11.6,0,0,1-10.51.39,4.64,4.64,0,0,1-1.87-1.64h0s0,0,0,0a.41.41,0,0,0-.05-.09c-2.34-3.89-3.71-11-3.29-17.23Z" style="fill:#5B9FDF"></path><g style="opacity:0.4"><path d="M306.32,109.93c-3.77,1.81-3.67,4.5.22,6a19.87,19.87,0,0,0,13.86-.5c3.76-1.81,3.66-4.5-.23-6A19.84,19.84,0,0,0,306.32,109.93Z" style="fill:#fff"></path></g><path d="M307.7,110.93c-3.05,1.2-3,3,.14,3.93a19.62,19.62,0,0,0,11.18-.41c3.05-1.2,3-3-.15-3.93A19.59,19.59,0,0,0,307.7,110.93Z" style="fill:#5B9FDF"></path><g style="opacity:0.1"><path d="M307.7,110.93c-3.05,1.2-3,3,.14,3.93a19.62,19.62,0,0,0,11.18-.41c3.05-1.2,3-3-.15-3.93A19.59,19.59,0,0,0,307.7,110.93Z"></path></g><path d="M307.78,113.31a5.88,5.88,0,0,0-1.52.83,5.86,5.86,0,0,0,1.58.72,19.62,19.62,0,0,0,11.18-.41,5.88,5.88,0,0,0,1.52-.83,5.57,5.57,0,0,0-1.58-.72A19.53,19.53,0,0,0,307.78,113.31Z" style="fill:#37474f"></path></g><path d="M257.83,135.28s-1,7.14.49,13.07,3,10.63,3,10.63a13.11,13.11,0,0,1-10.8,4c-7.51-.69-6-18.49-2-23A14,14,0,0,1,257.83,135.28Z" style="fill:#37474f"></path><path d="M263.48,275.15l.92-.2c-.13-3-.48-5.65.16-7.09L263,264.33Z" style="fill:#263238"></path><path d="M260.27,261.86c.34,2,1.63,4,2,8a33.66,33.66,0,0,1,.23,5.11l1,.19-.5-10.82Z" style="fill:#263238"></path><path d="M284.25,276.45a2.62,2.62,0,0,1-.55,1.52c-.48.42-2,1.83-7.23,1.87s-7.12-1.12-9-2.62-2.64-5.73-3-7.72a14.84,14.84,0,0,0-4.16-7.64,3.47,3.47,0,0,1-.29-2,6.58,6.58,0,0,1,6.46,4.11c2.17,4.64,4,10.06,8.29,11.1A65.06,65.06,0,0,0,284.25,276.45Z" style="fill:#263238"></path><path d="M281.32,272.1c1.68,1.27,2.92,1.8,2.87,3.08s-1.37,1.95-2.42,2.34a17.74,17.74,0,0,1-8,.52c-2.66-.29-5.52-1.3-6.77-3.66a10,10,0,0,1-.76-2.21,32.67,32.67,0,0,0-2.45-7.28,16.35,16.35,0,0,0-1.61-2.78,7.27,7.27,0,0,1-1.83-3.13c-.17-1,.51-2.48,1.43-4.07l0,0a6.19,6.19,0,0,0,.93-4.75l-.76-7.33,11.73,2s-.64,6.45-.64,8.12a28.9,28.9,0,0,0,1.09,7.28,36.56,36.56,0,0,0,3.5,8.13,8.34,8.34,0,0,0,1.32,1.8A22.06,22.06,0,0,0,281.32,272.1Z" style="fill:#ffa8a7"></path><path d="M260.24,256.86c.65-1.35,1.61-2.21,2.24-3.38a12.66,12.66,0,0,1,1.56,3.07c.39,1,1.56,6.07,3.09,10,1.14,3,2.83,4.49,5.06,5.18a8.75,8.75,0,0,0,4.31.2h0c2.68-.55,1.92-2.45,1.92-2.45a33.37,33.37,0,0,0,5.4,3.9,2.18,2.18,0,0,1,.41,3c-.71.7-3.16,2.44-9.68,1.94-5.78-.45-7.3-3-7.92-4.17a28.27,28.27,0,0,1-1.54-5.3,17.12,17.12,0,0,0-2.39-5.57c-.14-.21-.28-.41-.42-.58h0c-.42-.54-.92-1.13-1.48-1.72s-.76-.67-.91-1.12A4.38,4.38,0,0,1,260.24,256.86Z" style="fill:#37474f"></path><path d="M291.68,265.32l.91-.27c-.36-2.94-.9-5.6-.37-7.08l-1.84-3.41Z" style="fill:#263238"></path><path d="M287.49,252.3c.5,2,1.93,3.88,2.57,7.82a34.89,34.89,0,0,1,.61,5.08l1,.12-1.3-10.76Z" style="fill:#263238"></path><path d="M312.49,265.07a2.66,2.66,0,0,1-.43,1.56c-.45.45-1.88,1.92-7.08,2.34s-7.18-.53-9.17-1.89-3.05-5.51-3.6-7.47a14.77,14.77,0,0,0-4.72-7.31,3.49,3.49,0,0,1-.43-2,6.56,6.56,0,0,1,6.74,3.62c2.51,4.46,4.73,9.74,9.09,10.46A65.79,65.79,0,0,0,312.49,265.07Z" style="fill:#263238"></path><path d="M309.24,261c1.77,1.14,3.05,1.57,3.09,2.85s-1.21,2-2.23,2.51a17.77,17.77,0,0,1-7.94,1.12c-2.67-.1-5.61-.89-7-3.15a10.24,10.24,0,0,1-.92-2.15,31.92,31.92,0,0,0-3-7.08,16.1,16.1,0,0,0-1.81-2.65,7.42,7.42,0,0,1-2.06-3c-.24-1,.33-2.51,1.12-4.17l0,0c.89-1.87,1.16-2.61.69-5.69l-1.32-6.39,11.21,1.06s.41,4.42.53,7.73a23.66,23.66,0,0,0,1.6,7.67,36.14,36.14,0,0,0,4.1,7.84,7.64,7.64,0,0,0,1.45,1.7A22.74,22.74,0,0,0,309.24,261Z" style="fill:#ffa8a7"></path><path d="M287.2,247a33.48,33.48,0,0,1,1.88-3.11,11,11,0,0,1,1.79,2.64c.66,1.25,2,6.15,3.81,10,1.36,2.89,3.16,4.27,5.44,4.79a8.86,8.86,0,0,0,4.31-.12h0c2.63-.75,1.73-2.59,1.73-2.59a33.39,33.39,0,0,0,5.67,3.49,2.18,2.18,0,0,1,.64,3c-.65.75-3,2.68-9.51,2.65-5.8,0-7.5-2.46-8.2-3.57a28.15,28.15,0,0,1-1.94-5.16,17,17,0,0,0-2.79-5.38c-.16-.2-.31-.39-.46-.55h0a22,22,0,0,0-1.6-1.61c-.47-.43-.81-.61-1-1A4.9,4.9,0,0,1,287.2,247Z" style="fill:#37474f"></path><path d="M298.61,184.87c-4.1-4.88-12.77-8.94-20-12.25s-12.74-6.6-20.8-9.88c-11,4.08-28.06,0-39.36-4.79-2.81,3.77-6,18.35-5,24.84,1,6.24,3.21,13.65,17.92,19.61,8.76,3.55,26.93,10.76,26.93,10.76s-.88,4.54.52,14,3.24,19.72,3.24,19.72a13.28,13.28,0,0,0,11.4.44s3.41-27.61,4.25-36.47c.45-4.63-.34-7.74-1.54-9.09-2.26-2.56-4.66-4.45-8.91-7.32l15.32,4.39s-2.07,6.42.39,16.72c2.21,9.24,5.63,21.17,5.63,21.17s3.64,2.63,11.09-.4c0,0,.41-28.38.62-37.27C300.5,191.08,300.46,187.08,298.61,184.87Z" style="fill:#5B9FDF"></path><path d="M298.61,184.87c-4.1-4.88-12.77-8.94-20-12.25s-12.74-6.6-20.8-9.88c-11,4.08-28.06,0-39.36-4.79-2.81,3.77-6,18.35-5,24.84,1,6.24,3.21,13.65,17.92,19.61,8.76,3.55,26.93,10.76,26.93,10.76s-.88,4.54.52,14,3.24,19.72,3.24,19.72a13.28,13.28,0,0,0,11.4.44s3.41-27.61,4.25-36.47c.45-4.63-.34-7.74-1.54-9.09-2.26-2.56-4.66-4.45-8.91-7.32l15.32,4.39s-2.07,6.42.39,16.72c2.21,9.24,5.63,21.17,5.63,21.17s3.64,2.63,11.09-.4c0,0,.41-28.38.62-37.27C300.5,191.08,300.46,187.08,298.61,184.87Z" style="opacity:0.5"></path><path d="M228.86,109.05s-12.36,2-13.81,2.74c12,7.66,3.43,26.32,3.43,26.32L221,151.29c-1.62,5-5.64,12.57-7.72,20.14,16.62,9,43.74,4.24,45.45-8.29-1.09-4.86-1.77-11.77-2.44-15.34,0-2.64-.34-5.68-.24-10a12.48,12.48,0,0,0,2-14.58c-5-9-13.3-15.27-15.84-15.16Z" style="fill:#f5f5f5"></path><path d="M247.89,73c4,1.85,5.9,6.81,5.76,18.59-.13,10-3.33,12.48-5,13.2s-4.75.33-7.8-.14l0,4.13s5.39,6.1,5.16,8.85S239,121.69,235,119.05s-7.36-9.21-7.36-9.21l-.06-12.39s-1.77,1.76-4.84-.87c-2.53-2.16-3.42-5.85-1.48-7.86a4.37,4.37,0,0,1,7,1.31,17.38,17.38,0,0,1,6.57-11.11C240.48,74.62,243.42,72.8,247.89,73Z" style="fill:#ffa8a7"></path><path d="M225.33,109.65s-5.41.48-7.11.75c-2.5.4-8,9-5.06,18.68,3.13,10.44,6,20.38,5.77,22.65s-5.36,16-5.36,16c1.44,2,4.46,3.22,7.09,3.58L223.88,160l-.67,12.06s7.79,1.24,13.1.53C236.31,172.62,234.94,133.93,225.33,109.65Z" style="fill:#37474f"></path><path d="M216.55,111.22c-7.05.51-10.48,2.94-12.5,11.13-1.83,7.37-5.66,25.37-6.39,30.14-.66,4.36-.9,6,1.38,9.84,1.87,3.12,15.39,20.5,17,23.09a68,68,0,0,0,6.19,8.23,16.35,16.35,0,0,0,9.08,5.15c3.78.47,8.12-1.77,7.88-4s-6.62-4.74-9.64-8.8a21.44,21.44,0,0,0,3.37,1.1c1.56.33,3.15-.1,3.48-1s-1.21-1.15-2.74-2.2c-.91-.62-2.59-2.09-4.61-3.29-1.37-.81-3.29-1.23-4.36-2.19a63.22,63.22,0,0,1-6.19-9.22c-3-5.39-7.78-13.24-7.78-13.24l5.6-24.23S219.6,116.14,216.55,111.22Z" style="fill:#ffa8a7"></path><path d="M218.22,110.4c-3.7.23-5.69.48-8.08,1.5s-4.43,3.72-5.38,6-7.58,34.29-7.58,34.29,1.76,2,6.54,2.82c5.19.94,7.9,0,7.9,0L217.49,130S221.92,118.32,218.22,110.4Z" style="fill:#263238"></path><path d="M247.4,67.79c-5.08-3.06-7.85-3.71-12.66-3.66a22.12,22.12,0,0,0-10.36,3.2,7.53,7.53,0,0,0-3.48-4.42c-3.92-2.19-9.13-.32-11.64,4.16s-1.37,9.91,2.55,12.1a7.37,7.37,0,0,0,3.56.91,22.82,22.82,0,0,0,.49,9.65c1.94,7.62,11.73,13.59,11.75,16.78l-.05-9.06s-1.77,1.76-4.84-.87c-2.53-2.16-3.41-5.85-1.48-7.86a4.37,4.37,0,0,1,7,1.31h0V92.6a2.7,2.7,0,0,0,2.7-2.7V85.73c4.57-.32,13.6-2.52,13.62-12.44h0c0,.06.87,5.88-2.26,10.07,0,0,6.67-.71,6.72-7,0,0,.48,7.34,4.47,8.13v0a5.82,5.82,0,0,0,2.21-2.38C258.08,77.15,256.55,67.79,247.4,67.79Z" style="fill:#5B9FDF"></path><path d="M247.4,67.79c-5.08-3.06-7.85-3.71-12.66-3.66a22.12,22.12,0,0,0-10.36,3.2,7.53,7.53,0,0,0-3.48-4.42c-3.92-2.19-9.13-.32-11.64,4.16s-1.37,9.91,2.55,12.1a7.37,7.37,0,0,0,3.56.91,22.82,22.82,0,0,0,.49,9.65c1.94,7.62,11.73,13.59,11.75,16.78l-.05-9.06s-1.77,1.76-4.84-.87c-2.53-2.16-3.41-5.85-1.48-7.86a4.37,4.37,0,0,1,7,1.31h0V92.6a2.7,2.7,0,0,0,2.7-2.7V85.73c4.57-.32,13.6-2.52,13.62-12.44h0c0,.06.87,5.88-2.26,10.07,0,0,6.67-.71,6.72-7,0,0,.48,7.34,4.47,8.13v0a5.82,5.82,0,0,0,2.21-2.38C258.08,77.15,256.55,67.79,247.4,67.79Z" style="opacity:0.5"></path><path d="M221,70.5a13.12,13.12,0,0,0-4.93,4.58c-2.36,3.47-5.7,2.72-7.27.89a7.35,7.35,0,0,0,3,3.2,7.22,7.22,0,0,0,3.55.91C216.16,75.17,221,70.5,221,70.5Z" style="opacity:0.15"></path><path d="M239.79,88.45a1.25,1.25,0,1,1-1.33-1.23A1.27,1.27,0,0,1,239.79,88.45Z" style="fill:#263238"></path><path d="M240.23,97.23l3.5,1.07a1.8,1.8,0,0,1-2.26,1.28A1.92,1.92,0,0,1,240.23,97.23Z" style="fill:#f28f8f"></path><path d="M250.71,87.88a1.26,1.26,0,1,1-1.33-1.23A1.28,1.28,0,0,1,250.71,87.88Z" style="fill:#263238"></path><polygon points="243.42 87.15 243.43 95.33 247.39 94.06 243.42 87.15" style="fill:#f28f8f"></polygon><path d="M240.9,104.65c-3.22-.39-9.84-2.21-10.9-4.81a6.76,6.76,0,0,0,2.35,3.31c2,1.66,8.54,3.45,8.54,3.45Z" style="fill:#f28f8f"></path><path d="M232.88,84.71l-8.44,2.81a4.59,4.59,0,0,1,2.75,1.17l5.69-1.87Z" style="fill:#263238"></path><path d="M255,83.87l-.63-.06a18,18,0,0,0-6.28.41c-2,.69-2.71,1.4-3.82,1.45s-1.94-.64-4.07-1.2a20.74,20.74,0,0,0-6.72,0l-.67.1a1.12,1.12,0,0,0-.75,1.16,2.45,2.45,0,0,0,.64,1.3,1.54,1.54,0,0,1,.21.52,23.67,23.67,0,0,0,.81,3.62,4.12,4.12,0,0,0,.85,1.28,3.08,3.08,0,0,0,.44.37,2.2,2.2,0,0,0,.25.17,3.7,3.7,0,0,0,.75.34l.13,0,.2,0,.21,0a4.41,4.41,0,0,0,.66.08l.29,0h.35a4.77,4.77,0,0,0,4.61-2.86c.69-1.4.52-3.35,1.79-3.39h.24c.93.19.81,2,1.4,3.26a5.09,5.09,0,0,0,.89,1.38l.22.21.11.1.12.09.11.08.12.08.09.06.07,0a3.8,3.8,0,0,0,1.09.41l.11,0a5.58,5.58,0,0,0,1.34.1,4.05,4.05,0,0,0,3.9-2.66,23.29,23.29,0,0,0,.8-3.67,1.18,1.18,0,0,1,.24-.49,2.57,2.57,0,0,0,.59-1.36C255.69,84.42,255.32,83.9,255,83.87Zm-13.25,5.58a4.27,4.27,0,0,1-1,2h0a3.93,3.93,0,0,1-3,1.19,3.21,3.21,0,0,1-2.88-1.31l-.09-.13a1,1,0,0,1-.08-.14.75.75,0,0,1-.07-.12l-.06-.12-.05-.09,0-.08-.06-.14h0a3.17,3.17,0,0,1-.14-.4h0c0-.08-.05-.16-.07-.24s-.07-.27-.09-.38,0,0,0-.08v-.07c-.21-1-.45-2.85,0-3.29a5.38,5.38,0,0,1,3.78-.79h.22c.32,0,.63.08.94.14l.36.08c.32.08.63.17.91.27l.28.11.31.14.06,0,.11.06a1.76,1.76,0,0,1,.61.49C242.09,87.11,242,88.37,241.72,89.45Zm12-.79a4.35,4.35,0,0,1-1.95,3.15,3.55,3.55,0,0,1-1.53.39,3.22,3.22,0,0,1-3.06-1.35h0a.41.41,0,0,1,0-.09.53.53,0,0,1-.06-.1l0-.05a1.09,1.09,0,0,1-.08-.15,1.42,1.42,0,0,1-.08-.18.59.59,0,0,1,0-.08s0,0,0,0l0-.07a.14.14,0,0,0,0-.06,5.08,5.08,0,0,1-.19-.71,4.7,4.7,0,0,1,.08-2.92A5.75,5.75,0,0,1,250,84.84a8.63,8.63,0,0,1,.94-.1h.84l.25,0,.47.07.12,0h0l.07,0,.11,0,.14,0,.22.09a.05.05,0,0,1,0,0,1.72,1.72,0,0,1,.51.31C254.16,85.78,253.9,87.68,253.69,88.66Z" style="fill:#37474f"></path><path d="M267.26,194.41s-11.6-7.39-16.42-10.93a27.28,27.28,0,0,0,5.79-6.81,13.4,13.4,0,0,1-2.35,6.65l12,9,16.28,6.44Z" style="opacity:0.2"></path></g></g></g><g id="freepik--Desk--inject-13"><g id="freepik--desk--inject-13"><g id="freepik--desk--inject-13"><polygon points="251.47 333.6 170.28 286.72 340.94 188.31 422.14 235.19 251.47 333.6" style="fill:#455a64"></polygon><polygon points="170.28 286.72 170.28 380.48 174.55 382.94 174.55 318.8 247.2 360.74 247.2 424.89 251.47 427.35 251.47 333.6 170.28 286.72" style="fill:#263238"></polygon><polygon points="174.55 382.94 178.82 380.48 178.82 321.26 174.55 318.8 174.55 382.94"></polygon><polygon points="251.47 427.35 255.74 424.89 255.74 360.74 417.87 267.26 417.87 331.41 422.14 328.94 422.14 235.19 251.47 333.6 251.47 427.35" style="fill:#37474f"></polygon><polygon points="417.87 331.41 413.59 328.94 413.59 269.73 417.87 267.26 417.87 331.41" style="fill:#263238"></polygon></g><g id="freepik--Notebook--inject-13"><path d="M331,229.87a1.65,1.65,0,0,1-.81-.2l-22-12.67a.84.84,0,0,1,0-1.52L336.62,199l24.14,13.9-29,16.75A1.65,1.65,0,0,1,331,229.87Z" style="opacity:0.2"></path><path d="M337.52,199.19l-28.36,15.23-.46.73v.59a.87.87,0,0,0,.46.74l21.14,12.17a1.64,1.64,0,0,0,.78.19,1.67,1.67,0,0,0,.78-.19l27.85-16.09V212Z" style="fill:#5B9FDF"></path><path d="M337.52,199.19l-28.36,15.23-.46.73v.59a.87.87,0,0,0,.46.74l21.14,12.17a1.64,1.64,0,0,0,.78.19,1.67,1.67,0,0,0,.78-.19l27.85-16.09V212Z" style="opacity:0.2"></path><path d="M331.08,228.25a1.64,1.64,0,0,1-.78-.19l-21.14-12.17a.87.87,0,0,1-.46-.74.86.86,0,0,1,.46-.73l27.36-15.8L359.71,212l-27.85,16.09A1.67,1.67,0,0,1,331.08,228.25Z" style="fill:#5B9FDF"></path><path d="M336.52,196.89l-27.11,15.66-.22.31v2.29h0a.37.37,0,0,0,.22.31l21.14,12.17a1.17,1.17,0,0,0,1.06,0L358.72,212v-2.3Z" style="fill:#f5f5f5"></path><path d="M358.72,209.67l-.26.15-3.49,2-.64.38-22.72,13.12a1.17,1.17,0,0,1-1.06,0l-21.14-12.17a.32.32,0,0,1,0-.61l.28-.17,26.83-15.49,21.94,12.63.06,0Z" style="fill:#ebebeb"></path><path d="M331.08,225.46v2.3a1,1,0,0,1-.53-.13l-21.14-12.17a.36.36,0,0,1-.22-.31v-2.29a.35.35,0,0,0,.22.3l21.14,12.17A1,1,0,0,0,331.08,225.46Z" style="fill:#e0e0e0"></path><path d="M358.72,209.36l-3.85,2.23-.6.35L331.61,225a1.17,1.17,0,0,1-1.06,0l-18-10.37-.67-.39a6.46,6.46,0,0,1-2.17-1.89l-.05-.07a.64.64,0,0,1-.06-.16.47.47,0,0,1,.37-.54,10,10,0,0,0,2-.84l0,0,24.53-14.17Z" style="fill:#fafafa"></path><path d="M354.74,209.09a.31.31,0,0,0,0,.58,1.08,1.08,0,0,0,1,0,.31.31,0,0,0,0-.58A1.08,1.08,0,0,0,354.74,209.09Z" style="opacity:0.1"></path><path d="M357.92,207.23a1.29,1.29,0,0,0-1.33.1,4.13,4.13,0,0,0-1.68,2.41,1.11,1.11,0,0,0,.37,0,3.7,3.7,0,0,1,1.49-2.14,1.22,1.22,0,0,1,.61-.19.74.74,0,0,1,.36.09,1.38,1.38,0,0,1,.5,1.23c0,.1,0,.2,0,.3l.35.2a4.32,4.32,0,0,0,0-.5A1.71,1.71,0,0,0,357.92,207.23Z" style="fill:#5B9FDF"></path><path d="M358.54,209.47a.19.19,0,0,1,0,.08l-.06,0Z" style="fill:#263238"></path><path d="M351.75,207.37c-.28.16-.28.41,0,.57a1.08,1.08,0,0,0,1,0,.3.3,0,0,0,0-.57A1.08,1.08,0,0,0,351.75,207.37Z" style="opacity:0.1"></path><path d="M354.93,205.51a1.29,1.29,0,0,0-1.33.09,4.13,4.13,0,0,0-1.68,2.41.9.9,0,0,0,.37.05,3.7,3.7,0,0,1,1.49-2.14,1.33,1.33,0,0,1,.61-.19.74.74,0,0,1,.36.09,1.38,1.38,0,0,1,.5,1.23c0,.1,0,.2,0,.3l.34.2a2.81,2.81,0,0,0,0-.5A1.68,1.68,0,0,0,354.93,205.51Z" style="fill:#5B9FDF"></path><path d="M348.75,205.64a.31.31,0,0,0,0,.58,1.17,1.17,0,0,0,1,0,.31.31,0,0,0,0-.58A1.1,1.1,0,0,0,348.75,205.64Z" style="opacity:0.1"></path><path d="M351.94,203.78a1.29,1.29,0,0,0-1.33.09,4.16,4.16,0,0,0-1.68,2.42,1.08,1.08,0,0,0,.36,0,3.78,3.78,0,0,1,1.5-2.14,1.3,1.3,0,0,1,.61-.19.75.75,0,0,1,.36.1,1.35,1.35,0,0,1,.5,1.23,1.42,1.42,0,0,1,0,.29l.35.2a2.7,2.7,0,0,0,0-.49A1.7,1.7,0,0,0,351.94,203.78Z" style="fill:#5B9FDF"></path><path d="M345.76,203.91a.31.31,0,0,0,0,.58,1.1,1.1,0,0,0,1,0,.31.31,0,0,0,0-.58A1.1,1.1,0,0,0,345.76,203.91Z" style="opacity:0.1"></path><path d="M349,202.05a1.29,1.29,0,0,0-1.33.1,4.13,4.13,0,0,0-1.68,2.41.87.87,0,0,0,.36,0,3.78,3.78,0,0,1,1.5-2.14,1.28,1.28,0,0,1,.61-.18.74.74,0,0,1,.36.09,1.36,1.36,0,0,1,.5,1.23,1.51,1.51,0,0,1,0,.3l.35.2a2.89,2.89,0,0,0,0-.5A1.71,1.71,0,0,0,349,202.05Z" style="fill:#5B9FDF"></path><path d="M342.77,202.19a.3.3,0,0,0,0,.57,1.08,1.08,0,0,0,1,0c.28-.16.28-.41,0-.57A1.08,1.08,0,0,0,342.77,202.19Z" style="opacity:0.1"></path><path d="M346,200.33a1.29,1.29,0,0,0-1.33.09,4.13,4.13,0,0,0-1.68,2.41.87.87,0,0,0,.36,0,3.71,3.71,0,0,1,1.5-2.14,1.2,1.2,0,0,1,.61-.19.74.74,0,0,1,.36.09,1.38,1.38,0,0,1,.5,1.23,1.51,1.51,0,0,1,0,.3l.35.2a2.81,2.81,0,0,0,0-.5A1.68,1.68,0,0,0,346,200.33Z" style="fill:#5B9FDF"></path><path d="M339.78,200.46c-.27.16-.27.42,0,.57a1.08,1.08,0,0,0,1,0c.28-.15.28-.41,0-.57A1.08,1.08,0,0,0,339.78,200.46Z" style="opacity:0.1"></path><path d="M343,198.6a1.31,1.31,0,0,0-1.34.09,4.19,4.19,0,0,0-1.67,2.42,1.08,1.08,0,0,0,.36,0,3.78,3.78,0,0,1,1.5-2.14,1.27,1.27,0,0,1,.61-.19.75.75,0,0,1,.36.1,1.38,1.38,0,0,1,.5,1.23,2.83,2.83,0,0,1,0,.29l.35.2a4,4,0,0,0,0-.49A1.7,1.7,0,0,0,343,198.6Z" style="fill:#5B9FDF"></path><path d="M336.79,198.73a.31.31,0,0,0,0,.58,1.08,1.08,0,0,0,1,0,.31.31,0,0,0,0-.58A1.08,1.08,0,0,0,336.79,198.73Z" style="opacity:0.1"></path><path d="M340,196.87a1.33,1.33,0,0,0-1.34.09,4.28,4.28,0,0,0-1.68,2.42.94.94,0,0,0,.37,0,3.78,3.78,0,0,1,1.5-2.14,1.25,1.25,0,0,1,.61-.18.68.68,0,0,1,.35.09,1.36,1.36,0,0,1,.51,1.23,2.64,2.64,0,0,1,0,.29l.35.21a4.38,4.38,0,0,0,0-.5A1.7,1.7,0,0,0,340,196.87Z" style="fill:#5B9FDF"></path><g style="opacity:0.30000000000000004"><path d="M357.92,207.23a1.29,1.29,0,0,0-1.33.1,4.13,4.13,0,0,0-1.68,2.41,1.11,1.11,0,0,0,.37,0,3.7,3.7,0,0,1,1.49-2.14,1.22,1.22,0,0,1,.61-.19.74.74,0,0,1,.36.09,1.38,1.38,0,0,1,.5,1.23c0,.1,0,.2,0,.3l.35.2a4.32,4.32,0,0,0,0-.5A1.71,1.71,0,0,0,357.92,207.23Z"></path><path d="M354.93,205.51a1.29,1.29,0,0,0-1.33.09,4.13,4.13,0,0,0-1.68,2.41.9.9,0,0,0,.37.05,3.7,3.7,0,0,1,1.49-2.14,1.33,1.33,0,0,1,.61-.19.74.74,0,0,1,.36.09,1.38,1.38,0,0,1,.5,1.23c0,.1,0,.2,0,.3l.34.2a2.81,2.81,0,0,0,0-.5A1.68,1.68,0,0,0,354.93,205.51Z"></path><path d="M351.94,203.78a1.29,1.29,0,0,0-1.33.09,4.16,4.16,0,0,0-1.68,2.42,1.08,1.08,0,0,0,.36,0,3.78,3.78,0,0,1,1.5-2.14,1.3,1.3,0,0,1,.61-.19.75.75,0,0,1,.36.1,1.35,1.35,0,0,1,.5,1.23,1.42,1.42,0,0,1,0,.29l.35.2a2.7,2.7,0,0,0,0-.49A1.7,1.7,0,0,0,351.94,203.78Z"></path><path d="M349,202.05a1.29,1.29,0,0,0-1.33.1,4.13,4.13,0,0,0-1.68,2.41.87.87,0,0,0,.36,0,3.78,3.78,0,0,1,1.5-2.14,1.28,1.28,0,0,1,.61-.18.74.74,0,0,1,.36.09,1.36,1.36,0,0,1,.5,1.23,1.51,1.51,0,0,1,0,.3l.35.2a2.89,2.89,0,0,0,0-.5A1.71,1.71,0,0,0,349,202.05Z"></path><path d="M346,200.33a1.29,1.29,0,0,0-1.33.09,4.13,4.13,0,0,0-1.68,2.41.87.87,0,0,0,.36,0,3.71,3.71,0,0,1,1.5-2.14,1.2,1.2,0,0,1,.61-.19.74.74,0,0,1,.36.09,1.38,1.38,0,0,1,.5,1.23,1.51,1.51,0,0,1,0,.3l.35.2a2.81,2.81,0,0,0,0-.5A1.68,1.68,0,0,0,346,200.33Z"></path><path d="M343,198.6a1.31,1.31,0,0,0-1.34.09,4.19,4.19,0,0,0-1.67,2.42,1.08,1.08,0,0,0,.36,0,3.78,3.78,0,0,1,1.5-2.14,1.27,1.27,0,0,1,.61-.19.75.75,0,0,1,.36.1,1.38,1.38,0,0,1,.5,1.23,2.83,2.83,0,0,1,0,.29l.35.2a4,4,0,0,0,0-.49A1.7,1.7,0,0,0,343,198.6Z"></path><path d="M340,196.87a1.33,1.33,0,0,0-1.34.09,4.28,4.28,0,0,0-1.68,2.42.94.94,0,0,0,.37,0,3.78,3.78,0,0,1,1.5-2.14,1.25,1.25,0,0,1,.61-.18.68.68,0,0,1,.35.09,1.36,1.36,0,0,1,.51,1.23,2.64,2.64,0,0,1,0,.29l.35.21a4.38,4.38,0,0,0,0-.5A1.7,1.7,0,0,0,340,196.87Z"></path></g></g><g id="freepik--Sheets--inject-13"><g style="opacity:0.2"><path d="M211.11,273.89l29.83,17.22a1.84,1.84,0,0,0,1.68,0l21.95-12.67a.51.51,0,0,0,0-1l-29.83-17.22a1.84,1.84,0,0,0-1.68,0l-21.95,12.67A.51.51,0,0,0,211.11,273.89Z"></path></g><g style="opacity:0.2"><path d="M211.11,277l29.83,17.22a1.84,1.84,0,0,0,1.68,0l21.95-12.67a.51.51,0,0,0,0-1l-29.83-17.22a1.84,1.84,0,0,0-1.68,0L211.11,276A.51.51,0,0,0,211.11,277Z"></path></g><path d="M211.11,275.43l29.83,17.22a1.84,1.84,0,0,0,1.68,0L264.57,280a.51.51,0,0,0,0-1l-29.83-17.22a1.84,1.84,0,0,0-1.68,0l-21.95,12.67A.51.51,0,0,0,211.11,275.43Z" style="fill:#ebebeb"></path><path d="M233.06,261.79l-20.84,12,28.72,16.59a1.91,1.91,0,0,0,1.68,0l20.84-12-28.72-16.58A1.84,1.84,0,0,0,233.06,261.79Z" style="fill:#e0e0e0"></path><path d="M211.11,272.4l29.83,17.22a1.84,1.84,0,0,0,1.68,0L264.57,277a.51.51,0,0,0,0-1l-29.83-17.22a1.84,1.84,0,0,0-1.68,0l-21.95,12.67A.51.51,0,0,0,211.11,272.4Z" style="fill:#fafafa"></path></g><g id="freepik--device--inject-13"><g style="opacity:0.2"><path d="M310,252.25l16.53,9.57a2.27,2.27,0,0,0,2,0L381.85,231a.62.62,0,0,0,0-1.17l-16.53-9.57a2.21,2.21,0,0,0-2,0L310,251.08A.62.62,0,0,0,310,252.25Z"></path></g><path d="M311,249.64v-.36a2,2,0,0,1,.91-1.58l47.77-27.6a2,2,0,0,1,1.82,0l14.8,8.57a2,2,0,0,1,.91,1.58v.36a2,2,0,0,1-.91,1.58l-47.76,27.6a2,2,0,0,1-1.82,0l-14.81-8.57A2,2,0,0,1,311,249.64Z" style="fill:#5B9FDF"></path><g style="opacity:0.65"><path d="M311,249.64v-.36a2,2,0,0,1,.91-1.58l47.77-27.6a2,2,0,0,1,1.82,0l14.8,8.57a2,2,0,0,1,.91,1.58v.36a2,2,0,0,1-.91,1.58l-47.76,27.6a2,2,0,0,1-1.82,0l-14.81-8.57A2,2,0,0,1,311,249.64Z" style="fill:#fff"></path></g><path d="M311.86,248.75l14.81,8.57a2,2,0,0,0,1.82,0l47.76-27.6a.55.55,0,0,0,0-1.05l-14.8-8.57a2,2,0,0,0-1.82,0l-47.77,27.6A.56.56,0,0,0,311.86,248.75Z" style="fill:#5B9FDF"></path><g style="opacity:0.8"><path d="M311.86,248.75l14.81,8.57a2,2,0,0,0,1.82,0l47.76-27.6a.55.55,0,0,0,0-1.05l-14.8-8.57a2,2,0,0,0-1.82,0l-47.77,27.6A.56.56,0,0,0,311.86,248.75Z" style="fill:#fff"></path></g><path d="M410.61,233.29l-2.93-1.63a3.55,3.55,0,0,0-3.32,0L389.77,240l-1.91-1.12a3.25,3.25,0,0,0-3,0L367.19,249.2a.9.9,0,0,0,0,1.71l1.87,1.08L348,264.15a1,1,0,0,0,0,1.94l2.93,1.7a3.73,3.73,0,0,0,3.35,0l21.08-12.17a3.25,3.25,0,0,0,3,0l17.64-10.25c.8-.46.81-1.2.06-1.67l14.58-8.42A1.06,1.06,0,0,0,410.61,233.29Z" style="opacity:0.2"></path><path d="M401.81,221.49l3.84-46.57a4.39,4.39,0,0,0-1.92-3.85,4.89,4.89,0,0,0-4.42.08l-51,29.44a5.66,5.66,0,0,0-2.49,3.94L342,251.1A4.38,4.38,0,0,0,343.9,255a4.87,4.87,0,0,0,4.41-.08l51-29.44A5.64,5.64,0,0,0,401.81,221.49Z" style="fill:#5B9FDF"></path><path d="M401.81,221.49l3.84-46.57a4.39,4.39,0,0,0-1.92-3.85,4.89,4.89,0,0,0-4.42.08l-51,29.44a5.66,5.66,0,0,0-2.49,3.94L342,251.1A4.38,4.38,0,0,0,343.9,255a4.87,4.87,0,0,0,4.41-.08l51-29.44A5.64,5.64,0,0,0,401.81,221.49Z" style="fill:#fff;opacity:0.5"></path><path d="M401.81,221.49l3.84-46.57a4.39,4.39,0,0,0-1.92-3.85,4.89,4.89,0,0,0-4.42.08l-51,29.44a5.2,5.2,0,0,0-1.65,1.68l7.92,4.57v44.41l44.73-25.82A5.64,5.64,0,0,0,401.81,221.49Z" style="fill:#5B9FDF"></path><path d="M401.81,221.49l3.84-46.57a4.39,4.39,0,0,0-1.92-3.85,4.89,4.89,0,0,0-4.42.08l-51,29.44a5.2,5.2,0,0,0-1.65,1.68l7.92,4.57v44.41l44.73-25.82A5.64,5.64,0,0,0,401.81,221.49Z" style="fill:#fff;opacity:0.8"></path><path d="M346.25,253.57,350.09,207a5.64,5.64,0,0,1,2.5-3.94l51-29.44c1.26-.73,2.19-.14,2.07,1.3l-3.84,46.57a5.64,5.64,0,0,1-2.5,3.94l-51,29.44C347.06,255.6,346.13,255,346.25,253.57Z" style="fill:#5B9FDF"></path><path d="M346.25,253.57,350.09,207a5.64,5.64,0,0,1,2.5-3.94l51-29.44c1.26-.73,2.19-.14,2.07,1.3l-3.84,46.57a5.64,5.64,0,0,1-2.5,3.94l-51,29.44C347.06,255.6,346.13,255,346.25,253.57Z" style="fill:#fff;opacity:0.65"></path><path d="M372.57,216.2a8.85,8.85,0,0,1,3.74-6.27c1.86-1.08,3.21,0,3,2.36a8.85,8.85,0,0,1-3.74,6.27C373.73,219.64,372.38,218.58,372.57,216.2Z" style="fill:#5B9FDF"></path><polygon points="373.77 230.28 386.31 223 384.17 221.76 371.64 229.05 373.77 230.28" style="fill:#5B9FDF"></polygon><g style="opacity:0.85"><polygon points="373.77 230.28 386.31 223 384.17 221.76 371.64 229.05 373.77 230.28" style="fill:#fff"></polygon></g><path d="M392.13,244.37l-15.27,8.82a1.87,1.87,0,0,1-1,.22,1.89,1.89,0,0,1-.83-.21h0l-6.72-3.88,0,0a2,2,0,0,1-.88-1.56v-.36c0-.58.4-.82.91-.52l4.06,2.33.9.53-.2-1-1.43-19.63,2.13,1.23L386.31,223l6.53,19.82A1.57,1.57,0,0,1,392.13,244.37Z" style="fill:#5B9FDF"></path><g style="opacity:0.5"><path d="M392.13,244.37l-15.27,8.82a1.87,1.87,0,0,1-1,.22,1.89,1.89,0,0,1-.83-.21h0l-6.72-3.88,0,0a2,2,0,0,1-.88-1.56v-.36c0-.58.4-.82.91-.52l4.06,2.33.9.53-.2-1-1.43-19.63,2.13,1.23L386.31,223l6.53,19.82A1.57,1.57,0,0,1,392.13,244.37Z" style="fill:#fff"></path></g><polygon points="367.69 246.77 372.89 243.76 373.95 250.77 367.69 246.77" style="fill:#5B9FDF"></polygon><g style="opacity:0.25"><polygon points="367.69 246.77 372.89 243.76 373.95 250.77 367.69 246.77"></polygon></g><path d="M373.77,230.28l-2.13-1.23,1.43,19.63c.12.56-.21.8-.7.5l-4.06-2.33c-.51-.3-.91-.06-.91.52v.36a2,2,0,0,0,.88,1.56l0,0,6.72,3.88h0a1.89,1.89,0,0,0,.83.21Z" style="fill:#5B9FDF"></path><g style="opacity:0.25"><path d="M373.77,230.28l-2.13-1.23,1.43,19.63c.12.56-.21.8-.7.5l-4.06-2.33c-.51-.3-.91-.06-.91.52v.36a2,2,0,0,0,.88,1.56l0,0,6.72,3.88h0a1.89,1.89,0,0,0,.83.21Z" style="fill:#fff"></path></g></g><g id="freepik--Pencil--inject-13"><path id="freepik--shadow--inject-13" d="M327.14,232.68c1,.48-1.45,2.17-2.63,1.52L303.69,222l-2.5-2.64a.16.16,0,0,1,.17-.27l4.82,1.47Z" style="opacity:0.2"></path><path d="M306,218.72l-4.44-.87a.13.13,0,0,0-.13.22l3,3.41Z" style="fill:#ffa8a7"></path><path d="M301.42,218.07a.13.13,0,0,1,.13-.22l.87.17h0a.75.75,0,0,0-.36.7v.08Z" style="fill:#263238"></path><path d="M321,231l-.36-.2-.44-.25-15.74-9a2.3,2.3,0,0,1,1.56-2.76l15.72,9,.84.48C322,227.94,320.41,230.68,321,231Z" style="fill:#5B9FDF"></path><path d="M319.59,230.18l-.81-.47c-.24-.13-.11-.71.17-1.32.37-.81,1.1-1.59,1.42-1.42l.6.34.21.13c-.32-.17-1.05.61-1.42,1.42-.27.58-.4,1.15-.2,1.3h0Z" style="fill:#ebebeb"></path><path d="M319.38,230.06c-.55-.3,1-3,1.6-2.74l.81.46c-.56-.29-2.15,2.45-1.59,2.74Z" style="fill:#5B9FDF"></path><path d="M321,231l-.8-.45c-.55-.29,1-2.95,1.54-2.77h0l.8.47C322,227.94,320.41,230.68,321,231Z" style="fill:#ebebeb"></path><path d="M301.4,217.92l.15-.07,3.22,1.76,16.64,9.55s.06-.06.08,0c-.47.73-.83,1.66-.52,1.82l-.36-.2-.44-.25-15.74-9h0l-3-3.41A.14.14,0,0,1,301.4,217.92Z" style="opacity:0.15"></path><path d="M324.37,232.91,321,231c-.24-.12-.11-.7.17-1.3.37-.81,1.09-1.6,1.41-1.44h0l3.42,1.95c.67.39,0,1.87-.71,2.52A.8.8,0,0,1,324.37,232.91Z" style="fill:#f28f8f"></path><path d="M324.17,231.86a2.43,2.43,0,0,1,1.38-1.68.54.54,0,0,1,.51.07c.51.47-.08,1.82-.8,2.44a.81.81,0,0,1-.87.23C324.13,232.77,324,232.38,324.17,231.86Z" style="opacity:0.1"></path></g><g id="freepik--Tablet--inject-13"><path id="freepik--shadow--inject-13" d="M247,248.22l43.89-25.34a1.63,1.63,0,0,1,1.49,0l26.43,15.26a.45.45,0,0,1,0,.86l-43.89,25.34a1.63,1.63,0,0,1-1.49,0L247,249.07A.45.45,0,0,1,247,248.22Z" style="opacity:0.15"></path><g id="freepik--tablet--inject-13"><path d="M248.8,245.43l41.4-23.9a1.51,1.51,0,0,1,1.4,0l24.94,14.39a1.56,1.56,0,0,1,.7,1.22v.28a1.56,1.56,0,0,1-.7,1.22l-41.4,23.9a1.59,1.59,0,0,1-1.41,0l-24.94-14.4a1.57,1.57,0,0,1-.7-1.21v-.28A1.55,1.55,0,0,1,248.8,245.43Z" style="fill:#5B9FDF"></path><path d="M248.8,245.43l41.4-23.9a1.51,1.51,0,0,1,1.4,0l24.94,14.39a.43.43,0,0,1,0,.82l-41.4,23.9a1.59,1.59,0,0,1-1.41,0l-24.93-14.4A.43.43,0,0,1,248.8,245.43Z" style="fill:#5B9FDF"></path><g style="opacity:0.2"><path d="M248.8,245.43l41.4-23.9a1.51,1.51,0,0,1,1.4,0l24.94,14.39a.43.43,0,0,1,0,.82l-41.4,23.9a1.59,1.59,0,0,1-1.41,0l-24.93-14.4A.43.43,0,0,1,248.8,245.43Z"></path></g><path d="M283.48,229.23a1.54,1.54,0,0,1,1.4,0c3.09,1.76,15.29,8.83,18.35,10.6.39.23.39.59,0,.81L275,256.93a1.51,1.51,0,0,1-1.4,0l-18.36-10.59a.43.43,0,0,1,0-.81Z" style="fill:#37474f"></path><path d="M296.47,230.46a1.36,1.36,0,0,0,0,2.58,4.94,4.94,0,0,0,4.46,0,1.36,1.36,0,0,0,0-2.58A4.94,4.94,0,0,0,296.47,230.46Z" style="fill:#37474f"></path><path d="M303.41,233.14l-2,1.17c-.58.33-.68.82-.23,1.08a2.14,2.14,0,0,0,1.88-.13l2-1.17c.58-.34.69-.82.23-1.08A2.09,2.09,0,0,0,303.41,233.14Z" style="fill:#37474f"></path><path d="M305.75,234.5l-2,1.16c-.58.34-.68.82-.23,1.09a2.11,2.11,0,0,0,1.88-.14l2-1.16c.58-.34.69-.82.23-1.09A2.09,2.09,0,0,0,305.75,234.5Z" style="fill:#37474f"></path><path d="M308.08,235.85l-2,1.17c-.58.33-.68.82-.23,1.08a2.11,2.11,0,0,0,1.88-.13l2-1.17c.58-.33.69-.82.23-1.08A2.14,2.14,0,0,0,308.08,235.85Z" style="fill:#37474f"></path><path d="M290,225.41l-2,1.17c-.58.34-.68.82-.23,1.08a2.08,2.08,0,0,0,1.88-.13l2-1.17c.58-.33.68-.82.23-1.08A2.14,2.14,0,0,0,290,225.41Z" style="fill:#37474f"></path><path d="M292.3,226.77l-2,1.17c-.58.33-.69.82-.23,1.08a2.14,2.14,0,0,0,1.88-.13l2-1.17c.58-.34.68-.82.23-1.08A2.08,2.08,0,0,0,292.3,226.77Z" style="fill:#37474f"></path><path d="M294.64,228.12l-2,1.17c-.58.34-.69.82-.23,1.08a2.06,2.06,0,0,0,1.87-.13l2-1.17c.58-.33.68-.82.23-1.08A2.14,2.14,0,0,0,294.64,228.12Z" style="fill:#37474f"></path><g style="opacity:0.30000000000000004"><path d="M274.44,260.81v1.9a1.49,1.49,0,0,1-.71-.17l-24.93-14.4a1.54,1.54,0,0,1-.71-1.22v-.27a1.55,1.55,0,0,1,.58-1.13c-.26.22-.22.52.13.72l24.93,14.4A1.49,1.49,0,0,0,274.44,260.81Z"></path></g><g style="opacity:0.5"><path d="M317.25,237.14v.28a1.57,1.57,0,0,1-.71,1.22l-41.4,23.9a1.32,1.32,0,0,1-.7.17v-1.9a1.42,1.42,0,0,0,.7-.17l41.4-23.91c.34-.19.38-.49.13-.72A1.61,1.61,0,0,1,317.25,237.14Z"></path></g></g></g><g id="freepik--pencil--inject-13"><path id="freepik--shadow--inject-13" d="M269.67,268.24c1.09.56-1.67,2.51-3,1.75l-24-14-2.88-3a.19.19,0,0,1,.19-.32l5.56,1.7Z" style="opacity:0.2"></path><path d="M240.83,251.52a.19.19,0,0,0,.1.21l1.62.85a.19.19,0,0,0,.17-.34l-1.62-.85a.19.19,0,0,0-.25.08Z" style="fill:#263238"></path><path d="M244.57,255.79l-2.74-3.12a.64.64,0,0,1,.61-1l4.09.81Z" style="fill:#5B9FDF"></path><g style="opacity:0.2"><path d="M244.57,255.79l-2.74-3.12a.64.64,0,0,1,.61-1l4.09.81Z"></path></g><path d="M267.29,264.39a1,1,0,0,1,.32,1.08c-.24,1.21-1.53,2.84-2.41,2.22l-20.63-11.91a2.51,2.51,0,0,1,.48-2.3,2.44,2.44,0,0,1,1.48-1Z" style="fill:#5B9FDF"></path><path d="M267.29,264.39a1,1,0,0,1,.32,1.08c-.24,1.21-1.53,2.84-2.41,2.22l-20.63-11.91a2.51,2.51,0,0,1,.48-2.3,2.44,2.44,0,0,1,1.48-1Z" style="fill:#5B9FDF"></path><path d="M267.61,265.47a1,1,0,0,0-.32-1.08c-.32-.18-1.14.17-1.7,1.1-.69,1.15-.65,2-.3,2.25C266.18,268.2,267.38,266.64,267.61,265.47Z" style="fill:#5B9FDF"></path><path d="M267.61,265.47a1,1,0,0,0-.32-1.08c-.32-.18-1.14.17-1.7,1.1-.69,1.15-.65,2-.3,2.25C266.18,268.2,267.38,266.64,267.61,265.47Z" style="opacity:0.2"></path><path d="M268.66,266.48a.81.81,0,0,1,.31,1.12.83.83,0,0,1-1.12.31l-1.64-1h0a.4.4,0,0,1-.17-.38,1.26,1.26,0,0,1,.57-1,.41.41,0,0,1,.41,0h0Z" style="fill:#37474f"></path></g><g id="freepik--Lamp--inject-13"><path id="freepik--shadow--inject-13" d="M207.13,284c5.5,3.05,5.5,8,0,11s-14.4,3-19.89,0-5.5-8,0-11S201.64,280.91,207.13,284Z" style="opacity:0.2"></path><path d="M205.91,245.9c1.57,6,7,8,12,4.39s7.9-11.34,6.32-17.33-7-8-12-4.38S204.33,239.91,205.91,245.9Z" style="fill:#5B9FDF"></path><path d="M200.37,229.25l-1.56,4.25-1.57,4.26c1.79,4.7,5.84,11.16,13.34,13.92l9-24.49C212.07,224.44,204.77,226.82,200.37,229.25Z" style="fill:#5B9FDF"></path><g style="opacity:0.25"><path d="M202.38,228.31s3.92,4.45,1.83,9.16c0,0,2.74-3.31,2.11-6.43S202.38,228.31,202.38,228.31Z"></path></g><path d="M203.18,228.57a16.24,16.24,0,0,0-8.33-.65l-1.24,3.44-.14.38-1.23,3.45a16.3,16.3,0,0,0,6.82,4.79h0a3.69,3.69,0,0,0,3.39-.67,8.07,8.07,0,0,0,2.91-8.06,3.68,3.68,0,0,0-2.2-2.69Z" style="fill:#5B9FDF"></path><g style="opacity:0.15"><path d="M203.18,228.57a16.24,16.24,0,0,0-8.33-.65l-1.24,3.44-.14.38-1.23,3.45a16.3,16.3,0,0,0,6.82,4.79h0a3.69,3.69,0,0,0,3.39-.67,8.07,8.07,0,0,0,2.91-8.06,3.68,3.68,0,0,0-2.2-2.69Z"></path></g><path d="M219.57,227.19h-.06c-6.47-2.35-12.79-.89-17.22,1.12a16.15,16.15,0,0,0-7.44-.37l-1.24,3.44-.14.38-1.23,3.45a16.31,16.31,0,0,0,5.76,4.35c2.07,4.44,6,9.72,12.58,12.14h0c2.18.81,4.8.41,7.34-1.38,5.06-3.58,7.9-11.34,6.32-17.33C223.46,230,221.73,228,219.57,227.19Z" style="opacity:0.15"></path><path d="M191.43,233.81a2.23,2.23,0,0,0,3.7,1.33,5.32,5.32,0,0,0,1.93-5.33,2.24,2.24,0,0,0-3.7-1.34A5.37,5.37,0,0,0,191.43,233.81Z" style="fill:#5B9FDF"></path><path d="M197.29,237.75a3,3,0,0,0-2.44-1.26.92.92,0,0,0-.88.5h0l-9.63,20.1h0a1,1,0,0,0,.17.89,3,3,0,0,0,2.44,1.26.92.92,0,0,0,.89-.5h0l9.61-20.06h0A1,1,0,0,0,197.29,237.75Z" style="fill:#37474f"></path><path d="M208.33,288a3.67,3.67,0,0,0-.09-.93,14,14,0,0,0-5.69-8.49H190.66a14,14,0,0,0-5.7,8.49,4.22,4.22,0,0,0-.09.94,1.09,1.09,0,0,0,0,.15c.11,1.65,1.24,3.28,3.41,4.53,4.59,2.65,12,2.65,16.6,0,2.18-1.25,3.31-2.88,3.42-4.53C208.32,288.2,208.33,288.1,208.33,288Z" style="fill:#5B9FDF"></path><g style="opacity:0.15"><path d="M208.33,288a3.67,3.67,0,0,0-.09-.93,14,14,0,0,0-5.69-8.49H190.66a14,14,0,0,0-5.7,8.49,4.22,4.22,0,0,0-.09.94,1.09,1.09,0,0,0,0,.15c.11,1.65,1.24,3.28,3.41,4.53,4.59,2.65,12,2.65,16.6,0,2.18-1.25,3.31-2.88,3.42-4.53C208.32,288.2,208.33,288.1,208.33,288Z"></path></g><path d="M191,278.43c-3.11,1.8-3.11,4.72,0,6.52a12.46,12.46,0,0,0,11.28,0c3.12-1.8,3.12-4.72,0-6.52A12.46,12.46,0,0,0,191,278.43Z" style="fill:#5B9FDF"></path><path d="M195.12,280.35a1,1,0,0,0,0,1.81,3.47,3.47,0,0,0,3.14,0,1,1,0,0,0,0-1.81A3.47,3.47,0,0,0,195.12,280.35Z" style="fill:#37474f"></path><polygon points="188.96 259.34 198.64 280.62 194.73 281.87 185.32 261.25 188.96 259.34" style="fill:#37474f"></polygon><path d="M185,254.2h0a1.83,1.83,0,0,0-1.84.65,5.89,5.89,0,0,0-1.36,5.16,2,2,0,0,0,1.06,1.4h0l4.08,1.53,2-7.27Z" style="fill:#5B9FDF"></path><g style="opacity:0.15"><path d="M185,254.2h0a1.83,1.83,0,0,0-1.84.65,5.89,5.89,0,0,0-1.36,5.16,2,2,0,0,0,1.06,1.4h0l4.08,1.53,2-7.27Z"></path></g><path d="M187.19,256.37a5.88,5.88,0,0,0-1.36,5.16c.45,1.64,1.78,2,3,.79a5.91,5.91,0,0,0,1.36-5.17C189.72,255.51,188.39,255.16,187.19,256.37Z" style="fill:#5B9FDF"></path></g><g id="freepik--pot--inject-13"><g style="opacity:0.2"><path d="M317.69,271.88c-4.14,2.39-4.14,6.27,0,8.66a16.55,16.55,0,0,0,15,0c4.15-2.39,4.15-6.27,0-8.66A16.55,16.55,0,0,0,317.69,271.88Z"></path></g><path d="M332,276.83c3.66-3.74,5.81-13.07,2.24-16H316.11c-3.57,3-1.42,12.28,2.24,16a.94.94,0,0,0,.1.1l.13.13a3.11,3.11,0,0,0,.33.29l.09.07.27.21.47.3a12.05,12.05,0,0,0,10.91,0h0q.24-.14.48-.3l.25-.2.11-.08a3,3,0,0,0,.32-.29l.15-.14Z" style="fill:#ebebeb"></path><path d="M317.69,259.61c-4.14,2.39-4.14,6.27,0,8.66a16.55,16.55,0,0,0,15,0c4.15-2.39,4.15-6.27,0-8.66A16.55,16.55,0,0,0,317.69,259.61Z" style="fill:#fafafa"></path><path d="M320.63,261.3c-2.52,1.46-2.52,3.82,0,5.28a10.13,10.13,0,0,0,9.13,0c2.53-1.46,2.53-3.82,0-5.28A10.13,10.13,0,0,0,320.63,261.3Z" style="fill:#ebebeb"></path><path d="M329.76,263.81a10.06,10.06,0,0,0-9.13,0,4.18,4.18,0,0,0-1.51,1.38,4.2,4.2,0,0,0,1.51,1.39,10.13,10.13,0,0,0,9.13,0,4.2,4.2,0,0,0,1.51-1.39A4.18,4.18,0,0,0,329.76,263.81Z" style="fill:#e0e0e0"></path><path d="M320.75,265.11a23,23,0,0,1-3.63-4.81c-1.67-3-2-6.92-1.11-7.41s4.38,3.46,4.38,3.46a21.28,21.28,0,0,1-.37-5.05c.15-2.63.79-5,1.54-5.51s2.45,2.84,3.17,5.25,1.16,4.39,1.16,4.39a37.38,37.38,0,0,1,1.29-5.55c.88-2.5,1.68-3.06,2.3-2.81s1,1.41,1.2,4.74a32.43,32.43,0,0,1-.15,4.77s1.24-1.37,2.62-2.69,2.16-1.66,2.6-1.38.55,2.54-1.8,6.78a23.43,23.43,0,0,1-4.42,5.82S326.29,267.2,320.75,265.11Z" style="fill:#5B9FDF"></path><g style="opacity:0.25"><path d="M320.75,265.11a23,23,0,0,1-3.63-4.81c-1.67-3-2-6.92-1.11-7.41s4.38,3.46,4.38,3.46a21.28,21.28,0,0,1-.37-5.05c.15-2.63.79-5,1.54-5.51s2.45,2.84,3.17,5.25,1.16,4.39,1.16,4.39a37.38,37.38,0,0,1,1.29-5.55c.88-2.5,1.68-3.06,2.3-2.81s1,1.41,1.2,4.74a32.43,32.43,0,0,1-.15,4.77s1.24-1.37,2.62-2.69,2.16-1.66,2.6-1.38.55,2.54-1.8,6.78a23.43,23.43,0,0,1-4.42,5.82S326.29,267.2,320.75,265.11Z"></path></g></g><g id="freepik--Penciles--inject-13"><path id="freepik--shadow--inject-13" d="M243.37,306.73c3.27,1.81,3.27,4.75,0,6.56a13.61,13.61,0,0,1-11.85,0c-3.27-1.81-3.27-4.75,0-6.56A13.54,13.54,0,0,1,243.37,306.73Z" style="opacity:0.2"></path><g id="freepik--pencil-can--inject-13"><g id="freepik--Can--inject-13"><path d="M244.67,295.39H230.22l1.61,13.31h0a2.87,2.87,0,0,0,1.63,2.11,8.79,8.79,0,0,0,8,0,2.87,2.87,0,0,0,1.63-2.11h0Z" style="fill:#5B9FDF"></path><path d="M244.67,295.39H230.22l1.61,13.31h0a2.87,2.87,0,0,0,1.63,2.11,8.79,8.79,0,0,0,8,0,2.87,2.87,0,0,0,1.63-2.11h0Z" style="fill:#fff;opacity:0.65"></path><path d="M232.34,292.44a11.31,11.31,0,0,1,10.23,0c2.82,1.63,2.82,4.27,0,5.91a11.31,11.31,0,0,1-10.23,0C229.51,296.71,229.51,294.07,232.34,292.44Z" style="fill:#5B9FDF"></path><path d="M232.34,292.44a11.31,11.31,0,0,1,10.23,0c2.82,1.63,2.82,4.27,0,5.91a11.31,11.31,0,0,1-10.23,0C229.51,296.71,229.51,294.07,232.34,292.44Z" style="fill:#fff;opacity:0.8"></path><path d="M237.45,298.73a9.59,9.59,0,0,1-4.69-1.11,2.31,2.31,0,0,1,0-4.45,10.48,10.48,0,0,1,9.39,0,2.31,2.31,0,0,1,0,4.45A9.63,9.63,0,0,1,237.45,298.73Z" style="fill:#263238"></path></g><g style="clip-path:url(#freepik--clip-path--inject-13)"><g id="freepik--pencil--inject-13"><path d="M233.64,302.77l-.06-.43-.07-.53L230.87,283a2.14,2.14,0,0,0,1.57.31,2.32,2.32,0,0,0,1.72-.8l2.62,18.71.14,1C236.79,301.55,233.52,302.13,233.64,302.77Z" style="fill:#5B9FDF"></path><path d="M233.41,301.12l-.14-1c-.05-.28.53-.54,1.21-.7.91-.22,2-.24,2.07.13l.1.71,0,.26c-.06-.37-1.16-.35-2.07-.13-.65.15-1.21.4-1.21.67h0A0,0,0,0,0,233.41,301.12Z" style="fill:#ebebeb"></path><path d="M233.37,300.88c-.11-.65,3.17-1.22,3.28-.57l.14,1c-.11-.65-3.39-.08-3.28.57Z" style="fill:#5B9FDF"></path><path d="M233.64,302.77l-.13-1c-.12-.63,3-1.21,3.27-.62a0,0,0,0,0,0,0l.13,1C236.79,301.55,233.52,302.13,233.64,302.77Z" style="fill:#ebebeb"></path><path d="M232.22,279.26c-.48.12-.65,0-.65,0l-.7,3.69a2,2,0,0,0,2.1.43l0-.18Z" style="fill:#ffa8a7"></path><polygon points="234.16 282.48 234.16 282.48 234.16 282.48 234.16 282.48 234.16 282.48 232.45 279.07 232.45 279.07 234.16 282.48" style="fill:#fafafa"></polygon><polygon points="232.45 279.07 232.03 278.25 232.45 279.07 232.45 279.07" style="fill:#e0e0e0"></polygon><path d="M231.76,278.28l-.19,1s.16.12.65,0l-.19-1h0a.15.15,0,0,0-.19-.06A.14.14,0,0,0,231.76,278.28Z" style="fill:#455a64"></path><path d="M236.78,301.19l-2.62-18.71a1.8,1.8,0,0,1-1.19.92L235.42,302h0c.74-.1,1.44-.06,1.5.23Z" style="opacity:0.1"></path><path d="M234.16,282.48h0l-1.71-3.41a.47.47,0,0,1-.23.19l.72,4,0,.18A1.8,1.8,0,0,0,234.16,282.48Z" style="fill:#f28f8f"></path><path d="M232.22,279.26a.38.38,0,0,0,.23-.19l-.42-.83Z" style="fill:#37474f"></path><path d="M234.22,306.84l-.58-4.07c0-.27.52-.54,1.2-.7.9-.21,2-.25,2.08.12h0l.55,3.92c.2.9-1.47,1.54-2.5,1.33A.83.83,0,0,1,234.22,306.84Z" style="fill:#f28f8f"></path></g><g id="freepik--Brush--inject-13"><path d="M236.39,281.27h0a93.58,93.58,0,0,0-.64,10.15,67.64,67.64,0,0,0,1.1,11.32h0a.37.37,0,0,0,.22.25.37.37,0,0,0,.49-.2.24.24,0,0,0,0-.08h0a73.66,73.66,0,0,0,1.25-11.35,97.13,97.13,0,0,0-.63-10.12h0a.49.49,0,0,0-.27-.33,1.4,1.4,0,0,0-1.29,0A.45.45,0,0,0,236.39,281.27Z" style="fill:#5B9FDF"></path><path d="M237.57,302.81a.24.24,0,0,0,0-.08h0a73.66,73.66,0,0,0,1.25-11.35c0-3.31-.29-6.75-.47-8.64l-1.15.2s.18,20.06-.14,20.07A.37.37,0,0,0,237.57,302.81Z" style="opacity:0.1"></path><path d="M237.3,280.78a5.57,5.57,0,0,0,.75-3.23,1.52,1.52,0,0,1-.52-.11c-.62-.26-.54-.81-1-1.06s-1,.51-1,.52h0a3.92,3.92,0,0,0-.25,2.38,4,4,0,0,0,1.09,2h1.82c.11-.17.24-.35.36-.55-.12.2-.25.38-.36.55Z" style="fill:#f0f0f0"></path><path d="M239.33,277.84c-.39-.46-.78-.27-1.28-.29a5.57,5.57,0,0,1-.75,3.23l.91.48c.11-.17.24-.35.36-.55l.09-.15a3.37,3.37,0,0,0,.19-.32,5.67,5.67,0,0,0,.24-.55c0-.13.09-.27.13-.41a5.38,5.38,0,0,0,.14-1A3.59,3.59,0,0,0,239.33,277.84Z" style="fill:#f0f0f0"></path><path d="M239.33,277.84c-.39-.46-.78-.27-1.28-.29a5.57,5.57,0,0,1-.75,3.23l.91.48c.11-.17.24-.35.36-.55l.09-.15a3.37,3.37,0,0,0,.19-.32,5.67,5.67,0,0,0,.24-.55c0-.13.09-.27.13-.41a5.38,5.38,0,0,0,.14-1A3.59,3.59,0,0,0,239.33,277.84Z" style="opacity:0.1"></path><path d="M239.33,277.83a1.55,1.55,0,0,0-.05-.23v0a1.09,1.09,0,0,0-.05-.17,154531602571.09,154531602571.09,0,0,1,0-.12l0-.09s0-.07-.05-.1l-.12-.24-.15-.21-.15-.21a4,4,0,0,0-1.21-1l-.1-.05h0l-.12-.06a4.4,4.4,0,0,0-.74-.23l-.33-.06-.28,0h-.55a1.58,1.58,0,0,1,.36,1.33,3,3,0,0,1-.13.56s.54-.76,1-.52.37.8,1,1.06a1.52,1.52,0,0,0,.52.11c.5,0,.89-.17,1.28.29Z" style="fill:#5B9FDF"></path><path d="M235.32,275a4.25,4.25,0,0,1,2.46,1.88,2,2,0,0,1,.27.66c.5,0,.89-.17,1.28.29h0a1.55,1.55,0,0,0-.05-.23v0a1.09,1.09,0,0,0-.05-.17,154531602571.09,154531602571.09,0,0,1,0-.12l0-.09s0-.07-.05-.1l-.12-.24-.15-.21-.15-.21a4,4,0,0,0-1.21-1l-.1-.05h0l-.12-.06a4.4,4.4,0,0,0-.74-.23l-.33-.06-.28,0h-.55Z" style="opacity:0.1"></path><path d="M238.21,281.26a.49.49,0,0,0-.27-.33,1.4,1.4,0,0,0-1.29,0,.45.45,0,0,0-.26.34c-.09.7-.17,1.48-.24,2.3a.58.58,0,0,1,.33-.44,1.8,1.8,0,0,1,1.63,0,.58.58,0,0,1,.34.45C238.36,282.68,238.28,281.84,238.21,281.26Z" style="fill:#455a64"></path><path d="M237.22,282.94a1.62,1.62,0,0,1,.89.19.58.58,0,0,1,.34.45c-.09-.9-.17-1.74-.24-2.32a.49.49,0,0,0-.27-.33,1.34,1.34,0,0,0-.64-.15h0l-.06,2.15Z" style="fill:#37474f"></path></g><g id="freepik--pencil--inject-13"><path d="M237.84,301.86l.85,4.44a.14.14,0,0,0,.26,0l2-4.07Z" style="fill:#ffa8a7"></path><path d="M239,306.34a.14.14,0,0,1-.26,0l-.17-.87h0a.75.75,0,0,0,.79.07l.07,0Z" style="fill:#263238"></path><path d="M243.62,283.39l-.06.42-.07.5-2.5,18a2,2,0,0,1-1.41.44,2.08,2.08,0,0,1-1.74-.85l2.51-18,.13-.95C240.43,283.57,243.56,284,243.62,283.39Z" style="fill:#5B9FDF"></path><path d="M243.4,285l-.13.92c0,.27-.62.37-1.29.33-.89,0-1.88-.42-1.85-.78l.1-.68,0-.25c0,.36,1,.75,1.84.79.64,0,1.22-.06,1.29-.3h0Z" style="fill:#ebebeb"></path><path d="M243.37,285.2c-.07.63-3.2.17-3.14-.45l.13-.93c-.07.62,3.07,1.08,3.14.45Z" style="fill:#5B9FDF"></path><path d="M243.62,283.39l-.13.92c-.06.61-3.09.2-3.14-.41v0l.13-.92C240.43,283.57,243.56,284,243.62,283.39Z" style="fill:#ebebeb"></path><path d="M238.82,306.41l-.13-.11.43-3.64,2.66-19c-.06,0-.07,0-.05-.07.86.17,1.86.15,1.89-.2l-.06.42-.07.5-2.5,18h0l-2,4.07A.13.13,0,0,1,238.82,306.41Z" style="opacity:0.15"></path><path d="M244.16,279.51l-.54,3.88c0,.27-.62.36-1.28.33-.89,0-1.89-.41-1.86-.77h0l.54-3.89c.11-.77,1.71-.74,2.6-.29A.81.81,0,0,1,244.16,279.51Z" style="fill:#f28f8f"></path><path d="M243.25,280.09a2.43,2.43,0,0,1-2.07-.66.58.58,0,0,1-.13-.5c.25-.65,1.73-.6,2.57-.17a.82.82,0,0,1,.54.73C244.11,279.78,243.79,280,243.25,280.09Z" style="opacity:0.1"></path></g></g></g></g><g id="freepik--Squads--inject-13"><path d="M262.19,315.25l20.35-11.74-.8-.47L263,292.22Zm4.24-15.73,6.91,4-6.91,4Z" style="opacity:0.2"></path><polygon points="281.75 301.7 281.75 303.03 262.19 314.31 262.19 312.99 281.75 301.7" style="fill:#5B9FDF"></polygon><polygon points="281.75 301.7 281.75 303.03 262.19 314.31 262.19 312.99 281.75 301.7" style="opacity:0.15"></polygon><path d="M262.19,313l19.56-11.29-19.56-11.29Zm4.6-6.64v-9.3l8,4.65Z" style="fill:#5B9FDF"></path><polygon points="262.19 312.99 279.8 301.93 262.19 290.41 281.75 301.7 262.19 312.99" style="fill:#fff;opacity:0.30000000000000004"></polygon><polygon points="266.79 298.38 266.79 297.05 274.85 301.7 273.69 302.36 266.79 298.38" style="fill:#5B9FDF"></polygon><polygon points="266.79 298.38 266.79 297.05 274.85 301.7 273.69 302.36 266.79 298.38" style="opacity:0.30000000000000004"></polygon></g><g id="freepik--squads--inject-13"><path d="M265.44,287.91l21.49,12.4,27.2-15.68-.79-.48-47.15,3.32Zm11.89,2,20.7-1.33-11.5,6.64Z" style="opacity:0.2"></path><polygon points="286.89 299.42 266.19 287.47 266.19 286.14 286.89 298.1 286.89 299.42" style="fill:#5B9FDF"></polygon><polygon points="286.89 299.42 266.19 287.47 266.19 286.14 286.89 298.1 286.89 299.42" style="opacity:0.30000000000000004"></polygon><polygon points="313.34 284.15 313.34 282.82 286.89 298.1 286.89 299.42 313.34 284.15" style="fill:#5B9FDF"></polygon><polygon points="313.34 284.15 313.34 282.82 286.89 298.1 286.89 299.42 313.34 284.15" style="opacity:0.15"></polygon><path d="M266.19,286.14l20.7,11.95,26.45-15.27Zm10.35,2,23-1.32-12.65,7.3Z" style="fill:#5B9FDF"></path><polygon points="286.89 298.1 309.98 283.76 266.19 286.14 313.34 282.82 286.89 298.1" style="fill:#fff;opacity:0.30000000000000004"></polygon><polygon points="276.54 288.13 299.54 286.81 297.79 287.82 278.15 289.06 276.54 288.13" style="fill:#5B9FDF"></polygon><polygon points="276.54 288.13 299.54 286.81 297.79 287.82 278.15 289.06 276.54 288.13" style="opacity:0.30000000000000004"></polygon></g></g></g><g id="freepik--Basket--inject-13"><g id="freepik--basket--inject-13"><path d="M188.12,399.59c0-6.76-9.76-12.25-21.79-12.25s-21.79,5.49-21.79,12.25v1.61c0,6.77,9.75,12.25,21.79,12.25s21.79-5.48,21.79-12.25Z" style="fill:#5B9FDF"></path><path d="M188.12,399.59c0-6.76-9.76-12.25-21.79-12.25s-21.79,5.49-21.79,12.25v1.61c0,6.77,9.75,12.25,21.79,12.25s21.79-5.48,21.79-12.25Z" style="opacity:0.15"></path><ellipse cx="166.33" cy="399.59" rx="21.79" ry="12.25" style="fill:#5B9FDF"></ellipse><polygon points="168.9 311.82 169.36 311.73 169.36 311.78 168.9 311.82"></polygon><path d="M184.88,306.53c-5.06-1.53-11.5-.56-14.39,2.16a4.42,4.42,0,0,0-1.36,3.11c0,1.61,1,3.29,3,4.7a14.69,14.69,0,0,0,4.17,1.95l-.21-6.83h0a2,2,0,0,1,.71-1.49c1.19-1.11,3.83-1.51,5.9-.88l-.56,5.27a9,9,0,0,0,5.9-1.84,3.3,3.3,0,0,0,1.06-1.78l0-.14C189.35,309.07,187.8,307.4,184.88,306.53Z" style="fill:#5B9FDF"></path><path d="M184.88,306.53c-5.06-1.53-11.5-.56-14.39,2.16a4.42,4.42,0,0,0-1.36,3.11c0,1.61,1,3.29,3,4.7a14.69,14.69,0,0,0,4.17,1.95l-.21-6.83h0a2,2,0,0,1,.71-1.49c1.19-1.11,3.83-1.51,5.9-.88l-.56,5.27a9,9,0,0,0,5.9-1.84,3.3,3.3,0,0,0,1.06-1.78l0-.14C189.35,309.07,187.8,307.4,184.88,306.53Z" style="fill:#fff;opacity:0.6000000000000001"></path><path d="M182.7,309.24c-2.07-.63-4.71-.23-5.9.88a2,2,0,0,0-.71,1.49h0c0,1,1,1.92,2.72,2.43a11.15,11.15,0,0,0,3.32.46h0Z" style="fill:#5B9FDF"></path><path d="M182.7,309.24c-2.07-.63-4.71-.23-5.9.88a2,2,0,0,0-.71,1.49h0c0,1,1,1.92,2.72,2.43a11.15,11.15,0,0,0,3.32.46h0Z" style="fill:#fff;opacity:0.35000000000000003"></path><path d="M189.1,310.89a3.3,3.3,0,0,1-1.06,1.78,9,9,0,0,1-5.9,1.84h0a11.15,11.15,0,0,1-3.32-.46c-1.71-.51-2.68-1.45-2.72-2.43l.21,6.83A18.7,18.7,0,0,0,188,318.2Z" style="fill:#5B9FDF"></path><path d="M189.1,310.89a3.3,3.3,0,0,1-1.06,1.78,9,9,0,0,1-5.9,1.84h0a11.15,11.15,0,0,1-3.32-.46c-1.71-.51-2.68-1.45-2.72-2.43l.21,6.83A18.7,18.7,0,0,0,188,318.2Z" style="fill:#fff;opacity:0.7000000000000001"></path><path d="M164.92,401.39c4.32,3,11.69,3.67,16.47,1.44,2.53-1.18,3.81-2.93,3.83-4.76h0l.39-36.73h0l.67-7.77h0l6.09-39.68a7.13,7.13,0,0,1-3.77,4.05l-.61.26a18.7,18.7,0,0,1-11.69.25,14.69,14.69,0,0,1-4.17-1.95c-2-1.41-3-3.09-3-4.7l-.51,40.1h0s0,.07,0,.1a.37.37,0,0,1,0-.09h0l-.67,7.81h0L162,396h0C161.67,397.82,162.62,399.78,164.92,401.39Z" style="fill:#5B9FDF"></path><path d="M164.92,401.39c4.32,3,11.69,3.67,16.47,1.44,2.53-1.18,3.81-2.93,3.83-4.76h0l.39-36.73h0l.67-7.77h0l6.09-39.68a7.13,7.13,0,0,1-3.77,4.05l-.61.26a18.7,18.7,0,0,1-11.69.25,14.69,14.69,0,0,1-4.17-1.95c-2-1.41-3-3.09-3-4.7l-.51,40.1h0s0,.07,0,.1a.37.37,0,0,1,0-.09h0l-.67,7.81h0L162,396h0C161.67,397.82,162.62,399.78,164.92,401.39Z" style="fill:#fff;opacity:0.85"></path><polygon points="166.1 301.19 165.58 301.15 166.1 301.14 166.1 301.19"></polygon><path d="M148.14,295.25c5.69-1.72,12.93-.63,16.18,2.42a5,5,0,0,1,1.52,3.5c0,1.81-1.12,3.69-3.38,5.28a16.34,16.34,0,0,1-4.69,2.19L158,301v0a2.22,2.22,0,0,0-.8-1.67c-1.33-1.25-4.3-1.69-6.62-1l.63,5.92c-2.64,0-5.22-.74-6.63-2.06a3.78,3.78,0,0,1-1.19-2l0-.15C143.13,298.11,144.87,296.23,148.14,295.25Z" style="fill:#263238"></path><path d="M150.6,298.29c2.32-.7,5.29-.26,6.62,1A2.22,2.22,0,0,1,158,301v0c-.05,1.1-1.15,2.15-3.06,2.73a13.23,13.23,0,0,1-3.73.52h0Z"></path><path d="M143.41,300.14a3.78,3.78,0,0,0,1.19,2c1.41,1.32,4,2.06,6.63,2.06h0a13.23,13.23,0,0,0,3.73-.52c1.91-.58,3-1.63,3.06-2.73l-.25,7.67a21,21,0,0,1-13.13-.28Z" style="fill:#37474f"></path><path d="M170.57,401.81c-4.85,3.39-13.13,4.12-18.5,1.62-2.84-1.33-4.28-3.29-4.3-5.36h0l-.44-41.26h0l-.74-8.73h0l-6.84-44.57a8,8,0,0,0,4.23,4.54l.68.3a21,21,0,0,0,13.13.28,16.34,16.34,0,0,0,4.69-2.19c2.26-1.59,3.38-3.47,3.38-5.28l.57,45.05h0s0,.07,0,.1,0-.06,0-.1h0l.76,8.77h0l6.71,40.76h0C174.23,397.8,173.15,400,170.57,401.81Z" style="fill:#455a64"></path><path d="M146.1,401.18a.46.46,0,0,1-.46-.4L140,361.94a.48.48,0,0,1,.4-.53.46.46,0,0,1,.52.4l5.69,38.84a.48.48,0,0,1-.4.53Z" style="fill:#fafafa"></path><path d="M150.68,406a.46.46,0,0,1-.46-.41l-4.06-38.85a.47.47,0,0,1,.93-.1l4.06,38.85a.47.47,0,0,1-.42.51Z" style="fill:#fafafa"></path><path d="M156.37,408.79a.47.47,0,0,1-.47-.44l-2.43-38.85a.47.47,0,0,1,.43-.49.45.45,0,0,1,.5.44l2.43,38.84a.47.47,0,0,1-.43.5Z" style="fill:#fafafa"></path><path d="M162.91,410.15a.47.47,0,0,1-.47-.45l-.81-38.85a.46.46,0,0,1,.46-.47.42.42,0,0,1,.47.45l.81,38.85a.46.46,0,0,1-.45.47Z" style="fill:#fafafa"></path><path d="M169.75,410.15h0a.47.47,0,0,1-.46-.47l.81-38.85a.47.47,0,0,1,.47-.45h0a.45.45,0,0,1,.45.47l-.81,38.85A.46.46,0,0,1,169.75,410.15Z" style="fill:#fafafa"></path><path d="M176.29,408.79h0a.48.48,0,0,1-.44-.5l2.44-38.84a.43.43,0,0,1,.49-.44.47.47,0,0,1,.44.49l-2.44,38.85A.47.47,0,0,1,176.29,408.79Z" style="fill:#fafafa"></path><path d="M182,406h-.05a.46.46,0,0,1-.41-.51l4.06-38.85a.47.47,0,0,1,.51-.41.46.46,0,0,1,.41.51l-4.06,38.85A.46.46,0,0,1,182,406Z" style="fill:#fafafa"></path><path d="M186.56,401.18h-.07a.47.47,0,0,1-.39-.53l5.68-38.84a.48.48,0,0,1,.53-.4.47.47,0,0,1,.39.53L187,400.78A.46.46,0,0,1,186.56,401.18Z" style="fill:#fafafa"></path><g style="clip-path:url(#freepik--clip-path-2--inject-13)"><g id="freepik--Basquet--inject-13"><path d="M187.92,339.78c-11.92-6.88-31.26-6.88-43.19,0-6.87,4-9.78,9.37-8.72,14.54h0a11.8,11.8,0,0,0,1.82,4.28,20.51,20.51,0,0,0,6.89,6.12c11.93,6.87,31.27,6.87,43.19,0a20.42,20.42,0,0,0,6.89-6.12,11.49,11.49,0,0,0,1.83-4.28C197.7,349.15,194.79,343.76,187.92,339.78Zm-39.58,22.85c-3.83-2.21-6.19-5-7.07-7.82.86-3.09,3.21-6.05,7.07-8.44,9.93-6.16,26-6.16,36,0,3.86,2.39,6.21,5.35,7.07,8.43-.88,2.86-3.23,5.61-7.07,7.83C174.39,368.37,158.27,368.37,148.34,362.63Z" style="fill:#5B9FDF"></path><path d="M194.81,358.59a20.31,20.31,0,0,1-6.89,6.12c-11.92,6.89-31.26,6.89-43.18,0a20.36,20.36,0,0,1-6.9-6.12,11.59,11.59,0,0,1-1.82-4.27h0l1.36,5.39c.62,3.75,3.41,7.4,8.38,10.27,11.37,6.55,29.79,6.55,41.15,0,4.91-2.84,7.7-6.44,8.36-10.13l.07-.48,1.31-5.05A11.45,11.45,0,0,1,194.81,358.59Z" style="fill:#5B9FDF"></path><path d="M194.81,358.59a20.31,20.31,0,0,1-6.89,6.12c-11.92,6.89-31.26,6.89-43.18,0a20.36,20.36,0,0,1-6.9-6.12,11.59,11.59,0,0,1-1.82-4.27h0l1.36,5.39c.62,3.75,3.41,7.4,8.38,10.27,11.37,6.55,29.79,6.55,41.15,0,4.91-2.84,7.7-6.44,8.36-10.13l.07-.48,1.31-5.05A11.45,11.45,0,0,1,194.81,358.59Z" style="opacity:0.15"></path><path d="M191.64,353.74c-.07.35-.15.71-.25,1.06-.86-3.08-3.21-6-7.07-8.43-9.93-6.16-26-6.16-36,0-3.86,2.39-6.21,5.35-7.07,8.44a10.58,10.58,0,0,1-.26-1.08c-.73-4.23,1.71-8.62,7.33-11.87,9.93-5.74,26-5.74,36,0C189.94,345.11,192.38,349.5,191.64,353.74Z" style="fill:#5B9FDF"></path><path d="M191.64,353.74c-.07.35-.15.71-.25,1.06-.86-3.08-3.21-6-7.07-8.43-9.93-6.16-26-6.16-36,0-3.86,2.39-6.21,5.35-7.07,8.44a10.58,10.58,0,0,1-.26-1.08c-.73-4.23,1.71-8.62,7.33-11.87,9.93-5.74,26-5.74,36,0C189.94,345.11,192.38,349.5,191.64,353.74Z" style="opacity:0.15"></path></g></g></g></g><g id="freepik--Printer--inject-13"><g id="freepik--Drawer--inject-13"><polygon points="122.54 318.13 114.42 313.44 122.54 311.09 122.54 318.13" style="fill:#263238"></polygon><polygon points="114.42 313.44 122.54 318.13 122.54 311.09 114.42 313.44"></polygon><polygon points="73.8 339.24 73.8 346.71 29.12 320.92 29.12 313.44 73.8 339.24" style="fill:#263238"></polygon><g style="opacity:0.5"><polygon points="73.8 339.24 73.8 346.71 29.12 320.92 29.12 313.44 73.8 339.24"></polygon></g><polygon points="25.06 254.81 69.74 280.61 69.74 341.58 25.06 315.78 25.06 254.81" style="fill:#263238"></polygon><polygon points="69.74 280.61 130.67 245.43 130.67 306.4 69.74 341.58 69.74 280.61" style="fill:#37474f"></polygon><polygon points="130.67 245.43 85.99 219.63 25.06 254.81 69.74 280.61 130.67 245.43" style="fill:#455a64"></polygon><polygon points="73.8 282.95 126.61 252.46 126.61 266.53 73.8 297.02 73.8 282.95" style="fill:#263238"></polygon><g style="opacity:0.5"><path d="M94.11,272.4c0,.64,1.94.05,4.33-1.33l7.59-4.38c2.39-1.38,4.33-3,4.33-3.67v-1.18l-16.25,9.38Z"></path></g><polygon points="73.8 301.71 126.61 271.22 126.61 285.3 73.8 315.78 73.8 301.71" style="fill:#263238"></polygon><g style="opacity:0.5"><path d="M94.11,291.16c0,.65,1.94,0,4.33-1.33l7.59-4.38c2.39-1.38,4.33-3,4.33-3.67v-1.17L94.11,290Z"></path></g><polygon points="73.8 320.48 126.61 289.99 126.61 304.06 73.8 334.55 73.8 320.48" style="fill:#263238"></polygon><g style="opacity:0.5"><path d="M94.11,309.92c0,.65,1.94.05,4.33-1.33l7.59-4.38c2.39-1.38,4.33-3,4.33-3.67v-1.17l-16.25,9.38Z"></path></g><polygon points="73.8 346.71 77.86 344.37 77.86 336.89 73.8 339.24 73.8 346.71" style="fill:#263238"></polygon><polygon points="122.54 318.13 126.61 315.78 126.61 308.75 122.54 311.09 122.54 318.13" style="fill:#263238"></polygon></g><g id="freepik--printer--inject-13"><path id="freepik--shadow--inject-13" d="M113.22,246,82.65,228.33a1.91,1.91,0,0,0-1.77,0L37.42,253.46a.55.55,0,0,0,0,1L68,272.14a2,2,0,0,0,1.76,0L113.22,247A.54.54,0,0,0,113.22,246Z" style="opacity:0.2"></path><g id="freepik--printer--inject-13"><path d="M70.29,270l39.29-22.69a3.55,3.55,0,0,0,1.62-2.8v-13.8a3.57,3.57,0,0,0-1.62-2.81L82.44,212.21a3.62,3.62,0,0,0-3.24,0L39.91,234.9a3.55,3.55,0,0,0-1.62,2.8v13.8a3.57,3.57,0,0,0,1.62,2.81L67.05,270A3.62,3.62,0,0,0,70.29,270Z" style="fill:#5B9FDF"></path><path d="M68.67,269v-13.8a3.58,3.58,0,0,0-1.62-2.8L39.91,236.77c-.9-.52-1.62-.1-1.62.93v13.8a3.57,3.57,0,0,0,1.62,2.81L67.05,270C67.94,270.49,68.67,270.08,68.67,269Z" style="opacity:0.45"></path><path d="M110.45,228.68,67.92,253.24a2.85,2.85,0,0,0-.87-.8L39.91,236.77c-.81-.47-1.48-.18-1.6.65a3.59,3.59,0,0,1,1.6-2.52L79.2,212.21a3.56,3.56,0,0,1,3.24,0l27.14,15.68A2.82,2.82,0,0,1,110.45,228.68Z" style="fill:#5B9FDF"></path><path d="M110.45,228.68,67.92,253.24a2.85,2.85,0,0,0-.87-.8L39.91,236.77c-.81-.47-1.48-.18-1.6.65a3.59,3.59,0,0,1,1.6-2.52L79.2,212.21a3.56,3.56,0,0,1,3.24,0l27.14,15.68A2.82,2.82,0,0,1,110.45,228.68Z" style="opacity:0.35000000000000003"></path><path d="M111.2,230.69v13.8a3.55,3.55,0,0,1-1.62,2.8L70.29,270a3.59,3.59,0,0,1-3,.11c.77.32,1.37-.11,1.37-1v-13.8a3.47,3.47,0,0,0-.75-2l42.53-24.56A3.45,3.45,0,0,1,111.2,230.69Z" style="opacity:0.55"></path><path d="M54.77,238.33l18.36,10.6a3.25,3.25,0,0,1,1.62,2.8v3.66c0,.82.58,1.16,1.29.74l27.79-16a2.85,2.85,0,0,0,1.3-2.24v-3.66a3.25,3.25,0,0,0-1.62-2.8l-18.35-10.6a2.9,2.9,0,0,0-2.6,0L54.77,236.84A.79.79,0,0,0,54.77,238.33Z" style="fill:#5B9FDF;opacity:0.8"></path><polygon points="74.75 263.9 74.75 262.14 105.13 244.6 105.13 246.36 74.75 263.9" style="fill:#e0e0e0"></polygon><polygon points="74.75 263.9 74.75 262.14 105.13 244.6 105.13 246.36 74.75 263.9" style="fill:#5B9FDF"></polygon><polygon points="74.75 263.9 74.75 262.14 105.13 244.6 105.13 246.36 74.75 263.9" style="opacity:0.8"></polygon><polygon points="47.4 234.08 77.78 216.54 79.27 217.4 48.9 234.94 47.4 234.08" style="fill:#e0e0e0"></polygon><polygon points="47.4 234.08 77.78 216.54 79.27 217.4 48.9 234.94 47.4 234.08" style="fill:#5B9FDF"></polygon><polygon points="47.4 234.08 77.78 216.54 79.27 217.4 48.9 234.94 47.4 234.08" style="opacity:0.8"></polygon><polygon points="47.4 234.08 45.99 227.86 76.38 210.32 77.78 216.54 47.4 234.08" style="fill:#e0e0e0"></polygon><polygon points="48.11 234.49 46.7 228.27 77.08 210.73 78.49 216.95 48.11 234.49" style="fill:#5B9FDF"></polygon><polygon points="48.11 234.49 46.7 228.27 77.08 210.73 78.49 216.95 48.11 234.49" style="opacity:0.55"></polygon><polygon points="46.7 228.27 45.99 227.86 47.4 234.08 48.11 234.49 46.7 228.27" style="fill:#5B9FDF"></polygon><polygon points="46.7 228.27 45.99 227.86 47.4 234.08 48.11 234.49 46.7 228.27" style="opacity:0.45"></polygon><polygon points="45.99 227.86 46.7 228.27 77.08 210.73 76.38 210.32 45.99 227.86" style="fill:#5B9FDF"></polygon><polygon points="45.99 227.86 46.7 228.27 77.08 210.73 76.38 210.32 45.99 227.86" style="opacity:0.35000000000000003"></polygon><path d="M77.78,234.08c-1.67,1-1.67,2.55,0,3.54a6.7,6.7,0,0,0,6.1,0c1.7-1,1.7-2.56,0-3.54A6.76,6.76,0,0,0,77.78,234.08Z" style="fill:#f0f0f0"></path><path d="M51.6,233.38l-4.55-20a1.39,1.39,0,0,1,.63-1.09l22.38-12.92a1.19,1.19,0,0,1,1-.15,1.21,1.21,0,0,1,.37.94l4.35,19.28L52,233.14Z" style="fill:#e0e0e0"></path><path d="M71.06,199.18a1.19,1.19,0,0,0-1,.15L47.68,212.25a1.25,1.25,0,0,0-.44.47l.74.42a1.42,1.42,0,0,1,.44-.47L70.8,199.76c.35-.2.63,0,.63.36A1.18,1.18,0,0,0,71.06,199.18Z" style="fill:#ebebeb"></path><path d="M47.8,213.77a1.4,1.4,0,0,1,.62-1.09L70.8,199.76c.35-.2.63,0,.63.36l4.1,19.43L52,233.14Z" style="fill:#f5f5f5"></path></g></g></g><g id="freepik--book-shelves--inject-13"><g id="freepik--book-shelf--inject-13"><g id="freepik--Shelf--inject-13"><path d="M346.57,78.3V75.13h0a1.08,1.08,0,0,1,.63-.84l19.14-11a3.33,3.33,0,0,1,3,0l55,31.59a1.07,1.07,0,0,1,.63.84h0V98.9h0a1.07,1.07,0,0,1-.63.84l-19.14,11a3.26,3.26,0,0,1-2.95,0l-55-31.58a1.1,1.1,0,0,1-.63-.85Z" style="fill:#5B9FDF"></path><path d="M346.57,78.3V75.13h0a1.08,1.08,0,0,1,.63-.84l19.14-11a3.33,3.33,0,0,1,3,0l55,31.59a1.07,1.07,0,0,1,.63.84h0V98.9h0a1.07,1.07,0,0,1-.63.84l-19.14,11a3.26,3.26,0,0,1-2.95,0l-55-31.58a1.1,1.1,0,0,1-.63-.85Z" style="fill:#fff;opacity:0.65"></path><path d="M424.32,96.58l-19.14,11a3.26,3.26,0,0,1-2.95,0L347.2,76a.89.89,0,0,1,0-1.69l19.14-11a3.33,3.33,0,0,1,3,0l55,31.59A.89.89,0,0,1,424.32,96.58Z" style="fill:#5B9FDF"></path><path d="M424.32,96.58l-19.14,11a3.26,3.26,0,0,1-2.95,0L347.2,76a.89.89,0,0,1,0-1.69l19.14-11a3.33,3.33,0,0,1,3,0l55,31.59A.89.89,0,0,1,424.32,96.58Z" style="fill:#fff;opacity:0.8"></path><path d="M403.71,107.91v3.17a3.07,3.07,0,0,0,1.47-.35l19.14-11a1.05,1.05,0,0,0,.63-.85h0V95.73h0a.73.73,0,0,0-.12-.36c.22.41.06.88-.51,1.21l-19.14,11A3,3,0,0,1,403.71,107.91Z" style="fill:#5B9FDF"></path><path d="M403.71,107.91v3.17a3.07,3.07,0,0,0,1.47-.35l19.14-11a1.05,1.05,0,0,0,.63-.85h0V95.73h0a.73.73,0,0,0-.12-.36c.22.41.06.88-.51,1.21l-19.14,11A3,3,0,0,1,403.71,107.91Z" style="fill:#fff;opacity:0.5"></path></g><polygon points="393.42 81.12 377.2 90.36 350.41 74.99 366.63 65.74 393.42 81.12"></polygon><path d="M377,89.66l15.64-9a6.55,6.55,0,0,1,.09-4.05L377.2,85.51A15.77,15.77,0,0,0,377,89.66Z" style="fill:#f5f5f5"></path><path d="M378,84.24a3.31,3.31,0,0,0-1.5,2.59v3c0,1,.67,1.34,1.5.87l15.42-8.85v-.75l-15.21,8.67c-.5.29-.9.06-.9-.51V86.47a2,2,0,0,1,.91-1.55l15.19-8.68v-.85Z" style="fill:#263238"></path><path d="M393.42,75.4,366.63,60l-15.42,8.85a3.28,3.28,0,0,0-1.5,2.58v3a1,1,0,0,0,.44,1l26.79,15.38a1.05,1.05,0,0,1-.44-1v-3a3.31,3.31,0,0,1,1.5-2.59Z" style="fill:#455a64"></path><path d="M376.94,85.36a3,3,0,0,0-.44,1.47v3a1.05,1.05,0,0,0,.44,1L350.15,75.44a1,1,0,0,1-.44-1v-3a3,3,0,0,1,.44-1.47Z" style="fill:#37474f"></path><polygon points="409.91 58.11 410.06 60.16 391.96 69.87 391.55 68.68 409.91 58.11" style="fill:#5B9FDF"></polygon><polygon points="409.91 58.11 410.06 60.16 391.96 69.87 391.55 68.68 409.91 58.11" style="opacity:0.35000000000000003"></polygon><polygon points="391.79 69.15 409.33 59.02 412.38 60.79 394.5 71.25 391.79 69.15" style="fill:#f5f5f5"></polygon><path d="M397.79,70.17l1.73,20.32a1.45,1.45,0,0,1-.64,1.13L388.7,97.51a1.49,1.49,0,0,1-.53.15l6.33-25.75a1.09,1.09,0,0,0,.52-.15l.74-.42Z" style="fill:#5B9FDF"></path><path d="M397.79,70.17l1.73,20.32a1.45,1.45,0,0,1-.64,1.13L388.7,97.51a1.49,1.49,0,0,1-.53.15l6.33-25.75a1.09,1.09,0,0,0,.52-.15l.74-.42Z" style="opacity:0.35000000000000003"></path><path d="M393.72,71.76l-1.81-1.55-1.33-1.14c-.14-.22-.3-.38-.21-.56l-6.24,25.56v0c-.09.18-.11.58.13.72l3.15,2.7a1.4,1.4,0,0,0,.77.15l6.33-25.75A1.42,1.42,0,0,1,393.72,71.76Z" style="fill:#5B9FDF"></path><path d="M393.72,71.76l-1.81-1.55-1.33-1.14c-.14-.22-.3-.38-.21-.56l-6.24,25.56v0c-.09.18-.11.58.13.72l3.15,2.7a1.4,1.4,0,0,0,.77.15l6.33-25.75A1.42,1.42,0,0,1,393.72,71.76Z" style="opacity:0.25"></path><path d="M390.58,68.32c-.36.2-.27.44,0,.75l3.14,2.69a1.42,1.42,0,0,0,1.3,0l2.77-1.59c.36-.21.42-.51.14-.67s-.09-.54-.45-.33l-2.89,1.67a.47.47,0,0,1-.43,0l-2.3-2a.13.13,0,0,1,0-.25l18.05-10.48-.86-.5Z" style="fill:#5B9FDF"></path><path d="M390.58,68.32c-.36.2-.27.44,0,.75l3.14,2.69a1.42,1.42,0,0,0,1.3,0l2.77-1.59c.36-.21.42-.51.14-.67s-.09-.54-.45-.33l-2.89,1.67a.47.47,0,0,1-.43,0l-2.3-2a.13.13,0,0,1,0-.25l18.05-10.48-.86-.5Z" style="opacity:0.15"></path><polygon points="415.14 59.09 397.89 69.06 397.89 101.88 415.14 91.92 415.14 59.09" style="fill:#5B9FDF"></polygon><polygon points="415.14 59.09 397.89 69.06 397.89 101.88 415.14 91.92 415.14 59.09" style="opacity:0.15"></polygon><path d="M398.44,69.6,415.14,60A7.07,7.07,0,0,0,419,62.11L402.4,71.65A16.65,16.65,0,0,1,398.44,69.6Z" style="fill:#f5f5f5"></path><path d="M404,71.59a3.56,3.56,0,0,1-3.21,0L398,70c-.89-.51-.89-1.34,0-1.84l16.45-9.45.7.4L399,68.44a.58.58,0,0,0,0,1.1L401.57,71a2.1,2.1,0,0,0,1.92,0l16.18-9.33.79.46Z" style="fill:#5B9FDF"></path><path d="M404,71.59a3.56,3.56,0,0,1-3.21,0L398,70c-.89-.51-.89-1.34,0-1.84l16.45-9.45.7.4L399,68.44a.58.58,0,0,0,0,1.1L401.57,71a2.1,2.1,0,0,0,1.92,0l16.18-9.33.79.46Z" style="fill:#fff;opacity:0.55"></path><path d="M420.46,62.15V95L404,104.41a3.56,3.56,0,0,1-3.21,0L398,102.8a1.12,1.12,0,0,1-.66-.92V69.05A1.13,1.13,0,0,0,398,70l2.82,1.61a3.56,3.56,0,0,0,3.21,0Z" style="fill:#5B9FDF"></path><path d="M402.4,72a3.21,3.21,0,0,1-1.6-.38L398,70a1.13,1.13,0,0,1-.66-.93v32.83a1.12,1.12,0,0,0,.66.92l2.82,1.61a3.21,3.21,0,0,0,1.6.38Z" style="opacity:0.15"></path></g><g id="freepik--book-shelf--inject-13"><g id="freepik--shelf--inject-13"><path d="M385.46,141.35v-3.17h0a1.08,1.08,0,0,1,.64-.84l19.14-11a3.3,3.3,0,0,1,2.94,0l55,31.58a1.1,1.1,0,0,1,.63.85h0V162h0a1.08,1.08,0,0,1-.63.84l-19.15,11a3.3,3.3,0,0,1-2.94,0l-55-31.58a1.09,1.09,0,0,1-.64-.85Z" style="fill:#5B9FDF"></path><path d="M385.46,141.35v-3.17h0a1.08,1.08,0,0,1,.64-.84l19.14-11a3.3,3.3,0,0,1,2.94,0l55,31.58a1.1,1.1,0,0,1,.63.85h0V162h0a1.08,1.08,0,0,1-.63.84l-19.15,11a3.3,3.3,0,0,1-2.94,0l-55-31.58a1.09,1.09,0,0,1-.64-.85Z" style="fill:#fff;opacity:0.65"></path><path d="M463.22,159.62l-19.15,11a3.24,3.24,0,0,1-2.94,0L386.1,139a.89.89,0,0,1,0-1.69l19.14-11a3.3,3.3,0,0,1,2.94,0l55,31.58A.89.89,0,0,1,463.22,159.62Z" style="fill:#5B9FDF"></path><path d="M463.22,159.62l-19.15,11a3.24,3.24,0,0,1-2.94,0L386.1,139a.89.89,0,0,1,0-1.69l19.14-11a3.3,3.3,0,0,1,2.94,0l55,31.58A.89.89,0,0,1,463.22,159.62Z" style="fill:#fff;opacity:0.8"></path><path d="M442.6,171v3.17a3.07,3.07,0,0,0,1.47-.35l19.15-11a1.07,1.07,0,0,0,.63-.84h0v-3.17h0a.85.85,0,0,0-.12-.36c.22.41,0,.88-.51,1.21l-19.15,11A2.93,2.93,0,0,1,442.6,171Z" style="fill:#5B9FDF"></path><path d="M442.6,171v3.17a3.07,3.07,0,0,0,1.47-.35l19.15-11a1.07,1.07,0,0,0,.63-.84h0v-3.17h0a.85.85,0,0,0-.12-.36c.22.41,0,.88-.51,1.21l-19.15,11A2.93,2.93,0,0,1,442.6,171Z" style="fill:#fff;opacity:0.5"></path></g><polygon points="440.1 146.99 423.88 156.24 397.09 140.86 413.31 131.62 440.1 146.99" style="fill:#e0e0e0"></polygon><path d="M423.7,155.54l15.65-9a6.5,6.5,0,0,1,.08-4.06l-15.55,8.88A15.83,15.83,0,0,0,423.7,155.54Z" style="fill:#fff"></path><path d="M424.68,150.12a3.28,3.28,0,0,0-1.5,2.59v3c0,1,.67,1.34,1.5.86l15.42-8.85V147l-15.21,8.68c-.5.29-.9.05-.9-.52v-2.8a2,2,0,0,1,.91-1.55l15.19-8.68v-.85Z" style="fill:#5B9FDF"></path><path d="M424.68,150.12a3.28,3.28,0,0,0-1.5,2.59v3c0,1,.67,1.34,1.5.86l15.42-8.85V147l-15.21,8.68c-.5.29-.9.05-.9-.52v-2.8a2,2,0,0,1,.91-1.55l15.19-8.68v-.85Z" style="opacity:0.35000000000000003"></path><path d="M440.1,141.27l-26.79-15.38-15.42,8.85a3.31,3.31,0,0,0-1.5,2.59v3a1,1,0,0,0,.44,1l26.79,15.38a1.07,1.07,0,0,1-.44-1v-3a3.28,3.28,0,0,1,1.5-2.58Z" style="fill:#5B9FDF"></path><path d="M440.1,141.27l-26.79-15.38-15.42,8.85a3.31,3.31,0,0,0-1.5,2.59v3a1,1,0,0,0,.44,1l26.79,15.38a1.07,1.07,0,0,1-.44-1v-3a3.28,3.28,0,0,1,1.5-2.58Z" style="opacity:0.15"></path><path d="M423.62,151.23a3.08,3.08,0,0,0-.44,1.47v3a1.07,1.07,0,0,0,.44,1l-26.79-15.38a1,1,0,0,1-.44-1v-3a3,3,0,0,1,.44-1.47Z" style="fill:#5B9FDF"></path><path d="M423.62,151.23a3.08,3.08,0,0,0-.44,1.47v3a1.07,1.07,0,0,0,.44,1l-26.79-15.38a1,1,0,0,1-.44-1v-3a3,3,0,0,1,.44-1.47Z" style="opacity:0.25"></path><polygon points="440.1 139.41 423.88 148.65 397.09 133.28 413.31 124.03 440.1 139.41" style="fill:#e0e0e0"></polygon><path d="M423.7,148l15.64-9a6.58,6.58,0,0,1,.09-4.06l-15.55,8.89A15.77,15.77,0,0,0,423.7,148Z" style="fill:#fff"></path><path d="M424.68,142.53a3.29,3.29,0,0,0-1.5,2.59v3c0,1,.67,1.34,1.5.86l15.42-8.85v-.74l-15.21,8.67c-.5.29-.9,0-.9-.52v-2.8a2,2,0,0,1,.91-1.55l15.19-8.68v-.85Z" style="fill:#5B9FDF"></path><path d="M424.68,142.53a3.29,3.29,0,0,0-1.5,2.59v3c0,1,.67,1.34,1.5.86l15.42-8.85v-.74l-15.21,8.67c-.5.29-.9,0-.9-.52v-2.8a2,2,0,0,1,.91-1.55l15.19-8.68v-.85Z" style="fill:#fff;opacity:0.2"></path><path d="M424.68,142.53a3.29,3.29,0,0,0-1.5,2.59v3c0,1,.67,1.34,1.5.86l15.42-8.85v-.74l-15.21,8.67c-.5.29-.9,0-.9-.52v-2.8a2,2,0,0,1,.91-1.55l15.19-8.68v-.85Z" style="opacity:0.1"></path><path d="M440.1,133.68,413.31,118.3l-15.42,8.85a3.31,3.31,0,0,0-1.5,2.59v3a1,1,0,0,0,.44,1l26.79,15.38a1.06,1.06,0,0,1-.44-1v-3a3.28,3.28,0,0,1,1.5-2.59Z" style="fill:#5B9FDF"></path><path d="M440.1,133.68,413.31,118.3l-15.42,8.85a3.31,3.31,0,0,0-1.5,2.59v3a1,1,0,0,0,.44,1l26.79,15.38a1.06,1.06,0,0,1-.44-1v-3a3.28,3.28,0,0,1,1.5-2.59Z" style="fill:#fff;opacity:0.5"></path><path d="M423.62,143.64a3.08,3.08,0,0,0-.44,1.48v3a1.06,1.06,0,0,0,.44,1l-26.79-15.38a1,1,0,0,1-.44-1v-3a2.94,2.94,0,0,1,.44-1.47Z" style="fill:#5B9FDF"></path><path d="M423.62,143.64a3.08,3.08,0,0,0-.44,1.48v3a1.06,1.06,0,0,0,.44,1l-26.79-15.38a1,1,0,0,1-.44-1v-3a2.94,2.94,0,0,1,.44-1.47Z" style="fill:#fff;opacity:0.30000000000000004"></path><polygon points="446.98 118.09 429.73 128.05 429.73 160.88 446.98 150.91 446.98 118.09" style="fill:#5B9FDF"></polygon><polygon points="446.98 118.09 429.73 128.05 429.73 160.88 446.98 150.91 446.98 118.09" style="opacity:0.15"></polygon><path d="M430.28,128.6,447,119a7.06,7.06,0,0,0,3.82,2.08l-16.56,9.54A16.21,16.21,0,0,1,430.28,128.6Z" style="fill:#fff"></path><path d="M435.85,130.59a3.56,3.56,0,0,1-3.21,0L429.83,129c-.89-.5-.89-1.33,0-1.84l16.45-9.44.7.4-16.19,9.34a.59.59,0,0,0,0,1.11l2.62,1.48a2.13,2.13,0,0,0,1.92,0l16.18-9.33.79.45Z" style="fill:#5B9FDF"></path><path d="M435.85,130.59a3.56,3.56,0,0,1-3.21,0L429.83,129c-.89-.5-.89-1.33,0-1.84l16.45-9.44.7.4-16.19,9.34a.59.59,0,0,0,0,1.11l2.62,1.48a2.13,2.13,0,0,0,1.92,0l16.18-9.33.79.45Z" style="fill:#fff;opacity:0.55"></path><path d="M452.3,121.14V154l-16.45,9.44a3.56,3.56,0,0,1-3.21,0l-2.82-1.61a1.13,1.13,0,0,1-.66-.92V128.05a1.11,1.11,0,0,0,.66.92l2.82,1.62a3.56,3.56,0,0,0,3.21,0Z" style="fill:#5B9FDF"></path><path d="M434.24,131a3.32,3.32,0,0,1-1.6-.38L429.82,129a1.11,1.11,0,0,1-.66-.92v32.83a1.13,1.13,0,0,0,.66.92l2.82,1.61a3.32,3.32,0,0,0,1.6.38Z" style="opacity:0.15"></path><polygon points="454.04 122.14 436.78 132.1 436.78 164.93 454.04 154.96 454.04 122.14" style="fill:#263238"></polygon><path d="M437.34,132.65l16.7-9.58a7,7,0,0,0,3.81,2.08L441.3,134.7A16.65,16.65,0,0,1,437.34,132.65Z" style="fill:#f5f5f5"></path><path d="M442.9,134.64a3.56,3.56,0,0,1-3.21,0L436.88,133a1,1,0,0,1,0-1.84l16.46-9.44.7.4-16.19,9.34a.59.59,0,0,0,0,1.11l2.61,1.48a2.12,2.12,0,0,0,1.93,0l16.18-9.33.79.45Z" style="fill:#455a64"></path><path d="M459.36,125.19V158l-16.46,9.44a3.56,3.56,0,0,1-3.21,0l-2.81-1.61a1.13,1.13,0,0,1-.66-.92V132.1a1.11,1.11,0,0,0,.66.92l2.81,1.62a3.56,3.56,0,0,0,3.21,0Z" style="fill:#37474f"></path><path d="M441.3,135a3.39,3.39,0,0,1-1.61-.38L436.88,133a1.11,1.11,0,0,1-.66-.92v32.83a1.13,1.13,0,0,0,.66.92l2.81,1.61a3.27,3.27,0,0,0,1.61.38Z" style="fill:#263238"></path></g></g><g id="freepik--speech-bubble--inject-13"><g id="freepik--speech-bubble--inject-13"><path d="M197.31,90.52a.83.83,0,0,0-.44-.12h-8.09l-3.35,1.93V103.9l3.35-1.92,2.88-3.34v8.18l3.35-1.93,8.75-9.43a.89.89,0,0,0-.22-1.35Z" style="fill:#5B9FDF"></path><path d="M197.31,90.52a.83.83,0,0,0-.44-.12h-8.09l-3.35,1.93V103.9l3.35-1.92,2.88-3.34v8.18l3.35-1.93,8.75-9.43a.89.89,0,0,0-.22-1.35Z" style="fill:#fff;opacity:0.35000000000000003"></path><path d="M191.66,106.82l3.35-1.93,8.75-9.43A.88.88,0,0,0,203.1,94H195l-3.35,1.92Z" style="fill:#5B9FDF"></path><path d="M195,84.44a7.12,7.12,0,0,0-3.21-5.56h0a7.06,7.06,0,0,0-6.42,0L161,92.85a7.09,7.09,0,0,0-3.21,5.56v26.33A7.12,7.12,0,0,0,161,130.3h0a7.06,7.06,0,0,0,6.42,0l24.69-14.18c2.89-1.64,2.91-3.29,2.91-5.34Z" style="fill:#5B9FDF"></path><path d="M157.8,124.74A7.12,7.12,0,0,0,161,130.3h0a7.14,7.14,0,0,0,5.87.27c-1.51.57-2.66-.29-2.66-2.12V102.11a6.55,6.55,0,0,1,.94-3.16l-6.42-3.71a6.62,6.62,0,0,0-.94,3.17Z" style="fill:#5B9FDF"></path><path d="M157.8,124.74A7.12,7.12,0,0,0,161,130.3h0a7.14,7.14,0,0,0,5.87.27c-1.51.57-2.66-.29-2.66-2.12V102.11a6.55,6.55,0,0,1,.94-3.16l-6.42-3.71a6.62,6.62,0,0,0-.94,3.17Z" style="opacity:0.2"></path><path d="M194.93,83.53c-.38-1.36-1.62-1.8-3.1-.94l-24.4,14a6.4,6.4,0,0,0-2.26,2.4l-6.42-3.7A6.39,6.39,0,0,1,161,92.86l24.38-14a7.12,7.12,0,0,1,6.42,0h0A7.1,7.1,0,0,1,194.93,83.53Z" style="fill:#5B9FDF"></path><path d="M194.93,83.53c-.38-1.36-1.62-1.8-3.1-.94l-24.4,14a6.4,6.4,0,0,0-2.26,2.4l-6.42-3.7A6.39,6.39,0,0,1,161,92.86l24.38-14a7.12,7.12,0,0,1,6.42,0h0A7.1,7.1,0,0,1,194.93,83.53Z" style="fill:#fff;opacity:0.45"></path><path d="M174.13,112.17a2.37,2.37,0,0,1-1.32-.44.54.54,0,1,1,.6-.9,1.13,1.13,0,0,0,1,.23c.62-.15,1.34-1,2.12-2.38a.5.5,0,0,1,.36-.27.57.57,0,0,1,.44.1,1.16,1.16,0,0,0,1,.3c.46-.1,1.21-.6,2.15-2.41a.59.59,0,0,1,.36-.28.55.55,0,0,1,.45.1,1.33,1.33,0,0,0,1.09.36c.59-.13,1.23-.87,1.93-2.2a.53.53,0,0,1,.73-.23.54.54,0,0,1,.23.73c-.87,1.68-1.72,2.55-2.65,2.76a2.11,2.11,0,0,1-1.46-.22c-.83,1.45-1.68,2.25-2.59,2.45a2,2,0,0,1-1.39-.17c-.85,1.43-1.66,2.2-2.53,2.41A2,2,0,0,1,174.13,112.17Z" style="fill:#455a64"></path><path d="M173,122.83a.64.64,0,0,1-.27-.07.55.55,0,0,1-.27-.47v-9.7a10,10,0,0,1,.47-2.81h0l5.51-16.07a.55.55,0,0,1,.47-.37.54.54,0,0,1,.52.28l5.28,9.29a6.52,6.52,0,0,1,.74,2.8v9.7a.55.55,0,0,1-.27.47l-11.91,6.88A.64.64,0,0,1,173,122.83Zm1-12.7a9.38,9.38,0,0,0-.41,2.46v8.76l10.83-6.25v-9.39a5.59,5.59,0,0,0-.6-2.26l-4.69-8.25Z" style="fill:#455a64"></path><path d="M178.94,93.88l-2.3,6.68c.64,1.48,5.36-.89,4.71-2.43Z" style="fill:#455a64"></path><path d="M177,120.54a.55.55,0,0,1-.54-.55v-7.76a.54.54,0,0,1,1.08,0V120A.55.55,0,0,1,177,120.54Z" style="fill:#455a64"></path><path d="M180.92,118.24a.54.54,0,0,1-.54-.54v-7.76a.54.54,0,1,1,1.08,0v7.76A.54.54,0,0,1,180.92,118.24Z" style="fill:#455a64"></path></g></g></svg>