<svg xmlns="http://www.w3.org/2000/svg" xmlns:xlink="http://www.w3.org/1999/xlink" width="539.935" height="368.553" xmlns:v="https://vecta.io/nano"><style><![CDATA[.B{fill:#d8e7fc}.C{fill:#99c1f9}.D{fill:#56a8ed}.E{fill:#f1d27f}.F{fill:#d8b058}.G{fill:#ccd9f8}.H{fill:#7abaf9}.I{fill:#e2e2e2}.J{fill:#3f71e2}.K{fill:#f9f4ea}.L{fill:#0050c8}.M{fill:#62afef}.N{fill:#57afff}.O{fill:#f0bc99}]]></style><defs><linearGradient id="A" x1="1.63" y1="-.826" x2=".696" y2=".315"><stop offset="0" stop-color="#9feab2"/><stop offset="1" stop-color="#6ad4ab"/></linearGradient><linearGradient id="B" x1=".44" y1=".662" x2="1.479" y2="-.006"><stop offset="0" stop-color="#67d690"/><stop offset="1" stop-color="#00a99d"/></linearGradient><linearGradient id="C" x1=".652" y1="1.355" x2=".308" y2="-.317" xlink:href="#B"/><linearGradient id="D" x1="1.569" y1="-3.264" x2=".443" y2=".681" xlink:href="#B"/><linearGradient id="E" x1="1.766" y1="-.739" x2="-1.475" y2="2.363" xlink:href="#A"/><linearGradient id="F" x1="-3.291" y1="6.066" x2="2.371" y2="-2.148" xlink:href="#A"/><linearGradient id="G" x1="-1.921" y1="6.567" x2="2.646" y2="-4.883" xlink:href="#A"/><linearGradient id="H" x1="2.952" y1="-6.137" x2="-.281" y2="2.587" xlink:href="#B"/><linearGradient id="I" x1="-117.261" y1=".959" x2="-116.1" y2="-.256" xlink:href="#B"/><linearGradient id="J" x1="-129.104" y1="-17.527" x2="-127.821" y2="-18.589" xlink:href="#B"/><linearGradient id="K" x1="-139.485" y1="-39.281" x2="-138.088" y2="-40.278" xlink:href="#B"/><linearGradient id="L" x1="-115.277" y1="-65.352" x2="-113.98" y2="-66.453" xlink:href="#B"/><linearGradient id="M" x1="1.161" y1="1.496" x2=".332" y2=".412" xlink:href="#B"/><linearGradient id="N" x1="-216.312" y1="-1.209" x2="-216.312" y2="-3.204"><stop offset="0" stop-color="#fe4500"/><stop offset="1" stop-color="#efdb29"/></linearGradient><linearGradient id="O" x1=".073" y1="1.6" x2=".879" y2="-.476"><stop offset="0" stop-color="#36078b"/><stop offset="1" stop-color="#16b1ff"/></linearGradient><linearGradient id="P" y1=".495" x2="1" y2=".495"><stop offset="0" stop-color="#fea600"/><stop offset="1" stop-color="#efdb29"/></linearGradient><linearGradient id="Q" x1=".5" y1="1.777" x2=".5" y2="-.088"><stop offset="0" stop-color="#00fef6"/><stop offset="1" stop-color="#29a0ef" stop-opacity="0"/></linearGradient><linearGradient id="R" x1=".5" y1=".946" x2=".5" y2="-3.795" xlink:href="#O"/><linearGradient id="S" x1=".278" y1="11.89" x2=".565" y2="7.965" xlink:href="#O"/><path id="T" d="M116.019 132.674H91.991v-5.094h24.028z"/><path id="U" d="M191.863 160.475h-24.028v-5.094h24.028z"/><path id="V" d="M442.396 99.285h-8.72l.987-8.72h8.72z"/><path id="W" d="M237.732 357.02c.005 2.649-1.587 5.04-4.033 6.058s-5.264.461-7.139-1.411-2.438-4.688-1.425-7.136 3.401-4.045 6.05-4.045a6.55 6.55 0 0 1 6.547 6.534z"/><path id="X" d="M234.531 357.02c0 2.643-1.592 5.025-4.034 6.037s-5.252.452-7.121-1.416-2.428-4.679-1.416-7.121 3.394-4.034 6.037-4.034c3.609 0 6.534 2.925 6.534 6.534z"/><path id="Y" d="M278.694 357.02c.005 2.65-1.588 5.042-4.036 6.059s-5.267.457-7.141-1.417-2.433-4.693-1.417-7.141 3.409-4.041 6.059-4.036a6.55 6.55 0 0 1 6.534 6.534z"/><path id="Z" d="M354.697 5.08H30.601l2.362-5h324.082z"/></defs><g class="G"><ellipse cx="324.284" cy="363.566" rx="215.652" ry="4.987"/><path d="M71.43 340.805c0 1.44 14.521 2.6 32.428 2.6s32.415-1.16 32.415-2.6-14.507-2.6-32.415-2.6-32.428 1.16-32.428 2.6z"/></g><path d="M473.318 138.212c-8.521 12.454-11.281 20.934-.493 22s24.668-26.668 16.668-32c-5.641-3.752-12.108 4.061-16.175 10z" fill="url(#A)"/><path d="M497.84 94.375c6.534-2.04 9.147 2.667 8.52 6.334-.893 5.16-3.693 5.747 3.187 10.2 5.08 3.28 6.28 10.094.547 13.507-8 4.774.533 8.467 2.387 12.561 3.854 8.44-2.454 10.507-12.641 14.667-10.467 4.36-18.254 2.227-25.6-4.44-5.4-4.92-8.614-10.467-5.334-15.481 4.654-7.214 12.281-2.32 9.334-9.334-1.773-4.2-1.947-12 7.6-12.707s2.586-12.357 12-15.307z" fill="url(#B)"/><path d="M458.997 80.911c-8.227-1.72-10.854 4.387-9.654 8.76 1.693 6.187 5.187 6.574-2.667 12.827-5.814 4.627-6.467 13.094.933 16.574 10.347 4.88.36 10.414-1.427 15.628-3.694 10.774 4.254 12.547 17.2 16.468 13.334 4 22.668.52 30.748-8.48 6-6.667 9.334-13.8 4.72-19.548-6.547-8.254-15.267-1.333-12.494-10.294 1.667-5.334.933-14.921-10.8-14.667s-4.638-14.787-16.559-17.268z" fill="url(#C)"/><path d="M468.253 189.97h24.441a6.23 6.23 0 0 0 6.134-5.214l5.334-32.9c.063-.358-.036-.725-.27-1.004s-.58-.438-.943-.436h-45.045a1.24 1.24 0 0 0-1.227 1.44l5.334 32.9a6.2 6.2 0 0 0 6.24 5.214z" class="L"/><path d="M459.664 116.02c7.614 2.307 13.947 5.48 9.027 7.72s-22.041-4.88-19.654-8c1.693-2.08 7-.827 10.627.28z" fill="url(#D)"/><path d="M459.17 91.712c1.747 4.787 3.547 7.227 5.96 4.467s-2.48-12-5.52-10.894c-2.146.817-1.266 4.133-.44 6.427z" fill="url(#E)"/><path d="M499.275 101.152c-1.867 4.747-2.133 7.76 1.507 7.294s6.12-10.667 3.08-11.814c-2.142-.814-3.687 2.253-4.587 4.52z" fill="url(#F)"/><path d="M508.133 123.767c3.307-2.947 4.694-5.174 1.693-6.24s-8.92 5.854-7.014 7.934c1.334 1.48 3.734-.294 5.321-1.694z" fill="url(#G)"/><path d="M471.184 114.606c-3-1.013-4.867-1.08-4.467 1.147s6.787 3.467 7.414 1.547c.44-1.36-1.52-2.213-2.947-2.694z" fill="url(#H)"/><path d="M29.561 193.344h322.764V0H29.561zm317.711-5.054H34.628V5.09h312.644z" class="C"/><path d="M354.512 190.824H36.801V2.574h317.711z" class="B"/><path d="M242.905 45.87a3.11 3.11 0 0 1-.827-2.48c.307-1.333 2.107-2.2 4.814-2.44a3.27 3.27 0 0 1-.467-2.307c.8-3.667 9.921-4.32 20.361-1.48 3.426.918 6.746 2.192 9.907 3.8a2.38 2.38 0 0 1 0-1.333c.947-2.667 8-2.213 15.8 1.16 1.81.768 3.566 1.659 5.254 2.667.6-1.08 3.667-1.013 7.08.187a15.78 15.78 0 0 1 4.414 2.293l27.175 1.68H215.81zM146.9 122.634a2.13 2.13 0 0 1-.573-1.693c.213-.933 1.453-1.507 3.307-1.667a2.29 2.29 0 0 1-.32-1.587c.547-2.507 6.787-2.96 13.934-1a34.67 34.67 0 0 1 6.786 2.585 1.61 1.61 0 0 1 0-.907c.64-1.867 5.494-1.507 10.814.787a31.2 31.2 0 0 1 3.6 1.853c.413-.733 2.507-.693 4.84.133 1.086.361 2.108.892 3.027 1.573l18.6 1.147h-82.523zM89.563 93.579a3.64 3.64 0 0 1-.36-2.213c.467-2.387 4-3.534 8.88-3.347-.331-1.084-.396-2.233-.187-3.347 1.68-8.547 20.788-10.094 42.669-3.454a106.15 106.15 0 0 1 11.734 4.32 6.28 6.28 0 0 1-.2-3.04c1.173-5.974 12.187-8 26.375-5.534.019-.188.064-.372.133-.547 2.08-6.667 17.2-5.667 34.2 2.107 4.24-1.72 12.881-.533 22.228 3.453a58.42 58.42 0 0 1 13.494 7.894 2.67 2.67 0 0 1-.227-1.733c.68-2.44 6.307-2.253 12.574.413a25.76 25.76 0 0 1 8.52 5.587l35.255 2.667H50.108z" opacity=".7" fill="#fff"/><path d="M167.608 190.824h54.63L124.753 2.56h-54.63zm-23.161 0h13.441L60.403 2.56H46.962zm186.677 0h13.441L247.079 2.56h-13.454z" opacity=".3" fill="#f8fff8"/><path d="M34.281 193.344h322.76V0H34.281zm317.711-5.054H39.335V5.09h312.657z" class="B"/><g opacity=".8"><path d="M121.659 143.875h33.428v44.416h-33.428z" class="D"/><path d="M55.549 163.729H82.59v24.561H55.549z" class="M"/><path d="M116.019 143.875h15.027v44.416h-15.027z" class="H"/><path d="M82.604 114.673h33.428v73.617H82.604z" class="D"/><path d="M116.019 143.875h3.547v44.416h-3.547z" class="M"/><g class="H"><path d="M76.977 114.673h15.014v73.617H76.977z"/><use xlink:href="#T"/><use xlink:href="#T" y="9.267"/><use xlink:href="#T" y="18.548"/><use xlink:href="#T" y="27.801"/><use xlink:href="#T" y="37.082"/><use xlink:href="#T" y="46.349"/><path d="M91.991 183.197h24.028v5.094H91.991z"/><use xlink:href="#T" y="-9.281"/></g><path d="M158.435 165.996v22.295h33.415v-32.9h-24.028z" class="D"/><g class="H"><path d="M152.808 172.355v15.934h15.014v-32.9l-9.387 10.6-3.36 3.8z"/><use xlink:href="#U"/><use xlink:href="#U" y="9.281"/><use xlink:href="#U" y="18.548"/><path d="M167.835 183.197h24.028v5.094h-24.028z"/></g><g class="D"><path d="M151.741 143.875h-30.082v-5.894h30.082z"/><path d="M146.021 138.554h-18.628v-5.894h18.628zm58.269 38.309h22.815v11.441H204.29z"/></g><path d="M200.45 176.863h10.254v11.441H200.45z" class="H"/><g class="D"><path d="M224.838 176.85h-21.975v-6.027h21.975z"/><path d="M218.104 171.223h-7.094v-7.48h7.094z"/></g><path d="M219.878 181.117h1.773v7.174h-1.773z" class="M"/></g><path d="M98.034 298.67c7.56-4.827-2.12-19.561-19.734-20.988a35.35 35.35 0 0 0-.16 14.667c1.477 5.867 9.294 13.055 19.894 6.321z" fill="url(#I)"/><path d="M108.232 299.843c8.814-1.707 5.187-18.974-10.667-26.748-2.766 4.089-4.642 8.714-5.507 13.574-.854 6.016 3.786 15.574 16.174 13.174z" fill="url(#J)"/><path d="M114.339 301.016c7.814 2.2 11.894-13.241 2.213-25.975a32 32 0 0 0-9.974 8.747c-3.067 4.547-3.2 14.174 7.761 17.228z" fill="url(#K)"/><path d="M117.739 299.056c5.454 4.84 14.814-6.014 12-20.108-4.008.23-7.924 1.297-11.494 3.133-4.253 2.467-8.146 10.188-.506 16.975z" fill="url(#L)"/><path d="M133.567 262.707c29.962-11.747 6-70.311-55.03-87.471 0 0-12 26.028-10.667 51.483 1.107 21.734 23.681 52.497 65.697 35.988z" fill="url(#M)"/><path d="M84.564 182.636a54.23 54.23 0 0 1 13.95 14.668 38.87 38.87 0 0 1 2.667 4.24 48.23 48.23 0 0 1 2.493 4.347l2.2 4.52 1.107 2.24.88 2.36c2.462 6.229 4.437 12.64 5.907 19.174l2.027 9.881 1.187 10.054c.187 1.68.52 3.333.613 5.027l.253 5.08.547 10.174-.2 20.494-.56 10.281-.213 5.174-.108 2.586-.24 2.573-.827 10.361-.413 5.2-.253 5.24.493.093 3.6-20.508.453-2.573.28-2.587.573-5.174 1.133-10.361.28-2.587.107-2.6.2-5.214.4-10.414-.387-10.414-.2-5.214c-.08-1.733-.387-3.454-.56-5.187l-1.333-10.347-2.254-10.187c-1.705-6.755-4.016-13.342-6.907-19.681l-1.04-2.387-1.267-2.28-2.56-4.56c-.827-1.533-1.96-2.88-2.92-4.334a39.63 39.63 0 0 0-3.133-4.174 50.99 50.99 0 0 0-15.8-13.507z" class="I"/><path d="M114.578 233.986c-22.8-8.947-4.56-53.536 41.9-66.59 0 0 9.107 19.8 8.094 39.189-.871 16.547-18.045 39.922-49.994 27.401z" fill="#39c296"/><path d="M151.621 172.729c-4.576 5.57-8.7 11.496-12.334 17.721-1.76 3.134-3.52 6.28-5.107 9.521l-2.44 4.827-2.253 4.92a241.75 241.75 0 0 0-13.974 40.936c-.813 3.507-1.493 7.054-2.24 10.587l-1.08 5.334-.827 5.334-1.507 10.667c-.347 3.574-.613 7.174-.867 10.774l-.387 5.334c-.08 1.8-.08 3.6-.133 5.4l-.2 10.774c0 3.587.36 7.187.52 10.774s.44 7.147.76 10.667h.387c.133-7.134 0-14.267.347-21.4l.68-10.667.36-5.334.613-5.334 1.227-10.667 1.733-10.347.88-5.267 1.12-5.24 2.307-10.441a300.01 300.01 0 0 1 13.027-40.762c5.214-13.283 11.81-25.98 19.681-37.882z" class="I"/><path d="M102.045 207.958c43.069-13.2 15.881-97.512-67.47-128.007 0 0-19.468 35.029-20.321 70.671-.694 30.534 27.476 75.817 87.791 57.336z" fill="#5ed291"/><path d="M42.228 90.844q2.373 3.294 4.507 6.747l4.307 6.854 4 7.014 3.814 7.107c2.44 4.787 5.014 9.481 7.147 14.414 1.107 2.44 2.28 4.84 3.427 7.254l3.094 7.414 3.08 7.4 2.787 7.507 2.8 7.507c.933 2.507 1.627 5.094 2.44 7.627l2.453 7.627 1.24 3.8c.387 1.333.693 2.573 1.04 3.867l4.08 15.481c1.227 5.187 2.253 10.441 3.4 15.654.533 2.667 1.173 5.214 1.627 7.84s.76 5.334 1.213 7.92l2.52 15.854 1.707 16 .907 8 .427 8 1 16.121c.653 10.787.24 21.574.867 32.482h.587l.947-16.241.48-8.12c.173-2.667.36-5.414.267-8.12l-.133-16.281v-8.132l-.6-8.107-1.2-16.241c-.587-5.334-1.453-10.747-2.16-16.134l-1.12-8c-.427-2.667-1.053-5.334-1.573-8l-3.307-16a345.68 345.68 0 0 0-21.441-61.337c-9.174-19.641-20-38.669-34.149-55.23z" class="I"/><path d="M77.563 247.213c26.335-19.054-11.894-70.284-75.911-71.644 0 0-5.12 28.455 2.667 53.03 6.574 20.907 36.375 45.282 73.244 18.614z" fill="#3cc395"/><path d="M9.426 181.143A134.27 134.27 0 0 1 27.52 195.81l4.24 4 4 4.16c2.747 2.667 5.2 5.694 7.707 8.614A260.7 260.7 0 0 1 69.826 250.4l5.547 10.134a56.37 56.37 0 0 1 2.573 5.16l2.453 5.24 2.507 5.227c.413.867.853 1.733 1.24 2.667l1.08 2.667c1.4 3.6 2.893 7.16 4.427 10.734s2.773 7.227 4 10.894l3.827 11.027c2.467 7.387 4.427 14.934 7 22.388l.413-.08-5.227-22.895-3.32-11.267c-1.133-3.747-2.133-7.547-3.6-11.187l-4.08-11.014-1.027-2.76c-.373-.907-.8-1.787-1.187-2.667l-2.413-5.334L81.626 264a58.51 58.51 0 0 0-2.573-5.334l-5.494-10.467a218.71 218.71 0 0 0-27.628-37.949c-2.667-2.853-5.334-5.76-8.227-8.387l-4.28-4-4.494-3.8A116.63 116.63 0 0 0 9.573 180.73zm60.377-13.108c-3.086-2.278-6.486-4.097-10.094-5.4-1.733-.747-3.547-1.213-5.334-1.787s-3.654-.853-5.494-1.267c-3.728-.65-7.51-.941-11.294-.867a33.11 33.11 0 0 0-11.334 2.107v.4a112.1 112.1 0 0 1 21.975 2.28 209.59 209.59 0 0 1 21.534 4.92zm-6.906-24.147a29.64 29.64 0 0 0-7.56-6.027 43.07 43.07 0 0 0-4.2-2.16l-4.387-1.707a43.84 43.84 0 0 0-9.334-1.893 25.15 25.15 0 0 0-9.707.88v.4c6.079.885 12.058 2.354 17.854 4.387a176.01 176.01 0 0 1 17.214 6.48zm30.241 18.947a31.6 31.6 0 0 0 2.934-5.667l1.987-5.254c.213-.893.573-1.68.853-2.507l.413-1.24a8.74 8.74 0 0 0 .467-1.2 26.52 26.52 0 0 1 2.667-5.16l-.133-.347a11.51 11.51 0 0 0-4.88 3.774 19.52 19.52 0 0 0-2.854 5.48 37.11 37.11 0 0 0-1.84 12.121zm-14.174-26.294a21.88 21.88 0 0 0 1.187-4.774c.267-1.493.36-2.947.52-4.334l.347-4a17.36 17.36 0 0 1 1.027-4.334l-.16-.227a8.42 8.42 0 0 0-2.867 3.76 15.43 15.43 0 0 0-1.093 4.627 34.3 34.3 0 0 0 .773 9.414z" class="I"/><path d="M84.511 341.885h37.055a3.63 3.63 0 0 0 3.6-3.214l5.107-42.909a3.64 3.64 0 0 0-3.614-4.067H79.404c-1.039 0-2.027.445-2.716 1.223s-1.01 1.813-.884 2.844l5.094 42.909c.222 1.829 1.771 3.207 3.613 3.214z" class="J"/><path d="M74.616 300.217h56.8a2.4 2.4 0 0 0 2.373-2.027l1.107-7.294c.109-.69-.089-1.393-.543-1.924s-1.118-.836-1.817-.836h-58.97a2.4 2.4 0 0 0-2.36 2.76l1.12 7.294c.168 1.144 1.137 2 2.293 2.027z" class="L"/><path d="M118.742 203.7h413.246a6.88 6.88 0 0 0 6.867-6.867h0a6.88 6.88 0 0 0-6.867-6.867H118.742c-1.821 0-3.568.723-4.856 2.011s-2.011 3.034-2.011 4.856h0c0 1.821.723 3.568 2.011 4.856s3.034 2.011 4.856 2.011z" class="B"/><g class="C"><path d="M424.092 203.7h107.9a6.88 6.88 0 0 0 6.867-6.867h0a6.88 6.88 0 0 0-6.867-6.867h-107.9c-1.821 0-3.568.723-4.856 2.011s-2.011 3.034-2.011 4.856h0c0 1.821.723 3.568 2.011 4.856s3.034 2.011 4.856 2.011z"/><path d="M515.307 203.691h13.747V363.54h-13.747zm-88.231.027h13.747V363.54h-13.747z"/></g><path d="M427.076 203.718h6.88V363.54h-6.88z" class="B"/><path d="M121.672 203.718h13.747V363.54h-13.747z" class="C"/><path d="M209.917 203.691h13.721V363.54h-13.721zm-88.245.027h6.88V363.54h-6.88zm407.382-.014v4.4l-13.734 9.814v-14.214zm-101.978 0h13.734v4.4l-13.734 9.814z" class="B"/><path d="M209.917 203.704h13.734v4.4l-13.734 9.814z" fill="url(#N)"/><path d="M135.406 203.704v4.4l-13.734 9.814v-14.214z" class="B"/><path d="M448.397 149.075H321.47l9.334-82.618h126.913z" fill="#55a4ff" opacity=".3"/><path d="M333.964 72.404l-1.347 11.921-9.334 82.6H450.21l9.334-82.6 1.333-11.921z" opacity=".4" class="C"/><path d="M448.397 165.116H321.47l9.334-82.618h126.913z" opacity=".6" fill="url(#O)"/><path d="M445.373 160.422h-119.81l4.507-40h119.82z" fill="#fff"/><path d="M363.11 155.742h-34.2l3.667-32.482h34.2z" class="N"/><path d="M373.633 143.208h-27.522l2.96-26.135h27.508z" fill="#164dd6" opacity=".7"/><path d="M357.054 115.006h-26.37l.987-8.72h26.375z" class="K"/><path d="M347.578 108.979h-12.707l.147-1.213h12.707z" fill="url(#P)"/><path d="M445.663 136.327h-34.188l2.067-18.374h34.2z" class="N"/><path d="M445.197 140.487h-34.2l.16-1.32h34.189zm-.307 2.721h-34.2l.16-1.32h34.188z" fill="#33333d"/><path d="M388.207 111.939h-26.375l.987-8.72h26.375z" class="K"/><path d="M457.864 115.006h-57.51l.987-8.72h57.51z" fill="#51cc93"/><path d="M425.115 108.979h-21.948l.147-1.213h21.935zm-.253 2.28h-21.948l.133-1.213h21.948z" class="K"/><path d="M444.063 100.938H324.257l1.36-12.027h119.807z" fill="#fff"/><use xlink:href="#V" fill="#84deae"/><g class="N"><use xlink:href="#V" x="-12.481"/><use xlink:href="#V" x="-24.974"/><path d="M357.352 92.672h-28.655l.187-1.68h28.655zm-.334 2.986H328.35l.2-1.68h28.655zm-16.294 2.987h-12.707l.187-1.68h12.707zm64.711 49.642h-34.189l2.067-18.361h34.189z"/></g><path d="M404.968 152.448h-34.2l.147-1.32h34.2zm-.307 2.724h-34.2l.147-1.307h34.2z" fill="#33333d"/><path d="M404.394 138.581h-13.107l1.293-11.441h13.107z" fill="#164dd6" opacity=".7"/><path d="M457.718 82.497H330.804l1.347-11.907h126.913z" fill="#d3d3d3"/><path d="M455.65 80.005H333.43l.44-3.934h122.233z" fill="#f2f2f2"/><path d="M336.057 74.751h-2.04l.24-2.04h2.04zm3.64 0h-2.04l.227-2.04h2.04zm3.627 0h-2.04l.227-2.04h2.053z" class="K"/><path d="M343.818 177.623L324.257 71.991h136.621l-95.912 105.632z" fill="url(#Q)"/><path d="M360.312 179.783h-12.707c-6.831-.001-13.218 3.381-17.057 9.031l-.784 1.156h48.4l-.787-1.16c-3.841-5.651-10.232-9.032-17.065-9.027z" class="J"/><path d="M361.819 181.37c0 .413-3.52.747-7.854.747s-7.854-.333-7.854-.747 3.52-.747 7.854-.747 7.854.333 7.854.747z" opacity=".4" fill="url(#R)"/><path d="M278.574 347.939c.827 1.333.92 3.56 6.04 5.467s15.788 2.413 9.974 4.6c-4.431 1.645-9.205 2.145-13.881 1.453-3.507-.36-5.574.187-9.694.36-5.414.24-5.48-.08-5.04-6.014.614-8.16 9.934-10.333 12.601-5.866z" fill="#231a66"/><g class="J"><path d="M266.587 347.765c8.84-30.348 12.947-87.125 28.175-109.339 9.681-14.094 28.482-8.534 21.521 10.374-7.454 20.2-26.321 57.936-36.9 98.192-1.035 3.987-13.809 4.334-12.796.773z"/><path d="M310.909 255.84c8.094-2.987 15.094-30.668-14.667-26.921-13.214 1.653-59.9 5.187-66.937 6.04s-17.334 2.573-18.4 6.174c-5.614 17.988 16.228 34.162 42.509 28.282 17.493-3.934 40.668-7.388 57.495-13.575z"/></g><path d="M231.345 187.024c-4.32 3.293-8.947 3.227-21.628 4.747-18.254 2.187-22.735 1.533-34.349-1.12-7.574-1.733-1.613-18.268 8.88-18.668 8.867-.387 39.749 8.96 45.149 8.707 3.575-.227 5.508 3.667 1.948 6.334z" fill="url(#S)"/><path d="M172.795 182.143c.787-4.174 4-13.187 17.108-32.348a149.34 149.34 0 0 1 15.214-19.348c5.24-5.76 13.041-3.8 14.867-.133 2.92 5.907 2.893 15.894.32 19.081-14.467 18-26.668 30.948-29.428 35.922-3.973 7.226-19.011 1.773-18.081-3.174z" class="G"/><path d="M301.388 350.539c.827 1.333 4.6 4.48 9.72 6.387s15.788 2.413 9.987 4.6-12.747 1.333-16.268 1a73 73 0 0 0-11-.107c-5.427.24-5.48-.08-5.04-6.014.614-8.16 9.935-10.333 12.601-5.866z" fill="#231a66"/><g class="O"><path d="M216.491 97.312c1.093 10.974 1.413 13.334 6.214 17.894s12.281 5.147 17.481 5.147c5.614 0 9.334-6.774 10.587-11.414 2.027-8.467 2.398-17.247 1.093-25.855-.8-6.094-8.307-13.481-16.068-13.481s-21.987.908-19.307 27.709z"/><path d="M222.078 116.647c-.293 3.8-.573 8.174-.707 12.174-.139 5.376 3.814 9.985 9.149 10.667.2.012.4.012.6 0 4.734 0 10.307-4.294 9.894-9.04-.28-3.08-.373-6.187-.387-8.921a12.36 12.36 0 0 0-8.227-11.574h0a7.76 7.76 0 0 0-10.321 6.694z"/></g><path d="M200.117 163.542c8.814 28.948 11.707 46.256 9.974 66.484h66.324s-.387-49.216-4.827-83.231a25.48 25.48 0 0 0-14.01-19.508c-4.987-2.667-14.014-3.907-17.681-3.907h-12.258a46.67 46.67 0 0 0-12.934 1.6c-18.081 5.547-19.682 21.788-14.588 38.562z" class="G"/><path d="M210.37 270.602s-5.734-13.921-.28-40.576h66.322a378.34 378.34 0 0 1 2.413 40.576z" class="L"/><g class="J"><path d="M289.295 350.899c11.281-29.522 20-85.778 37.015-106.672 10.8-13.254 29.082-6.174 20.588 12.107-9.067 19.534-30.962 55.59-44.789 94.845-1.36 3.893-14.094 3.187-12.814-.28z"/><path d="M340.911 262.907c8.307-2.32 17.548-29.335-12.427-28-13.334.573-60.123.267-67.19.56s-17.441 1.133-18.854 4.627c-7.067 17.481 13.334 35.389 40 31.668 17.882-2.508 41.257-4.068 58.471-8.855z"/></g><path d="M248.972 95.005c-1.547 3.8-1.187 7.534.8 8.347s4.854-1.613 6.4-5.4 1.2-7.534-.787-8.347-4.853 1.6-6.413 5.4zm-28.574 0c1.56 3.8 1.2 7.534-.787 8.347s-4.854-1.613-6.4-5.4-1.2-7.534.787-8.347 4.906 1.6 6.4 5.4z" class="O"/><path d="M219.864 75.697c4.267 6.374 24.921 6.974 31.668 4.614s6.267-15.374-3.374-16.268c-5.427 0-1.493 1.333-5.894 3.08-2.226.89-26.96 1.76-22.4 8.574z" fill="#21283a"/><path d="M339.378 141.781c2.76-1.733 26.388-16.721 26.108-10.854-.307 6.507-8.414 13.507-11.347 15.508-5.334 3.654-11.147 4.84-13.334 1.96-1.574-2.041-4.054-4.974-1.427-6.614z" class="O"/><path d="M344.044 140.537c-5 1.093-35.122 10.161-44.549 14.907-5.44-2.987-17.214-15.134-36.362-26.668-7.107-4.267-13.587-2.827-19.361.373-3.574 1.973-5.174 9.854.813 14.841a149.34 149.34 0 0 0 20 14.307c19.734 12.241 28.895 15.027 33.1 15.628.173.02.347.02.52 0h.16a2.2 2.2 0 0 0 .427-.093 4.62 4.62 0 0 0 .813-.16c11.399-3.95 22.342-9.109 32.642-15.388 12.121-7.134 13.414-6.494 15.868-11.254a4.24 4.24 0 0 0-4.067-6.494z" class="G"/><path d="M243.105 74.59c6.347 3.84 7.827 7.2 7.654 15.067s-3.547 21.335-18.014 24.268-17.894-11.361-18.774-21.334-.307-17.334 7.014-19.094c10.866-2.587 18.267-1.24 22.12 1.093z" fill="#21283a"/><path d="M295.789 355.285c-2.281-.003-4.246-1.606-4.707-3.84h-82.015a4.8 4.8 0 0 1-9.507-.96c.03-4.769 3.912-8.615 8.681-8.6h83.751c4.772.001 8.64 3.869 8.64 8.641a4.8 4.8 0 0 1-4.84 4.76zm24.348-84.751h-25.335c-13.334 0-21.868-7.054-23.908-19.881-2.493-15.708-7.134-67.084-7.187-67.59-.143-1.739-1.038-3.328-2.449-4.353s-3.2-1.383-4.898-.981h-76.231a7.63 7.63 0 0 0-6.147 7.907c.187 2.133 4.72 52.323 7.294 68.457 2.973 18.668 16.388 29.908 35.869 29.908H318.71c3.814-.09 6.986-2.961 7.454-6.747a5.95 5.95 0 0 0-1.469-4.745c-1.158-1.292-2.823-2.013-4.558-1.975zm-81.432 13.481h22.668v9.734c0 .495-.197.97-.547 1.32s-.825.547-1.32.547h-18.921c-.495 0-.97-.197-1.32-.547s-.547-.825-.547-1.32v-9.734z" class="E"/><path d="M242.452 295.616h15.254v45.189h-15.254z" class="B"/><g class="F"><path d="M241.665 332.551h16.828a1.84 1.84 0 0 1 1.84 1.84v12.241h-20.508v-12.241a1.84 1.84 0 0 1 1.84-1.84z"/><path d="M270.56 355.285c-2.28-.004-4.246-1.607-4.707-3.84h-31.561a4.8 4.8 0 0 1-9.494-.96 8.64 8.64 0 0 1 8.64-8.6h33.34c4.769.007 8.633 3.871 8.641 8.64a4.8 4.8 0 0 1-4.854 4.76z"/><use xlink:href="#W"/></g><use xlink:href="#X" class="E"/><use xlink:href="#Y" class="F"/><use xlink:href="#W" x="37.775" class="E"/><use xlink:href="#W" x="-25.228" class="F"/><use xlink:href="#Y" x="-69.39" class="E"/><use xlink:href="#X" x="69.391" class="F"/><use xlink:href="#Y" x="22.041" class="E"/><path d="M257.706 301.016l-15.254-4.267v-1.133h15.254z" fill="#cecece"/><path d="M261.44 289.402l-22.734-4.254v-1.133h22.734zm57.27-5.386h-25.335c-19.481 0-32.9-11.187-35.869-29.908-2.573-16.134-7.107-66.324-7.294-68.457a7.63 7.63 0 0 1 6.147-7.907 5.99 5.99 0 0 1 4.898.981c1.412 1.025 2.306 2.615 2.449 4.353 0 .507 4.694 51.883 7.187 67.59 2.04 12.827 10.534 19.881 23.908 19.881h25.335c1.737-.039 3.405.684 4.564 1.979s1.694 3.032 1.463 4.755c-.475 3.78-3.644 6.643-7.453 6.733z" class="F"/><g class="C"><use xlink:href="#Z"/><path d="M78.004 45.31a1.16 1.16 0 0 1-1.147-1.16V2.574a1.16 1.16 0 0 1 2.307 0V44.15a1.16 1.16 0 0 1-1.16 1.16zm230.506 0a1.15 1.15 0 0 1-.816-.341 1.14 1.14 0 0 1-.331-.819V2.574a1.16 1.16 0 0 1 2.307 0V44.15a1.16 1.16 0 0 1-1.16 1.16z"/><path d="M354.697 12.015H30.601l2.362-5.014h324.082z"/><use xlink:href="#Z" y="13.854"/><use xlink:href="#Z" y="20.788"/><path d="M354.697 32.803H30.601l2.362-5.014h324.082z"/><use xlink:href="#Z" y="34.642"/><use xlink:href="#Z" y="41.576"/></g></svg>