<svg xmlns="http://www.w3.org/2000/svg" xmlns:xlink="http://www.w3.org/1999/xlink" width="491.638" height="395.905" viewBox="0 0 491.638 395.905"><defs><clipPath id="a"><path d="M142.82,342.64S62.29,308.86,64.16,240.7s77.41-89.57,129.22-47.49,101.76,29.63,128.6-5.93,44.74-113.5,119.87-83.48c56,22.37,93.62,82.45,105.76,136.59,8.35,37.21-3.75,76.52-32.93,101.07-.95.8-1.92,1.59-2.92,2.36Z" fill="none"/></clipPath></defs><g transform="translate(-64.128 -2.169)"><path d="M142.82,342.64S62.29,308.86,64.16,240.7s77.41-78.82,129.22-36.7S295.14,233.59,322,198s44.72-124.22,119.85-94.2c56,22.37,93.62,82.45,105.76,136.59,8.35,37.21-3.75,76.52-32.93,101.07-.95.8-1.92,1.59-2.92,2.36Z" fill="#0050c8"/><g clip-path="url(#a)"><path d="M224.77,196.31s-17.65,146.74,92.57,66.5C407.8,197,536,204.42,538.68,363c0,0,46.37,2,42.26-78.21S539.76,21.32,432.7,41.9,224.77,196.31,224.77,196.31Z" fill="#3f71e2"/></g><path d="M243.19,73.86l97.67.41a22.52,22.52,0,0,1,22.37,24.1l-15.85,225A22.18,22.18,0,0,1,325.26,344H226a22.17,22.17,0,0,1-22.11-23.82L220.64,94.71a22.51,22.51,0,0,1,22.55-20.85Z" fill="#f1f2ff"/><path d="M243.19,73.86l97.67.41a22.52,22.52,0,0,1,22.37,24.1l-15.85,225A22.18,22.18,0,0,1,325.26,344H226a22.17,22.17,0,0,1-22.11-23.82L220.64,94.71a22.51,22.51,0,0,1,22.55-20.85Z" fill="#99c1f9"/><path d="M232.21,73.86l97.68.41a22.52,22.52,0,0,1,22.37,24.1l-15.86,225A22.18,22.18,0,0,1,314.28,344H215a22.17,22.17,0,0,1-22.11-23.82L209.66,94.71a22.53,22.53,0,0,1,22.55-20.85Z" fill="#d8e7fc"/><path d="M224.83,94.46H336.52L323.09,309.04l-112.12.84Z" fill="#fff"/><path d="M262.07,336.81a11.09,11.09,0,1,1,11.09-11.09A11.09,11.09,0,0,1,262.07,336.81Zm0-20.62a9.53,9.53,0,1,0,9.53,9.53,9.53,9.53,0,0,0-9.53-9.53Z" fill="#99c1f9"/><path d="M290.92,86.52H272.19a1.9,1.9,0,0,1-1.9-1.9h0a1.9,1.9,0,0,1,1.9-1.9h18.73a1.9,1.9,0,0,1,1.9,1.9h0a1.9,1.9,0,0,1-1.9,1.9Z" fill="#99c1f9"/><path d="M322.83,149.77H232.17a4.13,4.13,0,0,1-4.13-4.33l1.22-24.59a4.12,4.12,0,0,1,4.12-3.92h90.67a4.12,4.12,0,0,1,4.12,4.33L327,145.85A4.11,4.11,0,0,1,322.83,149.77Z" fill="#d8e7fc"/><path d="M297.81,149.85h25a4.11,4.11,0,0,0,4.11-3.9l1.23-24.71a4.1,4.1,0,0,0-4.1-4.31h-25a4.1,4.1,0,0,0-4.1,3.9l-1.24,24.71a4.11,4.11,0,0,0,4.1,4.31Z" fill="#99c1f9"/><path d="M289.37,125.28H237.8a.62.62,0,1,1,0-1.23h51.57a.62.62,0,1,1,0,1.23Z" fill="#eef4fd"/><path d="M289,133.51H237.39a.62.62,0,0,1-.62-.62.61.61,0,0,1,.62-.61H289a.61.61,0,0,1,.62.61.62.62,0,0,1-.62.62Z" fill="#eef4fd"/><path d="M262.46,141.74H237a.615.615,0,0,1,0-1.23h25.48a.61.61,0,0,1,.62.61.62.62,0,0,1-.64.62Z" fill="#eef4fd"/><path d="M319.62,196.26H229a4.13,4.13,0,0,1-4.13-4.33l1.22-24.59a4.12,4.12,0,0,1,4.12-3.92h90.67a4.12,4.12,0,0,1,4.12,4.33l-1.22,24.59a4.11,4.11,0,0,1-4.16,3.92Z" fill="#d8e7fc"/><path d="M294.61,196.34h25a4.11,4.11,0,0,0,4.1-3.9L325,167.73a4.1,4.1,0,0,0-4.1-4.31h-25a4.1,4.1,0,0,0-4.1,3.9L290.51,192a4.1,4.1,0,0,0,4.1,4.34Z" fill="#99c1f9"/><path d="M286.16,171.77H234.59a.62.62,0,1,1,0-1.23h51.57a.62.62,0,1,1,0,1.23Z" fill="#eef4fd"/><path d="M285.75,180H234.18a.62.62,0,0,1-.62-.62.61.61,0,0,1,.62-.61h51.57a.61.61,0,0,1,.62.61.62.62,0,0,1-.62.62Z" fill="#eef4fd"/><path d="M259.25,188.23H233.77a.62.62,0,1,1,0-1.24h25.48a.62.62,0,0,1,0,1.24Z" fill="#eef4fd"/><path d="M319.82,134.22a10.27,10.27,0,1,1-2.484-7.483A10.27,10.27,0,0,1,319.82,134.22Z" fill="#fff"/><path d="M307.74,137.46a.89.89,0,0,1-.58-.26l-3.45-3.39A.92.92,0,0,1,305,132.5l2.86,2.81,6.58-5.3a.921.921,0,0,1,1.15,1.44l-7.21,5.81a.91.91,0,0,1-.64.2Z" fill="#eef4fd"/><path d="M317.41,180.71a10.28,10.28,0,1,1-2.487-7.48,10.27,10.27,0,0,1,2.487,7.48Z" fill="#fff"/><path d="M305.33,184a.91.91,0,0,1-.59-.26l-3.44-3.39a.92.92,0,0,1,0-1.3.93.93,0,0,1,1.31,0l2.86,2.82,6.58-5.3a.921.921,0,0,1,1.15,1.44l-7.2,5.74a.91.91,0,0,1-.67.25Z" fill="#eef4fd"/><path d="M105.83,263.93s-1.31-2.05-4.71-15.74S88.83,221.43,75,226.29s-9.88,21-3,47.06c4.87,18.61-15,33,11.19,47.51,15.89,8.76,43.48-3,38.06-29.5a35.89,35.89,0,0,0-6.72-14.81,98.558,98.558,0,0,1-8.7-12.62Z" fill="#83b9fd"/><path d="M94.87,345.62a.59.59,0,0,1-.46-.68c6.3-40.31-10.91-94.47-11.09-95a.6.6,0,0,1,1.14-.37c.18.55,17.47,55,11.12,95.57a.6.6,0,0,1-.68.5Z" fill="#4b8dd9"/><path d="M89.32,271.21h-.1a.6.6,0,0,1-.33-.78A79.58,79.58,0,0,0,93,257.06a.58.58,0,0,1,.69-.48.59.59,0,0,1,.48.69A81.23,81.23,0,0,1,90,270.85a.6.6,0,0,1-.68.36Z" fill="#4b8dd9"/><path d="M91.74,283.27a.7.7,0,0,1-.23-.11c-3.08-2.38-10.77-6.81-10.85-6.85a.61.61,0,0,1-.22-.82.6.6,0,0,1,.82-.22c.32.18,7.84,4.51,11,6.94a.6.6,0,0,1,.1.84.59.59,0,0,1-.62.22Z" fill="#4b8dd9"/><path d="M93.81,295h-.12a.6.6,0,0,1-.29-.8l3.94-8.43a.6.6,0,1,1,1.08.5l-3.94,8.44A.59.59,0,0,1,93.81,295Z" fill="#4b8dd9"/><path d="M89.68,130.27l76.71.35A59.793,59.793,0,0,0,162,126c-3-2.6-6.49-7.2-17.58-3.81a25.768,25.768,0,0,0-2.53,1c-1,.42-4,.43-7.11-2-4.92-3.91-6.85-6.86-13.61-7-7.85-.11-9.09,9.68-15.19,12.19-3.89,1.6-14.14,3.18-16.27,3.89" fill="#d7e7fc"/><path d="M316.23,16.55a53.766,53.766,0,0,1,3.87-4c2.65-2.28,5.69-6.31,15.41-3.34a22.061,22.061,0,0,1,2.22.85c.85.36,3.51.37,6.23-1.79,4.32-3.43,6-6,11.93-6.1,6.88-.09,8,8.49,13.32,10.69,3.41,1.4,12.39,2.79,14.25,3.41Z" fill="#d7e7fc"/><path d="M435.89,62.63a94.867,94.867,0,0,1,6.8-7.08c4.66-4,10-11.08,27.07-5.86a39.829,39.829,0,0,1,3.89,1.48c1.5.64,6.16.66,10.94-3.13,7.58-6,10.55-10.57,21-10.72,12.09-.16,14,14.92,23.39,18.78,6,2.45,21.77,4.89,25,6Z" fill="#d7e7fc"/><path d="M188.8,72.23a15.17,15.17,0,0,0-11.68-24.89H144.19a15.2,15.2,0,0,0,0,30.4h32.93a15,15,0,0,0,6.78-1.63l7.61,4.18Z" fill="#3f71e2"/><path d="M168.71,62.54A3.31,3.31,0,1,0,172,59.23,3.31,3.31,0,0,0,168.71,62.54Z" fill="#fff"/><path d="M157.35,62.54a3.31,3.31,0,1,0,3.31-3.31A3.31,3.31,0,0,0,157.35,62.54Z" fill="#fff"/><path d="M146,62.54a3.31,3.31,0,1,0,3.31-3.31A3.31,3.31,0,0,0,146,62.54Z" fill="#fff"/><path d="M466.11,306.88c-1.05.06-27.44-3.11-28.64-27.66s15.62-30.62,11.19-58-16-35.18,10-55.13c0,0,11.6-8,12.15-19.29.64-13.49,23.92-29.14,39.54-20.14s11.94,22.89-1.43,45.38-.48,26.42,2.08,33.69,8.53,14.9-5.11,32.28,2.61,38.59-9,55.23C496.87,293.29,486.68,305.61,466.11,306.88Z" fill="#5ed291"/><path d="M470.23,344.5a1.1,1.1,0,0,0,.82-1.28c-14.18-74.93,14.73-177.11,15-178.14a1.113,1.113,0,1,0-2.14-.61c-.3,1-29.35,103.72-15.07,179.16a1.12,1.12,0,0,0,1.3.89Z" fill="#e2e2e2"/><path d="M476.15,205.19a.641.641,0,0,0,.18-.06,1.12,1.12,0,0,0,.57-1.47c-.06-.14-6-13.38-8.37-24.68a1.114,1.114,0,1,0-2.18.46c2.46,11.54,8.45,25,8.51,25.13a1.11,1.11,0,0,0,1.29.62Z" fill="#e2e2e2"/><path d="M472.34,227.86a1.1,1.1,0,0,0,.43-.22c5.61-4.64,19.7-13.36,19.84-13.45a1.111,1.111,0,1,0-1.17-1.89c-.58.36-14.36,8.89-20.09,13.62a1.12,1.12,0,0,0-.15,1.57,1.14,1.14,0,0,0,1.14.37Z" fill="#e2e2e2"/><path d="M469.17,249.93a.92.92,0,0,0,.23-.09,1.11,1.11,0,0,0,.5-1.49L462,232.83a1.12,1.12,0,1,0-2,1l7.86,15.51A1.1,1.1,0,0,0,469.17,249.93Z" fill="#e2e2e2"/><path d="M529.47,316.58c-1,.76-9.82-15.24-11.88-35.59,0,0-1-10,8.5-4.91,0,0-9.82-43.76,16.35-40.49,4.51.56,7.08,1.57,9.68,4.42,3.51,3.85,5.45,10.08,1.3,19-8.3,17.9-15.59,24.85-12,34.33S543.76,305.56,529.47,316.58Z" fill="#83b9fd"/><path d="M532,345.06a1,1,0,0,0,.75-1.13c-6-29.41,2.65-79,3.75-81.13a.94.94,0,0,0-.23-1.32,1,1,0,0,0-1.36.25c-1.79,2.49-9.89,54-4,82.58a.94.94,0,0,0,1.09.75Z" fill="#4b8dd9"/><path d="M374.39,251.14l-3.45,13.71,41.42,2.22-1.4-17.19Z" fill="#3f71e2"/><path d="M391.41,260.07l-12.05,40.7.24,61.5-14.71.3-2.85-62.73,9.85-38.69Z" fill="#3f71e2"/><path d="M389.69,265.86l-9.55-.91,7.01,9.48Z" fill="#3f71e2" opacity="0.44"/><path d="M412.27,264.28l2.78,38.19,11.64,63.04-14.55,2.99-14.06-64.31-4.85-44.05Z" fill="#3f71e2"/><path d="M369.08,362.39l8-.06.21,11.48-22.77.15h0a4.05,4.05,0,0,1,3.13-3.65l11.28-2.76Z" fill="#ccd9f8"/><rect width="22.77" height="1.77" transform="translate(354.542 373.942) rotate(-0.38)" fill="#99c1f9"/><path d="M374.68,367.13a1.75,1.75,0,1,1-1.76-1.73,1.75,1.75,0,0,1,1.76,1.73Z" fill="#fff"/><path d="M416.35,366.91l7.94-1.06,1.64,11.36-22.57,3h0a4,4,0,0,1,2.65-4l10.84-4.14Z" fill="#ccd9f8"/><rect width="22.77" height="1.77" transform="translate(403.36 380.188) rotate(-7.55)" fill="#99c1f9"/><path d="M422.5,370.92a1.76,1.76,0,1,1-.684-1.173,1.75,1.75,0,0,1,.684,1.173Z" fill="#fff"/><path d="M357.65,230a4.282,4.282,0,0,1-.49,0l-37.4-5.56,1.82-12.22,33.51,5a260.265,260.265,0,0,1,16.85-22c-.08.15.37.54,0,0l11.78,1.22c.53,3-2.06,3-20.49,30.84a6.17,6.17,0,0,1-5.58,2.72Z" fill="#ccd9f8"/><path d="M392.85,192l1.21.2A13.49,13.49,0,0,1,405,202.33l8.56,48.76c-18.2,9.92-41.23.1-41.23.1l-4.42-45.47a11.86,11.86,0,0,1,6.52-12.1h0Z" fill="#ccd9f8"/><path d="M388.74,196.34l-10.25-.85,1.67-23.27,10.25.86Z" fill="#ebb28b"/><path d="M376,193.47l15.66-1.37s-.12,9.15-9.56,9C373.45,201,376,193.47,376,193.47Z" fill="#ebb28b"/><path d="M320.36,218.26a6.64,6.64,0,1,1-5.44-7.66,6.64,6.64,0,0,1,5.44,7.66Z" fill="#fff"/><path d="M324,222.25l-6.81-1.16a3.29,3.29,0,0,1-2.69-3.78h0a3.29,3.29,0,0,1,3.78-2.69l6.82,1.16a3.27,3.27,0,0,1,2.68,3.78h0a3.29,3.29,0,0,1-3.78,2.69Z" fill="#fff"/><circle cx="19.1" cy="19.1" r="19.1" transform="translate(294.833 231.475) rotate(-64)" fill="#f4be46"/><path d="M317,230a1.69,1.69,0,0,1-1.08-.49l-6.42-6.31a1.715,1.715,0,1,1,2.41-2.44l5.32,5.23,12.24-9.85a1.714,1.714,0,0,1,2.15,2.67l-13.43,10.81A1.69,1.69,0,0,1,317,230Z" fill="#fae2a3"/><path d="M376.64,187.89h0a12.63,12.63,0,0,1-11.74-13.47l1.1-15.67,25.22,1.74-1.09,15.67a12.62,12.62,0,0,1-13.49,11.73Z" fill="#f0bc99"/><path d="M390.28,172l-3.6-.18a1.56,1.56,0,0,1-1.44-1.93c.63-2.57,1.45-7-.21-7.63-2.36-.91-15.41,1.68-19.59-1.92-5.9-5.06-1-12.31,4.58-12.3s4.38,6.41,10.88,6.67,16.49-1.65,11.22,15.29Z" fill="#21283a"/><path d="M394.67,173a4,4,0,1,1-3.68-4.23A4,4,0,0,1,394.67,173Z" fill="#f0bc99"/><path d="M345.41,234.6a6.65,6.65,0,1,1-6.17-7.08,6.65,6.65,0,0,1,6.17,7.08Z" fill="#f0af74"/><path d="M349.43,238.21l-6.89-.48a3.29,3.29,0,0,1-3.05-3.5h0a3.3,3.3,0,0,1,3.5-3l6.9.48a3.29,3.29,0,0,1,3,3.5h0a3.29,3.29,0,0,1-3.46,3Z" fill="#f0af74"/><path d="M345.67,240.7V228.34h34.06l11.71-27.78a6.17,6.17,0,0,1,8.18-3.05h0a6.17,6.17,0,0,1,3.06,8.18l-13.36,31.4a6.19,6.19,0,0,1-5.63,3.62Z" fill="#ccd9f8"/><rect width="18.44" height="6.43" transform="translate(362.99 356.15)" fill="#0050c8"/><rect width="18.44" height="6.43" transform="translate(409.331 362.944) rotate(-11.09)" fill="#0050c8"/><path d="M371.3,240.74h11a8.44,8.44,0,0,0,7.12-4.88l12.23-27.67c-4.74,16.14-11,32.58-11,32.58a5.14,5.14,0,0,1-5,3.38l-14.08-.56Z" fill="#ccd9f8"/><rect width="90.09" height="29.91" rx="1.93" transform="translate(214.309 243.139) rotate(-7.55)" fill="#99c1f9"/><rect width="90.09" height="29.91" rx="1.93" transform="translate(208.502 233.347) rotate(-7.55)" fill="#d8e7fc"/><path d="M217.31,239.85a.57.57,0,0,1-.56-.49.56.56,0,0,1,.48-.63l46.56-6.18a.54.54,0,0,1,.63.49.56.56,0,0,1-.48.63l-46.56,6.17Z" fill="#eef4fd"/><path d="M218.29,247.27a.56.56,0,0,1-.07-1.11L264.77,240a.54.54,0,0,1,.63.48.55.55,0,0,1-.48.63l-46.55,6.18Z" fill="#eef4fd"/><path d="M219.28,254.7a.57.57,0,0,1-.56-.49.56.56,0,0,1,.48-.63l23-3.08a.54.54,0,0,1,.63.48.56.56,0,0,1-.48.63l-23,3.08Z" fill="#eef4fd"/><path d="M185.76,355l-7.3-.55-1.07,12,20.78,1.64.12-1.61a3.73,3.73,0,0,0-2.63-3.53l-10.1-3.22Z" fill="#ccd9f8"/><path d="M91.28,350.63l-.72-7.28-12,1,2,20.74,1.61-.16a3.7,3.7,0,0,0,3-3.2l1.42-10.5Z" fill="#ccd9f8"/><path d="M121.37,296.37,134.59,339l-46.12,2.75,1.37,11,56.24-1.89c5-.16,8.78-4,7.76-9.79l-3.15-31.67,29.73-.46-5.14,47,12.81.45,12.56-52.83a10.47,10.47,0,0,0-9.93-12.89l-30.25-.75Z" fill="#3f71e2"/><path d="M140.35,246.64l11.37,2.41,4.82-24.12-11.26-2.36Z" fill="#ebb28b"/><path d="M149.28,237.52h0a11.76,11.76,0,0,0,13.93-9.11l3-14.32-23-4.82-3,14.32a11.76,11.76,0,0,0,9.07,13.93Z" fill="#f0bc99"/><path d="M157.78,220.28l-2.2,10.53a7.58,7.58,0,0,1-8.79,6.11l-2.08-.44c-6.94-1.45-11.32-8.59-9.78-15.94l2-9.52,21.65,4.54Z" fill="#21283a"/><path d="M157,218.73a47.747,47.747,0,0,0,8.81,1.48c4.45.06,7.2-5,4.43-8.51a5.474,5.474,0,0,0-.4-.46c-3.38-3.69-9.3-1.85-9.27-1.48S157,218.73,157,218.73Z" fill="#21283a"/><path d="M164,212.63s-6.62-9.72-18.07-6.86c0,0-4.39-.23-9,5.25l19.26,9.17Z" fill="#21283a"/><path d="M153.06,224.94a3.44,3.44,0,1,0,1.485-2.183A3.44,3.44,0,0,0,153.06,224.94Z" fill="#f0bc99"/><path d="M148,204.35a11.12,11.12,0,1,1-1.579-8.372A11.13,11.13,0,0,1,148,204.35Z" fill="#21283a"/><path d="M160.78,289.53c-4.24-6.9-2.22-22.84-.48-32.4a11.65,11.65,0,0,0-5.33-12h0l-13.17-3.9c-3.26-1.13-7.53,2.66-9.86,5.22-20.77,22.82-12.77,51.89-12.77,51.89a64.16,64.16,0,0,0,20.55,1.06h.44A36,36,0,0,0,160.78,289.53Z" fill="#ccd9f8"/><path d="M210.26,252.2a7.12,7.12,0,1,0,1.6-9.94A7.12,7.12,0,0,0,210.26,252.2Z" fill="#f0bc99"/><path d="M208.65,257.76l6-4.34a3.52,3.52,0,0,0,.78-4.91h0a3.53,3.53,0,0,0-4.91-.79l-6,4.34a3.53,3.53,0,0,0-.79,4.91h0a3.53,3.53,0,0,0,4.92.79Z" fill="#f0bc99"/><path d="M213.48,257.89l-7-11.23L175.53,266l-19.41-19.77a6.62,6.62,0,0,0-9.17,1.86h0a6.63,6.63,0,0,0,1.85,9.18l23,22.12a6.65,6.65,0,0,0,7.17.1Z" fill="#ccd9f8"/><path d="M150.69,309.37l12.47-7-.67,3.24,17.93,3.3Z" fill="#3f71e2" opacity="0.44"/><path d="M425.49,132.57l-1-3-1,3a10.29,10.29,0,0,1-5.73,5.83h0a10.31,10.31,0,0,1,5.73,5.84l1,2.95,1-2.95a10.31,10.31,0,0,1,5.73-5.84h0A10.29,10.29,0,0,1,425.49,132.57Z" fill="#fff"/><path d="M116.11,218.33l-.68-2-.68,2a6.85,6.85,0,0,1-3.78,3.85h0a6.85,6.85,0,0,1,3.78,3.85l.68,1.95.68-1.95a6.82,6.82,0,0,1,3.78-3.85h0a6.82,6.82,0,0,1-3.78-3.85Z" fill="#fff"/><path d="M217.56,390.28l2.52,4.86,28.91.74,5.89-16.12-2.44-4.69Z" fill="#b2bad9"/><path d="M224,397.07l25.25,1c2.21.08,4.06-.89,4.21-2.22l1.67-15c.16-1.42-1.69-2.69-4.06-2.78l-25.25-1c-2.21-.09-4.06.89-4.21,2.22l-1.67,15C219.76,395.71,221.61,397,224,397.07Z" fill="#99c1f9"/><path d="M221.54,392.36l25.25,1c2.21.09,4.06-.89,4.21-2.22l1.67-15c.16-1.43-1.69-2.7-4.06-2.79l-25.26-1c-2.2-.08-4,.9-4.2,2.22l-1.68,15C217.32,391,219.17,392.27,221.54,392.36Z" fill="#d8e7fc"/></g></svg>