<svg xmlns="http://www.w3.org/2000/svg" width="27.903" height="27.903" viewBox="0 0 27.903 27.903">
  <path id="instagram-square-brands" d="M13.951,42.629a3.322,3.322,0,1,0,3.323,3.323A3.322,3.322,0,0,0,13.951,42.629Zm7.767-2.554a3.363,3.363,0,0,0-1.894-1.894c-1.308-.516-4.422-.4-5.873-.4s-4.562-.12-5.874.4a3.363,3.363,0,0,0-1.894,1.894c-.516,1.308-.4,4.425-.4,5.875s-.115,4.563.4,5.876A3.363,3.363,0,0,0,8.08,53.721c1.308.516,4.422.4,5.874.4s4.562.12,5.873-.4a3.363,3.363,0,0,0,1.894-1.894c.52-1.308.4-4.425.4-5.875s.12-4.563-.4-5.875ZM13.951,51.059a5.1,5.1,0,1,1,3.613-1.494A5.107,5.107,0,0,1,13.951,51.059Zm5.318-9.237a1.185,1.185,0,1,1,.845-.348,1.192,1.192,0,0,1-.845.348ZM24.913,32H2.99A2.99,2.99,0,0,0,0,34.99V56.913A2.99,2.99,0,0,0,2.99,59.9H24.913a2.99,2.99,0,0,0,2.99-2.99V34.99A2.99,2.99,0,0,0,24.913,32ZM23.847,50.062a5.926,5.926,0,0,1-1.61,4.173,5.929,5.929,0,0,1-4.173,1.61c-1.645.093-6.576.093-8.221,0a5.937,5.937,0,0,1-4.173-1.61,5.908,5.908,0,0,1-1.61-4.173c-.093-1.646-.093-6.578,0-8.221a5.907,5.907,0,0,1,1.61-4.173,5.94,5.94,0,0,1,4.173-1.606c1.645-.093,6.576-.093,8.221,0a5.93,5.93,0,0,1,4.173,1.61,5.929,5.929,0,0,1,1.61,4.176C23.94,43.487,23.94,48.415,23.847,50.062Z" transform="translate(0 -32)" fill="#ff5964"/>
</svg>
