<svg xmlns="http://www.w3.org/2000/svg" width="27.903" height="27.903" viewBox="0 0 27.903 27.903">
  <path id="youtube-square-brands" d="M11.634,42.594l5.929,3.37-5.929,3.37ZM27.9,34.99V56.913a2.99,2.99,0,0,1-2.99,2.99H2.99A2.99,2.99,0,0,1,0,56.913V34.99A2.99,2.99,0,0,1,2.99,32H24.913A2.99,2.99,0,0,1,27.9,34.99ZM25.287,45.97a29.928,29.928,0,0,0-.473-5.493,2.843,2.843,0,0,0-2.006-2.018c-1.763-.48-8.857-.48-8.857-.48s-7.094,0-8.857.48a2.843,2.843,0,0,0-2.006,2.018,32.113,32.113,0,0,0,0,10.987A2.8,2.8,0,0,0,5.095,53.45c1.763.473,8.857.473,8.857.473s7.094,0,8.857-.48a2.8,2.8,0,0,0,2.006-1.987,29.836,29.836,0,0,0,.473-5.487Z" transform="translate(0 -32)" fill="#ff5964"/>
</svg>
