<svg xmlns="http://www.w3.org/2000/svg" width="78.997" height="65" viewBox="0 0 78.997 65">
  <path id="icon" d="M1471.684,2599h-74.368a2.247,2.247,0,0,1-2.315-2.167v-41.167h79v41.167A2.247,2.247,0,0,1,1471.684,2599Zm-23.3-28.166a2.377,2.377,0,0,0-1.636.635,2.068,2.068,0,0,0,0,3.063l7.621,7.134-7.621,7.136a2.067,2.067,0,0,0,0,3.063,2.425,2.425,0,0,0,3.272,0l9.257-8.666a2.069,2.069,0,0,0,0-3.064l-9.257-8.666A2.377,2.377,0,0,0,1448.386,2570.833Zm-9.252,0a2.339,2.339,0,0,0-2.076,1.2l-9.257,17.333a2.032,2.032,0,0,0-.14,1.614,2.195,2.195,0,0,0,1.175,1.294,2.439,2.439,0,0,0,1.033.229,2.329,2.329,0,0,0,2.073-1.2l9.257-17.334a2.029,2.029,0,0,0,.14-1.614,2.191,2.191,0,0,0-1.175-1.294A2.449,2.449,0,0,0,1439.134,2570.835Zm-18.521,0a2.38,2.38,0,0,0-1.636.635l-9.257,8.666a2.071,2.071,0,0,0,0,3.064l9.257,8.666a2.426,2.426,0,0,0,3.273,0,2.069,2.069,0,0,0,0-3.063l-7.621-7.136,7.621-7.134a2.07,2.07,0,0,0,0-3.063A2.381,2.381,0,0,0,1420.613,2570.833Zm-13.885-8.667a2.171,2.171,0,1,0,0,4.333h55.544a2.171,2.171,0,1,0,0-4.333ZM1474,2551.333h-79v-15.167a2.247,2.247,0,0,1,2.315-2.167h74.368a2.247,2.247,0,0,1,2.315,2.167v15.166ZM1462.27,2540.5a2.174,2.174,0,1,0,2.31,2.17A2.245,2.245,0,0,0,1462.27,2540.5Zm-9.259,0a2.174,2.174,0,1,0,2.309,2.17A2.246,2.246,0,0,0,1453.01,2540.5Zm-9.25,0a2.174,2.174,0,1,0,2.309,2.17A2.246,2.246,0,0,0,1443.76,2540.5Zm-37.032,0a2.171,2.171,0,1,0,0,4.333h23.144a2.171,2.171,0,1,0,0-4.333Z" transform="translate(-1395.001 -2533.999)" fill="#fff"/>
</svg>
