<svg xmlns="http://www.w3.org/2000/svg" width="40" height="40" enable-background="new 0 0 100 100" viewBox="0 0 100 100"><path d="M50,2.5C23.801,2.5,2.5,23.856,2.5,50.122c2.599,63.179,92.411,63.161,95,0C97.5,23.856,76.199,2.5,50,2.5z M81.413,24.47
		c5.637,6.921,9.078,15.747,9.141,25.356c-1.33-0.296-14.736-3.006-28.247-1.312c-1.084-2.696-2.258-5.398-3.547-8.001
		C73.75,34.375,80.548,25.634,81.413,24.47z M50,9.485c10.323,0,19.739,3.873,26.896,10.265c-0.718,1.037-6.819,9.27-21.259,14.689
		C48.987,22.205,41.619,12.13,40.5,10.628C43.54,9.908,46.728,9.506,50,9.485z M32.752,13.358
		c1.077,1.482,8.339,11.556,15.052,23.536c-18.979,5.037-35.699,4.974-37.514,4.953C12.908,29.232,21.416,18.734,32.752,13.358z
		 M9.424,50.207c0-0.423,0-0.847,0.021-1.249c1.773,0.021,21.449,0.275,41.694-5.799c1.161,2.265,2.28,4.593,3.293,6.9
		c-0.549,0.148-1.077,0.317-1.605,0.487c-20.921,6.773-32.047,25.25-32.975,26.838C13.372,70.187,9.424,60.642,9.424,50.207z
		 M50.021,90.866c-9.373,0-18.029-3.217-24.911-8.593c0.718-1.482,8.951-17.398,31.836-25.399c0.063-0.021,0.169-0.042,0.253-0.085
		c5.7,14.837,8.043,27.261,8.656,30.838C60.999,89.723,55.637,90.866,50.021,90.866z M72.694,83.903
		c-0.443-2.476-2.597-14.371-7.895-28.997c12.709-2.032,23.877,1.291,25.27,1.736C88.253,67.965,81.772,77.722,72.694,83.903z"/></svg>