<svg xmlns="http://www.w3.org/2000/svg" width="72.005" height="65" viewBox="0 0 72.005 65">
  <path id="icon" d="M1027.482,2597.817l-26-11.228c-2.222-.96-3.5-2.452-3.5-4.089s1.274-3.128,3.5-4.089l4.126-1.782,19.9,8.6a23.472,23.472,0,0,0,16.961,0l19.9-8.595,4.127,1.782c2.222.96,3.5,2.451,3.5,4.089s-1.274,3.128-3.5,4.089l-26,11.228a18.5,18.5,0,0,1-13.016,0Zm0-16-26-11.228c-2.222-.96-3.5-2.45-3.5-4.089s1.274-3.128,3.5-4.089l4.127-1.782,19.9,8.6a23.44,23.44,0,0,0,16.96,0l19.9-8.6,4.127,1.782c2.221.96,3.5,2.45,3.5,4.089s-1.274,3.128-3.5,4.089l-26,11.228a18.5,18.5,0,0,1-13.016,0Zm0-16-26-11.228c-2.222-.96-3.5-2.45-3.5-4.088s1.274-3.129,3.5-4.09l26-11.228a18.461,18.461,0,0,1,13.017,0l26,11.228c2.222.96,3.5,2.451,3.5,4.09s-1.275,3.127-3.5,4.088l-26,11.228a18.459,18.459,0,0,1-13.016,0Z" transform="translate(-997.988 -2533.999)" fill="#fff"/>
</svg>
