<svg xmlns="http://www.w3.org/2000/svg" viewBox="0 0 24 24"><path d="M7 12c0 2.8 2.2 5 5 5s5-2.2 5-5-2.2-5-5-5S7 9.2 7 12zM12 9c1.7 0 3 1.3 3 3s-1.3 3-3 3-3-1.3-3-3S10.3 9 12 9zM13 5V3c0-.6-.4-1-1-1s-1 .4-1 1v2c0 .6.4 1 1 1S13 5.6 13 5zM19.1 4.9c-.4-.4-1-.4-1.4 0l-1.4 1.4c-.4.4-.4 1 0 1.4.2.2.5.3.7.3s.5-.1.7-.3l1.4-1.4C19.5 6 19.5 5.3 19.1 4.9zM21 11h-2c-.6 0-1 .4-1 1s.4 1 1 1h2c.6 0 1-.4 1-1S21.6 11 21 11zM17.7 16.2c-.4-.4-1-.4-1.4 0s-.4 1 0 1.4l1.4 1.4c.2.2.5.3.7.3s.5-.1.7-.3c.4-.4.4-1 0-1.4L17.7 16.2zM11 19v2c0 .6.4 1 1 1s1-.4 1-1v-2c0-.6-.4-1-1-1S11 18.4 11 19zM4.9 19.1c.2.2.5.3.7.3s.5-.1.7-.3l1.4-1.4c.4-.4.4-1 0-1.4s-1-.4-1.4 0l-1.4 1.4C4.5 18 4.5 18.7 4.9 19.1zM2 12c0 .6.4 1 1 1h2c.6 0 1-.4 1-1s-.4-1-1-1H3C2.4 11 2 11.4 2 12zM6.3 4.9c-.4-.4-1-.4-1.4 0s-.4 1 0 1.4l1.4 1.4C6.5 8 6.8 8.1 7.1 8.1S7.6 8 7.8 7.8c.4-.4.4-1 0-1.4L6.3 4.9z"/></svg>