<svg xmlns="http://www.w3.org/2000/svg" width="64.99" height="64.99" viewBox="0 0 64.99 64.99">
  <path id="icon" d="M1039.946,2998.994h-33.616v-1.12a3.365,3.365,0,0,1,3.362-3.362h26.892a3.366,3.366,0,0,1,3.362,3.362v1.119Zm-8.277-6.724h-17.061l1.494-4.482h14.073l1.494,4.481Zm18.362-6.722H996.246a2.244,2.244,0,0,1-2.241-2.242v-40.338a2.244,2.244,0,0,1,2.241-2.241H1020.9v4.482h-20.169a2.244,2.244,0,0,0-2.241,2.241v29.133a2.244,2.244,0,0,0,2.241,2.241h44.82a2.244,2.244,0,0,0,2.242-2.241v-8.963h4.482v15.686A2.244,2.244,0,0,1,1050.031,2985.549Zm-11.2-4.479v2.24h2.24v-2.24Zm-4.489,0v2.24h2.239v-2.24Zm-4.48,0v2.24h2.24v-2.24Zm15.688-4.486h-44.82v-29.133H1020.9v16.807a3.366,3.366,0,0,0,3.362,3.362h21.289v8.962Zm-4.478-4.484v2.24h2.24v-2.24Zm-38.1,0v2.24h35.86v-2.24Zm2.24-11.2v6.724h13.446v-11.206h-4.482v-6.722h-11.205v11.2Zm52.664,4.482h-33.616a1.122,1.122,0,0,1-1.121-1.121v-5.6h35.857v5.6A1.122,1.122,0,0,1,1057.874,2965.379Zm-30.254-4.479v2.24h26.89v-2.24Zm-11.2,4.479h-8.964V2960.9h6.723v-2.241h2.241v6.722Zm-4.485-6.729h-6.72v-6.72h6.72v6.719Zm47.065-2.236h-35.857v-21.29a1.122,1.122,0,0,1,1.121-1.12h33.616a1.122,1.122,0,0,1,1.12,1.12v21.289Zm-24.652-19.74h0v17.072l17.073-8.537-17.073-8.535Z" transform="translate(-994.005 -2934.005)" fill="#fff"/>
</svg>
