<svg xmlns="http://www.w3.org/2000/svg" width="64.999" height="65" viewBox="0 0 64.999 65">
  <path id="icon" d="M1403.9,2999a1.9,1.9,0,1,1,0-3.809h2.031v-21.2a1.9,1.9,0,0,1,1.9-1.9h7.618a1.9,1.9,0,0,1,1.9,1.9v21.2h3.809v-13.584a1.9,1.9,0,0,1,1.9-1.9h7.617a1.9,1.9,0,0,1,1.9,1.9v13.584h3.808v-28.817a1.9,1.9,0,0,1,1.9-1.9h7.618a1.9,1.9,0,0,1,1.9,1.9v28.817h3.809v-40.243a1.9,1.9,0,0,1,1.9-1.9h7.618a1.9,1.9,0,0,1,1.9,1.9v40.243h2.031a1.9,1.9,0,0,1,0,3.809Zm17.266-32.626a5.677,5.677,0,0,1,.069-.693l-5.637-2.818a5.7,5.7,0,1,1,1.759-4.107,5.493,5.493,0,0,1-.07.692l5.637,2.818a5.612,5.612,0,0,1,6.4-1.033l7.647-7.646a5.65,5.65,0,0,1-.573-2.448,5.706,5.706,0,0,1,8.876-4.752l6.644-4.982a5.63,5.63,0,0,1-.285-1.692,5.724,5.724,0,1,1,2.551,4.752l-6.644,4.981a5.642,5.642,0,0,1,.285,1.692,5.719,5.719,0,0,1-5.713,5.713,5.636,5.636,0,0,1-2.447-.573l-7.647,7.647a5.651,5.651,0,0,1,.573,2.448,5.713,5.713,0,0,1-11.425,0Z" transform="translate(-1402 -2933.999)" fill="#fff"/>
</svg>
