<svg xmlns="http://www.w3.org/2000/svg" width="69.016" height="64.973" viewBox="0 0 69.016 64.973">
  <path id="icon" d="M614.281,2598.986a2.03,2.03,0,0,1,0-4.061h6.631l1.348-4.061h24.48l1.348,4.061h6.631a2.03,2.03,0,0,1,0,4.061Zm-8.222-12.182a6.086,6.086,0,0,1-6.066-6.091v-2.03h69.016v2.03a6.2,6.2,0,0,1-6.2,6.091Zm62.949-12.181H656.741v-6.091a2.028,2.028,0,0,0-2.021-2.03H651.6a18.2,18.2,0,0,0-.719-1.74l2.21-2.22a2.04,2.04,0,0,0,0-2.871l-5.719-5.742a2.015,2.015,0,0,0-2.859,0l-2.211,2.22a18.518,18.518,0,0,0-1.732-.724v-3.136a2.029,2.029,0,0,0-2.022-2.03h-8.087a2.028,2.028,0,0,0-2.022,2.03v3.136a18.5,18.5,0,0,0-1.732.724l-2.211-2.22a2.013,2.013,0,0,0-2.859,0l-5.719,5.742a2.04,2.04,0,0,0,0,2.871l2.21,2.22a18.325,18.325,0,0,0-.719,1.74h-3.124a2.029,2.029,0,0,0-2.022,2.03v6.091H599.992V2540.1a6.085,6.085,0,0,1,6.066-6.09h56.749a6.219,6.219,0,0,1,4.355,1.785,5.982,5.982,0,0,1,1.846,4.3v34.518h0ZM648.65,2548.23a6.07,6.07,0,1,0,6.07-6.09A6.087,6.087,0,0,0,648.65,2548.23Zm-4.307,26.391a10.113,10.113,0,1,0-19.687,0H616.3v-4.061H618.9a2.024,2.024,0,0,0,1.958-1.523,14.019,14.019,0,0,1,1.5-3.619,2.039,2.039,0,0,0-.311-2.467l-1.84-1.848,2.859-2.871,1.84,1.848a2.008,2.008,0,0,0,2.459.312,13.861,13.861,0,0,1,3.6-1.5,2.031,2.031,0,0,0,1.516-1.968v-2.6h4.044v2.6a2.032,2.032,0,0,0,1.516,1.968,13.854,13.854,0,0,1,3.6,1.5,2.007,2.007,0,0,0,2.459-.312l1.84-1.848,2.859,2.871-1.839,1.848a2.039,2.039,0,0,0-.311,2.467,13.984,13.984,0,0,1,1.5,3.619,2.026,2.026,0,0,0,1.959,1.523H652.7v4.061Zm-15.517,0a6.067,6.067,0,1,1,11.347,0Z" transform="translate(-599.992 -2534.013)" fill="#fff"/>
</svg>
