<svg xmlns="http://www.w3.org/2000/svg" width="133.391" height="133.391" viewBox="0 0 133.391 133.391">
  <path id="download-solid" d="M56.274,0H77.117A6.238,6.238,0,0,1,83.37,6.253V50.022h22.848a5.2,5.2,0,0,1,3.673,8.884L70.265,98.558a5.048,5.048,0,0,1-7.112,0L23.474,58.906a5.2,5.2,0,0,1,3.673-8.884H50.022V6.253A6.238,6.238,0,0,1,56.274,0Zm77.117,97.959v29.179a6.238,6.238,0,0,1-6.253,6.253H6.253A6.238,6.238,0,0,1,0,127.139V97.959a6.238,6.238,0,0,1,6.253-6.253h38.22l12.766,12.766a13.35,13.35,0,0,0,18.914,0L88.919,91.706h38.22A6.238,6.238,0,0,1,133.391,97.959Zm-32.306,22.927a5.211,5.211,0,1,0-5.211,5.211A5.226,5.226,0,0,0,101.086,120.886Zm16.674,0a5.211,5.211,0,1,0-5.211,5.211A5.226,5.226,0,0,0,117.759,120.886Z" fill="#48284a"/>
</svg>
