<svg xmlns="http://www.w3.org/2000/svg" width="27.903" height="27.903" viewBox="0 0 27.903 27.903">
  <path id="linkedin-brands" d="M25.91,32H1.987A2,2,0,0,0,0,34.012V57.891A2,2,0,0,0,1.987,59.9H25.91A2.007,2.007,0,0,0,27.9,57.891V34.012A2.007,2.007,0,0,0,25.91,32ZM8.433,55.917H4.3V42.6H8.439V55.917ZM6.365,40.782a2.4,2.4,0,1,1,2.4-2.4A2.4,2.4,0,0,1,6.365,40.782Zm17.57,15.135H19.8V49.439c0-1.545-.031-3.531-2.149-3.531-2.155,0-2.485,1.682-2.485,3.419v6.59H11.03V42.6H15v1.819h.056a4.356,4.356,0,0,1,3.918-2.149c4.185,0,4.964,2.759,4.964,6.347Z" transform="translate(0 -32)" fill="#ff5964"/>
</svg>
